<svg xmlns="http://www.w3.org/2000/svg" width="22.957" height="24.645" viewBox="0 0 22.957 24.645">
  <path id="Caminho_60" data-name="Caminho 60" d="M1754.714-1875.527a.969.969,0,0,1-.965-.965.964.964,0,0,1,.965-.965.964.964,0,0,1,.965.965.968.968,0,0,1-.965.965m-9.605-.965a.968.968,0,0,1-.965.965.969.969,0,0,1-.965-.965.964.964,0,0,1,.965-.965.964.964,0,0,1,.965.965m-2.91-5.094h13.152a3.1,3.1,0,0,0,3.095-3.094v-5.594a.362.362,0,0,0-.014-.109l-.028-.13c0-.007-.007-.014-.007-.027s-.021-.055-.048-.123l-.068-.11a.363.363,0,0,0-.048-.075l-.048-.062a.487.487,0,0,0-.075-.082l-.062-.048a.1.1,0,0,0-.021-.014l-.068-.048-16.76-2.4v-1.992a.792.792,0,0,0-.007-.116l-.062-.267a.519.519,0,0,0-.027-.075l-.1-.13-.206.205-.082.034.294-.253-.075-.1-4-1.794a1.048,1.048,0,0,0-.8,0,1.017,1.017,0,0,0-.568.561,1.048,1.048,0,0,0-.007.8,1.052,1.052,0,0,0,.562.575l2.978,1.253v14.261a3.089,3.089,0,0,0,2.184,2.951,3.06,3.06,0,0,0-.205,1.1,3.058,3.058,0,0,0,3.053,3.06,3.059,3.059,0,0,0,3.06-3.06,2.986,2.986,0,0,0-.151-.958h4.758a3.029,3.029,0,0,0-.157.958,3.064,3.064,0,0,0,3.061,3.06,3.059,3.059,0,0,0,3.06-3.06,3.058,3.058,0,0,0-3.06-3.053H1742.2a1,1,0,0,1-1-1v-1.205a3.058,3.058,0,0,0,1,.164" transform="translate(-1735.489 1898.076)" fill="#fb5f00"/>
</svg>
