<svg xmlns="http://www.w3.org/2000/svg" width="22.164" height="13.912" viewBox="0 0 22.164 13.912">
  <g id="Grupo_491" data-name="Grupo 491" transform="translate(-450.798 -61.536)">
    <path id="Caminho_57" data-name="Caminho 57" d="M260.027-1888.6h19.712a1.225,1.225,0,0,0,1.226-1.223,1.227,1.227,0,0,0-1.226-1.23H260.027a1.227,1.227,0,0,0-1.226,1.23,1.225,1.225,0,0,0,1.226,1.223" transform="translate(191.997 1952.586)" fill="#fb5f00"/>
    <path id="Caminho_58" data-name="Caminho 58" d="M279.739-1882.9H260.027a1.227,1.227,0,0,0-1.226,1.23,1.225,1.225,0,0,0,1.226,1.223h19.712a1.225,1.225,0,0,0,1.226-1.223,1.227,1.227,0,0,0-1.226-1.23" transform="translate(191.997 1950.166)" fill="#fb5f00"/>
    <path id="Caminho_59" data-name="Caminho 59" d="M279.739-1874.75H260.027a1.227,1.227,0,0,0-1.226,1.23,1.225,1.225,0,0,0,1.226,1.223h19.712a1.225,1.225,0,0,0,1.226-1.223,1.227,1.227,0,0,0-1.226-1.23" transform="translate(191.997 1947.745)" fill="#fb5f00"/>
  </g>
</svg>
