<svg xmlns="http://www.w3.org/2000/svg" width="22.318" height="22.496" viewBox="0 0 22.318 22.496">
  <path id="Caminho_56" data-name="Caminho 56" d="M153.432-1887.5a6.136,6.136,0,0,1,6.13-6.13,6.136,6.136,0,0,1,6.129,6.13,6.136,6.136,0,0,1-6.129,6.13,6.136,6.136,0,0,1-6.13-6.13m19.5,11.817-6.6-6.566a8.511,8.511,0,0,0,1.811-5.251,8.594,8.594,0,0,0-8.582-8.583,8.593,8.593,0,0,0-8.582,8.583,8.594,8.594,0,0,0,8.582,8.584,8.561,8.561,0,0,0,5-1.624l6.641,6.6a1.242,1.242,0,0,0,.865.352,1.228,1.228,0,0,0,.869-.359,1.229,1.229,0,0,0,0-1.737" transform="translate(-150.981 1896.08)" fill="#fb5f00"/>
</svg>
