<svg xmlns="http://www.w3.org/2000/svg" width="34" height="34" viewBox="0 0 34 34">
  <g id="Grupo_193" data-name="Grupo 193" transform="translate(-1422 -104)">
    <circle id="Elipse_18" data-name="Elipse 18" cx="17" cy="17" r="17" transform="translate(1422 104)" fill="#ed996b"/>
    <g id="shopping-bag" transform="translate(1383.2 112)">
      <path id="Caminho_237" data-name="Caminho 237" d="M62.493,14.792l-.98-11.034a.472.472,0,0,0-.469-.43H59.029a3.381,3.381,0,0,0-6.761,0H50.252a.469.469,0,0,0-.469.43L48.8,14.792c0,.014,0,.028,0,.042a2.439,2.439,0,0,0,2.569,2.278h8.56A2.439,2.439,0,0,0,62.5,14.834.17.17,0,0,0,62.493,14.792ZM55.648.945a2.438,2.438,0,0,1,2.436,2.383H53.213A2.438,2.438,0,0,1,55.648.945Z" fill="#f9d8bf"/>
    </g>
  </g>
</svg>
