<svg xmlns="http://www.w3.org/2000/svg" width="34" height="34.001" viewBox="0 0 34 34.001">
  <g id="Grupo_192" data-name="Grupo 192" transform="translate(-1232 -104)">
    <g id="Grupo_190" data-name="Grupo 190" transform="translate(1232 104)">
      <path id="Caminho_236" data-name="Caminho 236" d="M17.291,0A17.038,17.038,0,0,0,6.061,30.07a4.517,4.517,0,0,1,.806-.575l5.073-2.774A2.078,2.078,0,0,0,13.02,24.9V22.815a11.315,11.315,0,0,1-2.057-4.265,1.711,1.711,0,0,1-.787-1.435v-2.28a1.7,1.7,0,0,1,.568-1.264v-3.3h12.51v3.3a1.7,1.7,0,0,1,.568,1.264v2.28a1.71,1.71,0,0,1-1.21,1.627,12.54,12.54,0,0,1-1.689,3.411,8.221,8.221,0,0,1-.514.662v2.136a2.076,2.076,0,0,0,1.145,1.857l5.432,2.722a4.522,4.522,0,0,1,.892.6A17.046,17.046,0,0,0,17.291,0Z" transform="translate(0 0)" fill="#ed996b"/>
    </g>
    <path id="Caminho_235" data-name="Caminho 235" d="M15.383,29.134,10.259,31.85a4.606,4.606,0,0,0-.822.569,17.543,17.543,0,0,0,22.051.055,4.557,4.557,0,0,0-.9-.588L25.1,29.22A2.029,2.029,0,0,1,23.941,27.4V25.308a8.091,8.091,0,0,0,.519-.649,12.137,12.137,0,0,0,1.706-3.341,1.682,1.682,0,0,0,1.222-1.594V17.492a1.648,1.648,0,0,0-.574-1.238V13.025S27.5,8,20.5,8s-6.318,5.024-6.318,5.024v3.229a1.645,1.645,0,0,0-.574,1.238v2.234a1.664,1.664,0,0,0,.794,1.405,10.977,10.977,0,0,0,2.078,4.178v2.041A2.028,2.028,0,0,1,15.383,29.134Z" transform="translate(1228.507 101.657)" fill="#f9d8bf"/>
  </g>
</svg>
