<?xml version="1.0" encoding="UTF-8" standalone="no"?>
<!DOCTYPE svg PUBLIC "-//W3C//DTD SVG 1.1//EN" "http://www.w3.org/Graphics/SVG/1.1/DTD/svg11.dtd">
<svg width="100%" height="100%" viewBox="0 0 22 19" version="1.1" xmlns="http://www.w3.org/2000/svg" xmlns:xlink="http://www.w3.org/1999/xlink" xml:space="preserve" xmlns:serif="http://www.serif.com/" style="fill-rule:evenodd;clip-rule:evenodd;stroke-linejoin:round;stroke-miterlimit:2;">
    <g transform="matrix(1,0,0,1,-1047,-975)">
        <g transform="matrix(0.0459161,0,0,0.0459161,1047,973.872)">
            <path d="M319.762,36.401C331.754,36.401 342.893,38.788 353.165,43.54C356.02,44.871 357.735,47.061 358.306,50.107C358.882,53.34 358.022,56.102 355.74,58.383L341.75,72.373C339.848,74.276 337.658,75.225 335.18,75.225C334.616,75.225 333.76,75.032 332.617,74.654C328.24,73.511 323.958,72.94 319.77,72.94L82.226,72.94C69.662,72.94 58.907,77.412 49.962,86.358C41.015,95.306 36.544,106.06 36.544,118.622L36.544,356.159C36.544,368.725 41.015,379.474 49.962,388.423C58.907,397.368 69.662,401.841 82.226,401.841L319.768,401.841C332.332,401.841 343.087,397.368 352.032,388.423C360.984,379.473 365.447,368.724 365.447,356.159L365.447,283.646C365.447,281.169 366.305,279.078 368.013,277.363L386.287,259.092C388.189,257.186 390.372,256.235 392.85,256.235C394.001,256.235 395.143,256.522 396.283,257.097C400.088,258.623 402.001,261.381 402.003,265.375L402.003,356.172C402.003,378.82 393.954,398.186 377.869,414.27C361.785,430.358 342.415,438.4 319.768,438.4L82.227,438.4C59.577,438.4 40.209,430.358 24.125,414.27C8.042,398.186 0,378.819 0,356.172L0,118.629C0,95.978 8.042,76.613 24.124,60.527C40.208,44.443 59.575,36.401 82.226,36.401L319.762,36.401ZM467.95,93.216L436.541,61.807C431.973,57.24 426.545,54.956 420.262,54.956C413.987,54.956 408.555,57.24 403.991,61.807L219.265,246.532L144.181,171.443C139.612,166.873 134.186,164.592 127.907,164.592C121.627,164.592 116.203,166.873 111.633,171.443L80.228,202.848C75.66,207.416 73.374,212.842 73.374,219.125C73.374,225.405 75.66,230.829 80.228,235.399L202.995,358.166C207.564,362.737 212.99,365.017 219.269,365.017C225.548,365.017 230.973,362.738 235.543,358.166L467.947,125.763C472.512,121.196 474.801,115.769 474.801,109.489C474.801,103.209 472.518,97.783 467.95,93.216Z" style="fill:rgb(204,0,0);"/>
        </g>
    </g>
</svg>
