<?xml version="1.0" encoding="UTF-8" standalone="no"?>
<!DOCTYPE svg PUBLIC "-//W3C//DTD SVG 1.1//EN" "http://www.w3.org/Graphics/SVG/1.1/DTD/svg11.dtd">
<svg width="100%" height="100%" viewBox="0 0 25 24" version="1.1" xmlns="http://www.w3.org/2000/svg" xmlns:xlink="http://www.w3.org/1999/xlink" xml:space="preserve" xmlns:serif="http://www.serif.com/" style="fill-rule:evenodd;clip-rule:evenodd;stroke-linejoin:round;stroke-miterlimit:2;">
    <g transform="matrix(1,0,0,1,-1468,-545)">
        <g transform="matrix(1,0,0,1,68,455.305)">
            <path d="M1412.49,113.47C1409.35,113.47 1406.39,112.24 1404.17,110.02C1401.94,107.8 1400.72,104.84 1400.72,101.69C1400.72,98.55 1401.94,95.59 1404.17,93.36C1406.39,91.14 1409.35,89.92 1412.49,89.92C1415.64,89.92 1418.6,91.14 1420.82,93.36C1425.41,97.96 1425.41,105.43 1420.82,110.02C1418.6,112.24 1415.64,113.47 1412.49,113.47M1412.49,91.92C1409.88,91.92 1407.43,92.93 1405.58,94.78C1403.73,96.62 1402.72,99.08 1402.72,101.69C1402.72,104.3 1403.73,106.76 1405.58,108.61C1407.43,110.45 1409.88,111.47 1412.49,111.47C1415.1,111.47 1417.56,110.45 1419.41,108.6C1423.22,104.79 1423.22,98.59 1419.41,94.78C1417.56,92.93 1415.11,91.92 1412.49,91.92" style="fill:white;"/>
            <path d="M1410.07,107.53C1409.82,107.53 1409.56,107.43 1409.37,107.24C1408.97,106.85 1408.97,106.22 1409.37,105.83L1413.5,101.69L1409.37,97.56C1408.97,97.17 1408.97,96.54 1409.37,96.15C1409.76,95.75 1410.39,95.75 1410.78,96.15L1415.62,100.98C1415.81,101.17 1415.91,101.43 1415.91,101.69C1415.91,101.96 1415.81,102.21 1415.62,102.4L1410.78,107.24C1410.58,107.43 1410.33,107.53 1410.07,107.53" style="fill:white;fill-rule:nonzero;"/>
        </g>
    </g>
</svg>
