<svg xmlns="http://www.w3.org/2000/svg" width="38.387" height="46.285" viewBox="0 0 38.387 46.285">
  <g id="Grupo_169" data-name="Grupo 169" transform="translate(0 25.49)">
    <path id="Caminho_246" data-name="Caminho 246" d="M14.548,5.211A.911.911,0,0,1,13.64,4.3V-6.592a.923.923,0,0,1,.908-.908H25.443a.911.911,0,0,1,.908.908.9.9,0,0,1-.908.908H15.456V4.3a.9.9,0,0,1-.908.908" transform="translate(11.128 14.677)" fill="#fff"/>
    <path id="Caminho_247" data-name="Caminho 247" d="M23.383,18.381H4.626A1.81,1.81,0,0,1,2.81,16.565V-20.714A1.821,1.821,0,0,1,4.626-22.53H34.278a1.821,1.821,0,0,1,1.816,1.816V5.67a1.8,1.8,0,0,1-.527,1.289L24.673,17.854a1.8,1.8,0,0,1-1.289.527M6.442,14.749h16.2l9.824-9.824V-18.9H6.442Z" transform="translate(2.292 2.415)" fill="#fff" fill-rule="evenodd"/>
    <path id="Caminho_248" data-name="Caminho 248" d="M18.265-16.414H7.588a.923.923,0,0,1-.908-.908.911.911,0,0,1,.908-.908H18.265a.911.911,0,0,1,.908.908.923.923,0,0,1-.908.908" transform="translate(5.45 5.923)" fill="#fff"/>
    <path id="Caminho_249" data-name="Caminho 249" d="M25.292-14H7.588a.911.911,0,0,1-.908-.908.923.923,0,0,1,.908-.908h17.7a.911.911,0,0,1,.908.908.9.9,0,0,1-.908.908" transform="translate(5.45 7.889)" fill="#fff"/>
    <path id="Caminho_250" data-name="Caminho 250" d="M25.292-11.584H7.588a.911.911,0,0,1-.908-.908.911.911,0,0,1,.908-.908h17.7a.9.9,0,0,1,.908.908.9.9,0,0,1-.908.908" transform="translate(5.45 9.863)" fill="#fff"/>
    <path id="Caminho_251" data-name="Caminho 251" d="M15.015-9.164H7.588a.923.923,0,0,1-.908-.908.911.911,0,0,1,.908-.908h7.427a.911.911,0,0,1,.908.908.923.923,0,0,1-.908.908" transform="translate(5.45 11.838)" fill="#fff"/>
    <path id="Caminho_252" data-name="Caminho 252" d="M15.265-19.914H4.588a.923.923,0,0,1-.908-.908.911.911,0,0,1,.908-.908H15.265a.911.911,0,0,1,.908.908.923.923,0,0,1-.908.908" transform="translate(3.002 3.068)" fill="#fff"/>
    <path id="Caminho_253" data-name="Caminho 253" d="M1.816,16.492A1.8,1.8,0,0,1,0,14.676V-21.858A3.619,3.619,0,0,1,3.632-25.49H31.468a1.81,1.81,0,0,1,1.816,1.816,1.821,1.821,0,0,1-1.816,1.816H3.632V14.676a1.81,1.81,0,0,1-1.816,1.816" transform="translate(0 0)" fill="#fff"/>
  </g>
</svg>
