<svg xmlns="http://www.w3.org/2000/svg" width="24" height="24" viewBox="0 0 24 24">
  <path id="Caminho_217" data-name="Caminho 217" d="M55.04-47H38.96A3.969,3.969,0,0,0,35-43.04v16A3.987,3.987,0,0,0,38.96-23H55.04A3.987,3.987,0,0,0,59-27.04v-16A3.969,3.969,0,0,0,55.04-47M53.59-35.12c-1.54,6.22-11.72,8.81-16.41,2.42a4.931,4.931,0,0,0,6.87-.16c-1.13.16-2.02-.97-.57-1.61a2.061,2.061,0,0,1-2.26-1.14,1.62,1.62,0,0,1,1.3-.48c-1.46-.32-1.94-1.05-2.11-1.86a3.224,3.224,0,0,1,1.14-.16,2.577,2.577,0,0,1-1.62-2.34,27.826,27.826,0,0,1,4.77,2.1,7.579,7.579,0,0,1,1.45,1.13c.65-1.78,1.54-3.64,2.91-4.53a.748.748,0,0,1-.24.57,2.464,2.464,0,0,1,1.45-.73c-.08.4-.64.65-.97.81.25-.08,1.62-.73,1.78-.41.16.41-.97.65-1.13.73a1.225,1.225,0,0,0-.49.16c1.78-.24,3.48,1.3,3.96,3.07.09.17.09.25.17.41a3.275,3.275,0,0,0,2.18-.24,2.312,2.312,0,0,1-2.02,1.21,4.47,4.47,0,0,0,2.1.24,2.561,2.561,0,0,1-2.26.81" transform="translate(-35 47)" fill="#696969" fill-rule="evenodd"/>
</svg>
