<svg xmlns="http://www.w3.org/2000/svg" width="24" height="24" viewBox="0 0 24 24">
  <path id="Caminho_215" data-name="Caminho 215" d="M145.15-47H124.82A3.517,3.517,0,0,0,123-45.18v20.34A3.554,3.554,0,0,0,124.82-23h20.33A3.61,3.61,0,0,0,147-24.84V-45.18A3.573,3.573,0,0,0,145.15-47M126.87-26.6h3.43V-37.54h-3.43Zm1.69-12.29a1.67,1.67,0,0,1-1.79-1.68,1.705,1.705,0,0,1,1.84-1.7,1.679,1.679,0,0,1,1.79,1.7,1.674,1.674,0,0,1-1.84,1.68M143.21-26.6h-3.44v-6.07c0-1.39-.48-2.35-1.74-2.35a1.845,1.845,0,0,0-1.74,1.27,2.331,2.331,0,0,0-.12.84v6.31h-3.43V-37.78h3.05v1.77h.07a3.952,3.952,0,0,1,3.41-1.77c2.24,0,3.94,1.48,3.94,4.72Z" transform="translate(-123 47)" fill="#696969" fill-rule="evenodd"/>
</svg>
