<svg xmlns="http://www.w3.org/2000/svg" width="24" height="24" viewBox="0 0 24 24">
  <path id="Caminho_213" data-name="Caminho 213" d="M658-60.31a11.734,11.734,0,0,1-11.78,11.69,11.8,11.8,0,0,1-5.7-1.453L634-48l2.127-6.273a11.556,11.556,0,0,1-1.69-6.037A11.735,11.735,0,0,1,646.22-72,11.734,11.734,0,0,1,658-60.31m-11.78-9.827a9.877,9.877,0,0,0-9.907,9.827,9.723,9.723,0,0,0,1.887,5.763l-1.237,3.65,3.807-1.21a9.9,9.9,0,0,0,5.45,1.627,9.879,9.879,0,0,0,9.9-9.83,9.876,9.876,0,0,0-9.9-9.827m5.947,12.52c-.07-.12-.263-.19-.553-.333s-1.71-.837-1.973-.933-.457-.143-.65.143-.747.933-.913,1.123-.337.217-.627.073a7.89,7.89,0,0,1-2.323-1.423,8.757,8.757,0,0,1-1.607-1.983c-.167-.287-.017-.443.127-.583s.29-.337.433-.5a1.862,1.862,0,0,0,.29-.48.525.525,0,0,0-.023-.5c-.073-.143-.65-1.553-.893-2.127s-.48-.48-.65-.48-.36-.023-.553-.023a1.075,1.075,0,0,0-.77.36,3.208,3.208,0,0,0-1.01,2.39,5.565,5.565,0,0,0,1.18,2.963,11.818,11.818,0,0,0,4.933,4.327c2.937,1.147,2.937.763,3.467.713a2.92,2.92,0,0,0,1.95-1.36,2.368,2.368,0,0,0,.167-1.363" transform="translate(-634 72)" fill="#696969" fill-rule="evenodd"/>
</svg>
