<svg xmlns="http://www.w3.org/2000/svg" width="24" height="16.728" viewBox="0 0 24 16.728">
  <path id="Caminho_218" data-name="Caminho 218" d="M266.585-69.086a3.033,3.033,0,0,0-2.594-2.359A80.637,80.637,0,0,0,255-71.777a80.646,80.646,0,0,0-8.988.332,3.032,3.032,0,0,0-2.593,2.359A25.714,25.714,0,0,0,243-63.413a25.707,25.707,0,0,0,.418,5.673,3.032,3.032,0,0,0,2.594,2.359,80.58,80.58,0,0,0,8.987.333,80.57,80.57,0,0,0,8.987-.333,3.033,3.033,0,0,0,2.594-2.359,25.649,25.649,0,0,0,.42-5.673A25.711,25.711,0,0,0,266.585-69.086Zm-14.682,9.4v-7.937l7.63,3.981Z" transform="translate(-243 71.777)" fill="#696969"/>
</svg>
