<?xml version="1.0" encoding="UTF-8" standalone="no"?>
<!DOCTYPE svg PUBLIC "-//W3C//DTD SVG 1.1//EN" "http://www.w3.org/Graphics/SVG/1.1/DTD/svg11.dtd">
<svg width="100%" height="100%" viewBox="0 0 18 20" version="1.1" xmlns="http://www.w3.org/2000/svg" xmlns:xlink="http://www.w3.org/1999/xlink" xml:space="preserve" xmlns:serif="http://www.serif.com/" style="fill-rule:evenodd;clip-rule:evenodd;stroke-linejoin:round;stroke-miterlimit:2;">
    <g transform="matrix(1,0,0,1,-1519,-89)">
        <g transform="matrix(0.0424107,0,0,0.0424107,1518.5,89.7394)">
            <path d="M424.807,151.238C420.523,146.531 414.562,143.927 408,143.909L312,143.909L312,88C312,39.477 272.523,0 224,0C175.477,0 136,39.477 136,88L136,143.909L39.977,143.909C33.438,143.928 27.477,146.53 23.194,151.238C18.921,155.932 16.894,162.089 17.486,168.57C24.176,242.051 30.986,319.198 38.307,404.417C39.401,417.118 49.778,429.037 61.944,431.554C115.156,442.467 169.679,448 224,448C278.321,448 332.845,442.467 386.069,431.551C398.222,429.037 408.598,417.118 409.693,404.415C417.002,319.325 423.813,242.18 430.513,168.573C431.106,162.09 429.08,155.934 424.807,151.238ZM152,88C152,48.299 184.299,16 224,16C263.701,16 296,48.299 296,88L296,143.909L152,143.909L152,88ZM382.841,415.88C330.686,426.576 277.244,432 224,432C170.756,432 117.314,426.576 65.172,415.883C59.94,414.801 54.734,408.682 54.248,403.046C53.069,389.322 51.904,375.828 50.75,362.503C108.249,371.546 166.124,376.082 223.999,376.082C281.874,376.082 339.749,371.547 397.248,362.503C396.094,375.829 394.929,389.323 393.751,403.044C393.266,408.681 388.059,414.801 382.841,415.88ZM414.579,167.119C410.279,214.361 405.933,263.072 401.439,314.389C401.367,314.398 401.295,314.4 401.223,314.411C387.952,316.468 374.438,318.316 361.056,319.906C356.669,320.427 353.535,324.407 354.056,328.794C354.539,332.861 357.994,335.852 361.991,335.852C362.305,335.852 362.624,335.833 362.945,335.795C375.286,334.329 387.73,332.635 400.008,330.773C399.565,335.848 399.121,340.95 398.675,346.079C282.753,364.735 165.248,364.735 49.327,346.079C48.881,340.949 48.437,335.846 47.994,330.771C105.964,339.564 164.973,343.999 224.053,343.999C240.482,343.999 256.916,343.657 273.335,342.972C277.75,342.787 281.179,339.06 280.995,334.645C280.81,330.231 277.079,326.798 272.668,326.986C197.001,330.145 121.003,325.913 46.778,314.412C46.706,314.401 46.634,314.399 46.562,314.39C42.064,263.018 37.717,214.306 33.421,167.118C33.242,165.158 33.812,163.344 35.027,162.01C36.254,160.662 38.028,159.917 40.001,159.911L136.001,159.911L136.001,177.014C122.215,180.575 112.001,193.118 112.001,208.001C112.001,225.646 126.356,240.001 144.001,240.001C161.646,240.001 176.001,225.646 176.001,208.001C176.001,203.583 172.419,200.001 168.001,200.001C163.583,200.001 160.001,203.583 160.001,208.001C160.001,216.823 152.823,224.001 144.001,224.001C135.179,224.001 128.001,216.823 128.001,208.001C128.001,202.094 131.227,196.938 136.001,194.166L136.001,208C136.001,212.418 139.583,216 144.001,216C148.419,216 152.001,212.418 152.001,208L152.001,159.909L296.001,159.909L296.001,177.012C282.215,180.573 272.001,193.116 272.001,207.999C272.001,225.644 286.356,239.999 304.001,239.999C321.646,239.999 336.001,225.644 336.001,207.999C336.001,203.581 332.419,199.999 328.001,199.999C323.583,199.999 320.001,203.581 320.001,207.999C320.001,216.821 312.823,223.999 304.001,223.999C295.179,223.999 288.001,216.821 288.001,207.999C288.001,202.092 291.227,196.936 296.001,194.164L296.001,208C296.001,212.418 299.583,216 304.001,216C308.419,216 312.001,212.418 312.001,208L312.001,159.909L407.978,159.909C409.974,159.915 411.749,160.66 412.975,162.008C414.189,163.342 414.759,165.156 414.579,167.119Z" style="fill:white;"/>
            <path d="M329.277,323.237C321.364,323.955 313.345,324.6 305.442,325.153C301.034,325.462 297.712,329.285 298.02,333.692C298.315,337.91 301.828,341.133 305.992,341.133C306.18,341.133 306.369,341.127 306.559,341.113C314.571,340.552 322.702,339.898 330.724,339.17C335.124,338.771 338.367,334.88 337.968,330.48C337.568,326.08 333.685,322.836 329.277,323.237Z" style="fill:white;"/>
        </g>
    </g>
</svg>
