<?xml version="1.0" encoding="UTF-8" standalone="no"?>
<!DOCTYPE svg PUBLIC "-//W3C//DTD SVG 1.1//EN" "http://www.w3.org/Graphics/SVG/1.1/DTD/svg11.dtd">
<svg width="100%" height="100%" viewBox="0 0 20 17" version="1.1" xmlns="http://www.w3.org/2000/svg" xmlns:xlink="http://www.w3.org/1999/xlink" xml:space="preserve" xmlns:serif="http://www.serif.com/" style="fill-rule:evenodd;clip-rule:evenodd;stroke-linejoin:round;stroke-miterlimit:2;">
    <g transform="matrix(1,0,0,1,-1430,-91)">
        <g transform="matrix(0.734282,0,0,0.734282,762.919,-66.3595)">
            <path d="M922.27,236.42C922.1,236.42 921.92,236.38 921.76,236.29L921.63,236.2L921.29,235.97C920.51,235.43 918.66,234.14 917.44,233.2C912.75,229.54 910.35,226.91 909.89,224.91C909.67,224.25 909.54,223.45 909.54,222.63C909.51,220.46 910.33,218.36 911.79,216.87C913.12,215.52 914.87,214.77 916.71,214.76C918.78,214.76 920.67,215.6 922.03,217.06C923.37,215.55 925.25,214.66 927.3,214.63L927.44,214.63C931.37,214.63 934.61,218.08 934.66,222.32C934.67,223.13 934.56,223.93 934.34,224.69C933.96,226.61 931.56,229.39 927.04,233.1C925.31,234.53 923.89,235.59 922.84,236.26C922.67,236.37 922.47,236.42 922.27,236.42M916.78,216.89C915.45,216.89 914.24,217.42 913.31,218.36C912.24,219.45 911.64,220.99 911.66,222.61C911.67,223.21 911.76,223.8 911.94,224.34C912.15,225.26 913.28,227.27 918.74,231.52C919.82,232.35 921.43,233.48 922.29,234.07C923.19,233.45 924.36,232.56 925.69,231.45C931.03,227.08 932.11,225.02 932.28,224.18C932.46,223.54 932.54,222.95 932.54,222.34C932.5,219.26 930.21,216.76 927.44,216.76L927.33,216.76C925.52,216.78 923.9,217.76 922.98,219.38C922.79,219.71 922.45,219.91 922.07,219.92C921.71,219.92 921.34,219.73 921.14,219.4C920.19,217.83 918.56,216.89 916.78,216.89" style="fill:white;"/>
        </g>
    </g>
</svg>
