<?xml version="1.0" encoding="UTF-8" standalone="no"?>
<!DOCTYPE svg PUBLIC "-//W3C//DTD SVG 1.1//EN" "http://www.w3.org/Graphics/SVG/1.1/DTD/svg11.dtd">
<svg width="100%" height="100%" viewBox="0 0 16 17" version="1.1" xmlns="http://www.w3.org/2000/svg" xmlns:xlink="http://www.w3.org/1999/xlink" xml:space="preserve" xmlns:serif="http://www.serif.com/" style="fill-rule:evenodd;clip-rule:evenodd;stroke-linejoin:round;stroke-miterlimit:2;">
    <g transform="matrix(1,0,0,1,-1388,-91)">
        <g transform="matrix(1,0,0,1,-44,65.2394)">
            <path d="M1443.24,38.368C1442.06,39.281 1440.58,39.824 1438.98,39.824C1435.13,39.824 1432,36.693 1432,32.848C1432,28.995 1435.13,25.864 1438.98,25.864C1442.83,25.864 1445.96,28.995 1445.96,32.848C1445.96,34.587 1445.32,36.18 1444.26,37.404L1447.8,40.938C1448.07,41.211 1448.07,41.652 1447.8,41.933C1447.65,42.066 1447.48,42.136 1447.3,42.136C1447.12,42.136 1446.94,42.066 1446.8,41.933L1443.24,38.368ZM1438.98,27.265C1435.9,27.265 1433.4,29.766 1433.4,32.848C1433.4,35.923 1435.9,38.423 1438.98,38.423C1442.06,38.423 1444.56,35.923 1444.56,32.848C1444.56,29.766 1442.06,27.265 1438.98,27.265Z" style="fill:white;"/>
        </g>
    </g>
</svg>
