<?xml version="1.0" encoding="UTF-8" standalone="no"?>
<!DOCTYPE svg PUBLIC "-//W3C//DTD SVG 1.1//EN" "http://www.w3.org/Graphics/SVG/1.1/DTD/svg11.dtd">
<svg width="100%" height="100%" viewBox="0 0 20 21" version="1.1" xmlns="http://www.w3.org/2000/svg" xmlns:xlink="http://www.w3.org/1999/xlink" xml:space="preserve" xmlns:serif="http://www.serif.com/" style="fill-rule:evenodd;clip-rule:evenodd;stroke-linejoin:round;stroke-miterlimit:2;">
    <g transform="matrix(1,0,0,1,-1474,-89)">
        <g transform="matrix(0.0672898,0,0,0.0672898,1474.01,89.2474)">
            <path d="M161.763,217.768C158.07,219.904 156.8,224.639 158.946,228.342C160.381,230.819 162.98,232.201 165.652,232.201C166.964,232.201 168.304,231.871 169.521,231.158C173.215,229.013 174.485,224.277 172.338,220.583C170.202,216.892 165.467,215.622 161.763,217.768Z" style="fill:white;"/>
            <path d="M135.473,217.778C131.78,215.642 127.043,216.911 124.908,220.615C122.773,224.309 124.031,229.045 127.735,231.18C128.954,231.881 130.283,232.222 131.594,232.222C134.276,232.222 136.876,230.829 138.31,228.353C140.446,224.649 139.177,219.914 135.473,217.778Z" style="fill:white;"/>
            <path d="M148.628,221.286C144.347,221.286 140.89,224.753 140.89,229.024C140.89,233.295 144.358,236.762 148.628,236.762C152.901,236.762 156.366,233.295 156.366,229.024C156.356,224.742 152.9,221.286 148.628,221.286Z" style="fill:white;"/>
            <path d="M125.827,208.495L125.837,208.495C123.692,204.495 118.956,203.371 115.252,205.508C111.558,207.654 110.3,212.244 112.446,215.947C113.88,218.413 116.479,219.842 119.14,219.842C120.461,219.842 121.792,219.618 123.021,218.906C126.714,216.759 127.973,211.495 125.827,208.495Z" style="fill:white;"/>
            <path d="M171.398,208.132C169.262,211.825 170.521,216.562 174.225,218.707C175.443,219.408 176.774,219.749 178.094,219.749C180.766,219.749 183.365,218.356 184.801,215.88C186.936,212.176 185.677,207.451 181.973,205.305C178.28,203.169 173.545,204.428 171.398,208.132Z" style="fill:white;"/>
            <path d="M270.18,69.681C256.707,64.927 238.515,61.043 217.365,58.395C214.596,43.152 208.192,30.094 198.412,20.059C185.806,7.123 168.12,0 148.611,0C129.101,0 111.415,7.123 98.809,20.059C89.035,30.089 82.632,43.137 79.861,58.37C59.32,60.797 41.627,64.249 28.354,68.446C16.817,72.094 1.478,78.273 1.478,89.76C1.478,96.021 5.649,102.821 13.22,108.909C21.025,115.183 35.748,123.415 61.565,126.997C66.108,127.628 70.81,128.067 75.639,128.35C77.772,132.955 80.632,136.635 84.053,139.076C86.85,141.071 89.919,142.197 93.025,142.404C96.879,150.095 101.273,157.747 107.273,164.482L107.273,183.496L85.159,183.496C53.824,183.496 29.961,237.197 29.961,264.038C29.961,267.038 31.695,269.801 34.412,271.076C76.522,290.844 116.228,296.985 149.268,296.984C166.661,296.984 182.209,295.295 195.283,292.997C236.456,285.759 262.237,271.451 263.315,270.846C265.752,269.476 267.26,266.832 267.26,264.036C267.26,237.195 243.397,183.496 212.062,183.496L190.274,183.496L190.274,160.083C195.274,154.399 198.514,148.249 201.584,142.08C202.914,141.843 204.41,141.406 205.735,140.774C211.813,137.871 217.408,130.794 220.565,121.844C221.571,118.994 223.513,114.556 223.168,110.227C233.073,109.327 242.101,108.704 250.114,108.154C262.507,107.303 272.305,106.632 279.274,105.281C283.288,104.504 295.506,102.137 295.506,91.308C295.505,82.77 287.225,75.695 270.18,69.681ZM212.062,199.495C229.535,199.495 249.074,236.396 251.526,259.685C242.991,263.782 221.926,272.704 192.602,277.859C157.823,283.974 104.473,285.715 45.719,259.508C48.272,236.207 67.742,199.494 85.158,199.494L115.078,199.494C119.352,199.494 122.273,195.639 122.273,191.365L122.273,178.8C130.273,183.838 138.178,186.927 147.044,186.927C157.304,186.927 166.273,182.782 175.273,176.273L175.273,191.367C175.273,195.64 178.899,199.496 183.172,199.496L212.062,199.496L212.062,199.495ZM206.052,116.693C203.971,122.589 200.965,125.705 199.594,126.604C197.994,126.079 196.257,126.085 194.645,126.643C192.621,127.344 190.977,128.854 190.106,130.813C181.776,149.559 165.591,171.45 147.399,171.45C129.168,171.45 112.971,149.494 104.641,130.691C104.223,129.748 103.621,128.916 102.889,128.221C118.201,127.252 134.609,124.853 152.005,121.027C172.419,116.538 190.98,113.73 207.482,111.836C207.261,112.896 206.842,114.452 206.052,116.693ZM249.073,92.713C224.302,94.414 190.374,96.742 148.679,105.912C69.017,123.433 33.99,104.683 25.152,98.516C20.012,94.931 17.908,91.871 17.222,90.418C21.112,86.643 39.358,79.039 78.323,74.146C78.308,74.873 78.28,75.592 78.28,76.327C78.28,80.601 81.745,84.065 86.018,84.065C90.292,84.065 93.756,80.601 93.756,76.327C93.756,39.361 115.287,15.476 148.61,15.476C181.932,15.476 203.464,39.361 203.464,76.327C203.464,80.601 206.929,84.065 211.202,84.065C215.476,84.065 218.94,80.601 218.94,76.327C218.94,75.611 218.913,74.909 218.899,74.2C252.418,78.699 270.722,85.596 277.43,89.908C271.446,91.178 260.115,91.956 249.073,92.713Z" style="fill:white;"/>
        </g>
    </g>
</svg>
