<?xml version="1.0" encoding="UTF-8" standalone="no"?><!DOCTYPE svg PUBLIC "-//W3C//DTD SVG 1.1//EN" "http://www.w3.org/Graphics/SVG/1.1/DTD/svg11.dtd"><svg width="100%" height="100%" viewBox="0 0 14 21" version="1.1" xmlns="http://www.w3.org/2000/svg" xmlns:xlink="http://www.w3.org/1999/xlink" xml:space="preserve" xmlns:serif="http://www.serif.com/" style="fill-rule:evenodd;clip-rule:evenodd;stroke-linejoin:round;stroke-miterlimit:2;"><path d="M13.05,20.881l-12.18,0c-0.478,0 -0.87,-0.392 -0.87,-0.87l0,-19.141c0,-0.478 0.392,-0.87 0.87,-0.87l12.18,0c0.488,0 0.87,0.392 0.87,0.87l0,19.141c0,0.478 -0.382,0.87 -0.87,0.87m-11.31,-1.74l10.44,0l0,-17.401l-10.44,0l0,17.401Z" style="fill:#fff;"/><path d="M11.31,15.225l-8.7,0c-0.235,0 -0.435,-0.2 -0.435,-0.435l0,-11.023c0,-0.235 0.2,-0.435 0.435,-0.435l8.7,0c0.244,0 0.435,0.2 0.435,0.435l0,11.023c0,0.235 -0.191,0.435 -0.435,0.435m-8.265,-0.87l7.83,0l0,-10.153l-7.83,0l0,10.153Z" style="fill:#fff;"/><path d="M7.996,17.166c0,0.565 -0.461,1.035 -1.036,1.035c-0.565,0 -1.035,-0.47 -1.035,-1.035c0,-0.575 0.47,-1.036 1.035,-1.036c0.575,0 1.036,0.461 1.036,1.036" style="fill:#fff;fill-rule:nonzero;"/></svg>