<?xml version="1.0" encoding="UTF-8" standalone="no"?><!DOCTYPE svg PUBLIC "-//W3C//DTD SVG 1.1//EN" "http://www.w3.org/Graphics/SVG/1.1/DTD/svg11.dtd"><svg width="100%" height="100%" viewBox="0 0 11 16" version="1.1" xmlns="http://www.w3.org/2000/svg" xmlns:xlink="http://www.w3.org/1999/xlink" xml:space="preserve" xmlns:serif="http://www.serif.com/" style="fill-rule:evenodd;clip-rule:evenodd;stroke-linejoin:round;stroke-miterlimit:2;"><path d="M10,16l-9.333,0c-0.367,0 -0.667,-0.3 -0.667,-0.667l0,-14.666c0,-0.367 0.3,-0.667 0.667,-0.667l9.333,0c0.373,0 0.667,0.3 0.667,0.667l0,14.666c0,0.367 -0.294,0.667 -0.667,0.667m-8.667,-1.333l8,0l0,-13.334l-8,0l0,13.334Z" style="fill:#c4d56f;"/><path d="M8.667,11.667l-6.667,0c-0.18,0 -0.333,-0.154 -0.333,-0.334l0,-8.446c0,-0.18 0.153,-0.334 0.333,-0.334l6.667,0c0.186,0 0.333,0.154 0.333,0.334l0,8.446c0,0.18 -0.147,0.334 -0.333,0.334m-6.334,-0.667l6,0l0,-7.78l-6,0l0,7.78Z" style="fill:#c4d56f;"/><path d="M6.127,13.153c0,0.434 -0.354,0.794 -0.794,0.794c-0.433,0 -0.793,-0.36 -0.793,-0.794c0,-0.44 0.36,-0.793 0.793,-0.793c0.44,0 0.794,0.353 0.794,0.793" style="fill:#c4d56f;fill-rule:nonzero;"/></svg>