<?xml version="1.0" encoding="UTF-8" standalone="no"?><!DOCTYPE svg PUBLIC "-//W3C//DTD SVG 1.1//EN" "http://www.w3.org/Graphics/SVG/1.1/DTD/svg11.dtd"><svg width="100%" height="100%" viewBox="0 0 16 17" version="1.1" xmlns="http://www.w3.org/2000/svg" xmlns:xlink="http://www.w3.org/1999/xlink" xml:space="preserve" xmlns:serif="http://www.serif.com/" style="fill-rule:evenodd;clip-rule:evenodd;stroke-linejoin:round;stroke-miterlimit:2;"><path d="M12.625,16.005c-3.066,0 -6.242,-1.413 -8.702,-3.872l-0.048,-0.055c-2.556,-2.577 -3.948,-5.808 -3.872,-8.929l0,-0.228l0.145,-0.186c0.22,-0.275 0.441,-0.523 0.668,-0.751c0.834,-0.84 1.819,-1.474 2.921,-1.901c0.131,-0.055 0.283,-0.083 0.448,-0.083c0.372,0 1.206,0.193 1.419,0.772c0.379,1.047 0.855,2.411 1.199,3.713c0.097,0.365 0,1.247 -0.51,1.571l-1.219,0.772c0.014,0.013 0.007,0.199 0.165,0.42c0.469,0.648 1.02,1.288 1.626,1.901c0.613,0.607 1.247,1.151 1.895,1.613c0.124,0.096 0.262,0.144 0.379,0.144l0.42,-0.585l0.386,-0.613c0.337,-0.524 1.185,-0.538 1.281,-0.538c0.097,0 0.186,0.007 0.269,0.028c1.598,0.358 2.556,0.668 3.782,1.219c0.545,0.248 0.889,1.233 0.641,1.854c-0.42,1.102 -1.061,2.08 -1.895,2.914c-0.234,0.234 -0.489,0.461 -0.757,0.675l-0.18,0.138l-0.461,0.007Zm-11.251,-12.595c0.014,2.66 1.302,5.519 3.472,7.696l0.069,0.069c2.177,2.177 4.982,3.445 7.675,3.452c0.166,-0.131 0.317,-0.276 0.462,-0.414c0.696,-0.695 1.226,-1.522 1.585,-2.445c-0.007,0 -0.035,-0.09 -0.062,-0.152c-1.068,-0.475 -1.943,-0.751 -3.383,-1.075c-0.035,0.007 -0.11,0.021 -0.166,0.035l-0.689,1.095c-0.427,0.696 -1.57,0.806 -2.39,0.207c-0.696,-0.503 -1.392,-1.096 -2.053,-1.75c-0.669,-0.675 -1.254,-1.364 -1.771,-2.067c-0.338,-0.462 -0.475,-1.013 -0.379,-1.509c0.076,-0.379 0.289,-0.696 0.599,-0.889l1.089,-0.689c0.014,-0.069 0.028,-0.151 0.028,-0.193c-0.304,-1.129 -0.731,-2.37 -1.089,-3.362c-0.055,-0.02 -0.131,-0.041 -0.186,-0.041c-0.875,0.344 -1.695,0.882 -2.398,1.578c-0.137,0.137 -0.275,0.289 -0.413,0.454" style="fill:#c4d56f;"/></svg>