<svg xmlns="http://www.w3.org/2000/svg" width="26.645" height="21.003" viewBox="0 0 26.645 21.003"><g transform="translate(-1535 -299.077)"><path d="M23.08-5.95H9.64a1,1,0,0,1-.96-.73L6.12-15.97a1,1,0,0,1,.17-.87.985.985,0,0,1,.79-.39H25.64a.99.99,0,0,1,.8.39,1,1,0,0,1,.17.87L24.05-6.68a1.008,1.008,0,0,1-.97.73m-12.67-2H22.32l2.01-7.28H8.4Z" transform="translate(1535 320.08)" fill="#fff" fill-rule="evenodd"/><path d="M9.64-5.95a.993.993,0,0,1-.96-.73L5.34-18.86,2.24-19a1,1,0,0,1-.96-1.04A.973.973,0,0,1,2.32-21l3.84.17a1,1,0,0,1,.92.73L10.61-7.21a1.011,1.011,0,0,1-.7,1.23,1.241,1.241,0,0,1-.27.03" transform="translate(1535 320.08)" fill="#fff"/><path d="M12.03,0A2.748,2.748,0,0,1,9.28-2.75,2.748,2.748,0,0,1,12.03-5.5a2.748,2.748,0,0,1,2.75,2.75A2.748,2.748,0,0,1,12.03,0m0-3.5a.755.755,0,0,0-.75.75.755.755,0,0,0,.75.75.755.755,0,0,0,.75-.75.755.755,0,0,0-.75-.75" transform="translate(1535 320.08)" fill="#fff" fill-rule="evenodd"/><path d="M20.37,0a2.748,2.748,0,0,1-2.75-2.75A2.748,2.748,0,0,1,20.37-5.5a2.755,2.755,0,0,1,2.75,2.75A2.755,2.755,0,0,1,20.37,0m0-3.5a.749.749,0,0,0-.75.75.749.749,0,0,0,.75.75.755.755,0,0,0,.75-.75.755.755,0,0,0-.75-.75" transform="translate(1535 320.08)" fill="#fff" fill-rule="evenodd"/><path d="M15.76-9.16H4.18a1.014,1.014,0,0,1-1.01-1.01,1.007,1.007,0,0,1,1.01-1.01H15.76a1.007,1.007,0,0,1,1.01,1.01,1.014,1.014,0,0,1-1.01,1.01" transform="translate(1535 320.08)" fill="#fff"/><path d="M17.59-12.31H1.01A1.007,1.007,0,0,1,0-13.32a1.007,1.007,0,0,1,1.01-1.01H17.59a1.007,1.007,0,0,1,1.01,1.01,1.007,1.007,0,0,1-1.01,1.01" transform="translate(1535 320.08)" fill="#fff"/></g></svg>