<svg xmlns="http://www.w3.org/2000/svg" width="24" height="24" viewBox="0 0 24 24"><path d="M1029-278.652c3.2,0,3.58.01,4.85.07a6.672,6.672,0,0,1,2.23.42,3.608,3.608,0,0,1,1.38.89,3.608,3.608,0,0,1,.89,1.38,6.673,6.673,0,0,1,.42,2.23c.06,1.27.07,1.65.07,4.85s-.01,3.58-.07,4.85a6.673,6.673,0,0,1-.42,2.23,3.608,3.608,0,0,1-.89,1.38,3.608,3.608,0,0,1-1.38.89,6.672,6.672,0,0,1-2.23.42c-1.27.06-1.65.07-4.85.07s-3.58-.01-4.85-.07a6.672,6.672,0,0,1-2.23-.42,3.609,3.609,0,0,1-1.38-.89,3.609,3.609,0,0,1-.89-1.38,6.671,6.671,0,0,1-.42-2.23c-.06-1.27-.07-1.65-.07-4.85s.01-3.58.07-4.85a6.671,6.671,0,0,1,.42-2.23,3.609,3.609,0,0,1,.89-1.38,3.609,3.609,0,0,1,1.38-.89,6.672,6.672,0,0,1,2.23-.42c1.27-.06,1.65-.07,4.85-.07m0-2.16c-3.26,0-3.67.01-4.95.07a8.763,8.763,0,0,0-2.91.56,6.044,6.044,0,0,0-2.13,1.38,6.044,6.044,0,0,0-1.38,2.13,8.763,8.763,0,0,0-.56,2.91c-.06,1.28-.07,1.69-.07,4.95s.01,3.67.07,4.95a8.763,8.763,0,0,0,.56,2.91,6.044,6.044,0,0,0,1.38,2.13,6.044,6.044,0,0,0,2.13,1.38,8.763,8.763,0,0,0,2.91.56c1.28.06,1.69.07,4.95.07s3.67-.01,4.95-.07a8.763,8.763,0,0,0,2.91-.56,6.045,6.045,0,0,0,2.13-1.38,6.043,6.043,0,0,0,1.38-2.13,8.763,8.763,0,0,0,.56-2.91c.06-1.28.07-1.69.07-4.95s-.01-3.67-.07-4.95a8.762,8.762,0,0,0-.56-2.91,6.043,6.043,0,0,0-1.38-2.13,6.044,6.044,0,0,0-2.13-1.38,8.763,8.763,0,0,0-2.91-.56c-1.28-.06-1.69-.07-4.95-.07m7.85,5.59a1.447,1.447,0,0,0-1.44-1.44,1.44,1.44,0,0,0-1.44,1.44,1.434,1.434,0,0,0,1.44,1.44,1.44,1.44,0,0,0,1.44-1.44m-7.85.25a6.163,6.163,0,0,0-6.16,6.16,6.163,6.163,0,0,0,6.16,6.16,6.163,6.163,0,0,0,6.16-6.16,6.163,6.163,0,0,0-6.16-6.16m0,10.16a4,4,0,0,1-4-4,4,4,0,0,1,4-4,4,4,0,0,1,4,4,4,4,0,0,1-4,4" transform="translate(-1017 280.812)" fill="#caa68c" fill-rule="evenodd"/></svg>