<svg xmlns="http://www.w3.org/2000/svg" width="22.843" height="23.23" viewBox="0 0 22.843 23.23">
  <g id="Grupo_3" data-name="Grupo 3" transform="translate(-1154 -17.23)">
    <g id="Grupo_2" data-name="Grupo 2" transform="translate(1154 40.46)">
      <path id="Caminho_1" data-name="Caminho 1" d="M9.96-3.3A9.974,9.974,0,0,1,0-13.26a9.976,9.976,0,0,1,9.96-9.97,9.978,9.978,0,0,1,9.97,9.97A9.976,9.976,0,0,1,9.96-3.3m0-17.93A7.97,7.97,0,0,0,2-13.26,7.968,7.968,0,0,0,9.96-5.3a7.97,7.97,0,0,0,7.97-7.96,7.972,7.972,0,0,0-7.97-7.97" fill="#caa68c" fill-rule="evenodd"/>
      <path id="Caminho_2" data-name="Caminho 2" d="M21.84,0a1.042,1.042,0,0,1-.71-.29L15.57-5.86a1.008,1.008,0,0,1,0-1.42,1,1,0,0,1,1.41,0l5.57,5.57a1.008,1.008,0,0,1,0,1.42,1.024,1.024,0,0,1-.71.29" fill="#caa68c"/>
    </g>
  </g>
</svg>
