<svg xmlns="http://www.w3.org/2000/svg" width="61.553" height="93.276" viewBox="0 0 61.553 93.276">
  <g id="Grupo_14" data-name="Grupo 14" transform="translate(0 300.688)">
    <path id="Caminho_1" data-name="Caminho 1" d="M15.523-207.411H13.577l5.9-12.073L12.229-233.41h2.153l6.139,11.773,5.746-11.773h1.984ZM.043-219.259a10.68,10.68,0,0,0,2.583,1.3,8.174,8.174,0,0,0,2.583.421,4,4,0,0,0,2.62-.786,2.639,2.639,0,0,0,.955-2.152q0-2-3.481-3.276-.9-.337-1.4-.524a6.72,6.72,0,0,1-2.864-1.937,4.361,4.361,0,0,1-.955-2.817,4.334,4.334,0,0,1,1.525-3.425,5.809,5.809,0,0,1,3.959-1.329,7.8,7.8,0,0,1,2.274.356,11.01,11.01,0,0,1,2.424,1.1v1.984A12.119,12.119,0,0,0,7.755-231.6a6.981,6.981,0,0,0-2.321-.421,3.8,3.8,0,0,0-2.527.833,2.652,2.652,0,0,0-.992,2.124,2.428,2.428,0,0,0,.908,1.919A11.284,11.284,0,0,0,6.2-225.511a8.878,8.878,0,0,1,3.594,1.993,4.066,4.066,0,0,1,.973,2.836,4.538,4.538,0,0,1-1.525,3.622,6.182,6.182,0,0,1-4.183,1.32,8.765,8.765,0,0,1-2.574-.374,10.133,10.133,0,0,1-2.443-1.142Zm61.471,2.452a10.079,10.079,0,0,1-2.143.777,9.673,9.673,0,0,1-2.218.253A8.943,8.943,0,0,1,50.6-218.3a8.7,8.7,0,0,1-2.564-6.476,8.62,8.62,0,0,1,2.639-6.42,9.089,9.089,0,0,1,6.626-2.583,10.137,10.137,0,0,1,1.937.187,10.521,10.521,0,0,1,1.937.58v2.152a8.156,8.156,0,0,0-2-.852,8.2,8.2,0,0,0-2.134-.271,6.516,6.516,0,0,0-4.895,2.106,7.16,7.16,0,0,0-2.012,5.138,7.1,7.1,0,0,0,2,5.129,6.549,6.549,0,0,0,4.9,2.078,7.2,7.2,0,0,0,2.2-.356,10.461,10.461,0,0,0,2.274-1.067Zm-29.088.693H30.517V-233.41h1.909v2.77a8.553,8.553,0,0,1,2.742-2.312,7.05,7.05,0,0,1,3.248-.758,5.672,5.672,0,0,1,4.529,1.834,7.73,7.73,0,0,1,1.591,5.222v10.538H42.627v-9.621a8.1,8.1,0,0,0-1.1-4.67,3.781,3.781,0,0,0-3.3-1.544,5.95,5.95,0,0,0-3.247.917,8.161,8.161,0,0,0-2.555,2.733ZM54.558-271.39l0-.011c-.039-.217-.074-.434-.12-.649a10.5,10.5,0,0,0-1.973-4.5,7.372,7.372,0,0,0-2.3-1.946,7.623,7.623,0,0,0-3.671-.782,9.54,9.54,0,0,0-7.059,3.013,8.7,8.7,0,0,0-2.066,5.922,7.556,7.556,0,0,0,2.27,5.393,7.143,7.143,0,0,0,6.265,1.426c3.312-.606,6.9-.858,10.076.486a8.852,8.852,0,0,1,4.813,4.892,12.464,12.464,0,0,1,.585,6.524,11.1,11.1,0,0,1-3.69,7.118,10.889,10.889,0,0,1-7.991,2.1,14.163,14.163,0,0,1-7.252-2.91c-2.907-2.206-5.393-4.891-8.092-7.332-2.628-2.377-5.562-4.612-9.073-5.442a8.568,8.568,0,0,0-7.517,1.9,12.659,12.659,0,0,0-4.433,6.757,5.511,5.511,0,0,0,2.151,6.16c2.105,1.373,4.691,1.734,6.676.23,3.3-2.5,4.34-9.131,1.76-12.322a1.031,1.031,0,0,1,0-1.426,1.015,1.015,0,0,1,1.427,0,8.481,8.481,0,0,1,1.637,3.32c1.18,4.76-.729,11.951-6.118,13.251a8.53,8.53,0,0,1-8.143-2.841,8.222,8.222,0,0,1-1.006-8.027,15.15,15.15,0,0,1,5.524-7.216,10.39,10.39,0,0,1,8.846-1.669c7.617,1.96,11.977,9.108,18.087,13.431a11.774,11.774,0,0,0,7.09,2.187,7.761,7.761,0,0,0,6.95-3.908,11.7,11.7,0,0,0,1.3-6.625,7.556,7.556,0,0,0-2.638-5.332c-2.2-1.772-5.5-1.952-8.3-1.676a31.412,31.412,0,0,1-5.1.552,8.727,8.727,0,0,1-3.739-1.062c-4.469-2.513-5.366-8.557-3.31-12.913a10.347,10.347,0,0,1,5.863-5.225,11.128,11.128,0,0,1,9.1.417c3.032,1.724,4.829,5.321,5.184,8.715a1.017,1.017,0,0,1-1.009,1.009A1.034,1.034,0,0,1,54.558-271.39ZM21.375-248.06a2.253,2.253,0,0,1-2.253,2.253,2.253,2.253,0,0,1-2.253-2.253,2.252,2.252,0,0,1,2.253-2.252A2.252,2.252,0,0,1,21.375-248.06Zm-6.36-17.188c-1.281,1.995-4.139,3.009-6.568,3.1a8.141,8.141,0,0,1-3.72-.629,4.476,4.476,0,0,1-2.358-2.347,6.311,6.311,0,0,1,.012-4.251,4.755,4.755,0,0,1,2.058-2.549,6.411,6.411,0,0,1,3.429-.83,9.782,9.782,0,0,1,3.839.861,10.54,10.54,0,0,1,6.174,8.051,1.014,1.014,0,0,0,1.24.7,1.034,1.034,0,0,0,.7-1.241,12.372,12.372,0,0,0-6.293-8.854c-2.852-1.556-6.466-2.146-9.5-.753C.855-272.521-.493-268.827.161-265.51c.668,3.4,3.855,5.135,7.077,5.366,3.464.249,7.568-1.045,9.521-4.085C17.462-265.325,15.716-266.338,15.015-265.248Zm-5.433-2.194a2.252,2.252,0,0,1-2.253,2.252,2.252,2.252,0,0,1-2.253-2.252A2.253,2.253,0,0,1,7.329-269.7,2.253,2.253,0,0,1,9.582-267.442ZM54.555-271.4c.056.314-.025-.249,0-.007,0,.006,0,.012,0,.018Zm-36.383-7.44c-2.331.313-4.609-1.012-6.173-2.661-1.454-1.535-2.654-3.927-1.568-5.97a5.18,5.18,0,0,1,5.941-2.565c2.158.728,3.605,2.966,4.227,5.066a9.519,9.519,0,0,1-1.807,8.878c-.835.985.585,2.419,1.426,1.427a11.6,11.6,0,0,0,2.568-9.861c-.562-2.841-2.295-5.8-4.982-7.086a7.007,7.007,0,0,0-8.385,2.064c-2.036,2.48-1.657,5.751.149,8.25,1.879,2.6,5.246,4.928,8.605,4.478a1.043,1.043,0,0,0,1.009-1.009C19.181-278.322,18.716-278.915,18.172-278.842Zm-1.035-6.547a2.085,2.085,0,0,1-2.085,2.085,2.085,2.085,0,0,1-2.085-2.085,2.085,2.085,0,0,1,2.085-2.085A2.085,2.085,0,0,1,17.138-285.389Zm29.5,1.425a7.193,7.193,0,0,0,3.5-5.022c.628-3.587-3.048-4.663-4.752-3.888a3.133,3.133,0,0,0-1.4,4.543C45.148-286.166,46.821-284.771,46.64-283.964Zm-13.3-5.207a6.329,6.329,0,0,1-5.091-2.464c-1.184-1.353-2.023-3.375-.994-5.032a4.22,4.22,0,0,1,5.021-1.739A6.4,6.4,0,0,1,35.5-294.02a7.937,7.937,0,0,1-1.812,7.272c-.872.96.551,2.391,1.427,1.427a10.03,10.03,0,0,0,2.5-8.409A8.7,8.7,0,0,0,33.57-300a6.107,6.107,0,0,0-7.348,1.4c-1.933,2.066-1.75,4.978-.27,7.246,1.542,2.363,4.44,4.485,7.392,4.2C34.623-287.276,34.637-289.3,33.343-289.17Zm-.626-5.462a1.759,1.759,0,0,1-1.759,1.759,1.759,1.759,0,0,1-1.758-1.759,1.758,1.758,0,0,1,1.758-1.759A1.759,1.759,0,0,1,32.717-294.633Z" transform="translate(0 0)" fill="#caa68c"/>
  </g>
</svg>
