<svg xmlns="http://www.w3.org/2000/svg" width="32.818" height="19.031" viewBox="0 0 32.818 19.031">
  <g id="shipping-truck" transform="translate(0 -9.737)">
    <path id="Caminho_13" data-name="Caminho 13" d="M31.991,22.119v-.351l-2.956-9.709H22.494V9.737H6.77v6.009H3.422L2.006,17.634H6.77V19.05H1.416L0,20.938H6.77v1.181H6.018V25.3H6.77v.473h.511a3.583,3.583,0,0,0,7.068,0h8.058a3.583,3.583,0,0,0,7.066,0H31.99V25.3h.828V22.119h-.827ZM10.815,27.08a1.9,1.9,0,1,1,1.9-1.9A1.9,1.9,0,0,1,10.815,27.08Zm15.125,0a1.9,1.9,0,1,1,1.9-1.9A1.9,1.9,0,0,1,25.94,27.08Zm-1.759-9.032v-4.3h3.6l1.31,4.3Z" fill="#fff"/>
  </g>
</svg>
