<svg xmlns="http://www.w3.org/2000/svg" width="23.552" height="23.56" viewBox="0 0 23.552 23.56">
  <g id="Grupo_4" data-name="Grupo 4" transform="translate(-1781.44 -112.04)">
    <path id="Caminho_9" data-name="Caminho 9" d="M258.22-184.48a11.727,11.727,0,0,1-8.33-3.45,11.727,11.727,0,0,1-3.45-8.33,11.709,11.709,0,0,1,3.45-8.33,11.727,11.727,0,0,1,8.33-3.45,11.727,11.727,0,0,1,8.33,3.45,11.787,11.787,0,0,1,0,16.65,11.712,11.712,0,0,1-8.33,3.46m0-21.56a9.72,9.72,0,0,0-6.91,2.86,9.729,9.729,0,0,0-2.87,6.92,9.72,9.72,0,0,0,2.86,6.91,9.729,9.729,0,0,0,6.92,2.87,9.689,9.689,0,0,0,6.91-2.87,9.8,9.8,0,0,0,0-13.83,9.72,9.72,0,0,0-6.91-2.86" transform="translate(1535 320.08)" fill="#9d9d9d" fill-rule="evenodd"/>
    <path id="Caminho_10" data-name="Caminho 10" d="M258.22-184.48a11.727,11.727,0,0,1-8.33-3.45c-.29-.3-.56-.59-.81-.9a1.016,1.016,0,0,1-.1-1.13,2.683,2.683,0,0,1,1.07-1.07,18.563,18.563,0,0,1,4.87-1.55,2.319,2.319,0,0,1-.8-1.44l-.04-.4a1.361,1.361,0,0,1-.74-1.07l-.2-1.95a1.374,1.374,0,0,1,.45-1.16l-.05-.5a3.805,3.805,0,0,1,1.04-3.4,5.22,5.22,0,0,1,3.64-1.3,5.247,5.247,0,0,1,3.67,1.33,3.8,3.8,0,0,1,1.01,3.36l-.05.51a1.367,1.367,0,0,1,.44,1.16l-.2,1.95a1.328,1.328,0,0,1-.73,1.07l-.05.42a2.261,2.261,0,0,1-.79,1.42,18.637,18.637,0,0,1,4.83,1.53,2.71,2.71,0,0,1,1.1,1.1.982.982,0,0,1-.09,1.12,9.706,9.706,0,0,1-.81.89,11.712,11.712,0,0,1-8.33,3.46m-6.96-4.91.05.05a9.721,9.721,0,0,0,6.91,2.86,9.689,9.689,0,0,0,6.91-2.87l.05-.04a16.972,16.972,0,0,0-4.94-1.36,1,1,0,0,1-.67-.38,1.072,1.072,0,0,1-.2-.75l.2-1.37a1.046,1.046,0,0,1,.45-.7.845.845,0,0,0,.31-.31l.14-1.24a1.006,1.006,0,0,1,.69-.83l.01-.01.07-.71-.05-.03a1,1,0,0,1-.43-.94l.15-1.28a1.935,1.935,0,0,0-.38-1.71,3.36,3.36,0,0,0-2.31-.79,3.315,3.315,0,0,0-2.27.76,1.929,1.929,0,0,0-.42,1.75l.14,1.27a.969.969,0,0,1-.43.94l-.05.03.08.71.01.01a.98.98,0,0,1,.68.83l.15,1.28a1.382,1.382,0,0,0,.31.27,1.012,1.012,0,0,1,.45.7l.19,1.36a1.031,1.031,0,0,1-.19.76,1.021,1.021,0,0,1-.68.38,16.856,16.856,0,0,0-4.93,1.36" transform="translate(1535 320.08)" fill="#9d9d9d" fill-rule="evenodd"/>
  </g>
</svg>
