<svg xmlns="http://www.w3.org/2000/svg" width="24" height="24" viewBox="0 0 24 24"><path d="M24-60.31A11.734,11.734,0,0,1,12.22-48.62a11.8,11.8,0,0,1-5.7-1.453L0-48l2.127-6.273A11.555,11.555,0,0,1,.437-60.31,11.735,11.735,0,0,1,12.22-72,11.734,11.734,0,0,1,24-60.31M12.22-70.137A9.877,9.877,0,0,0,2.313-60.31,9.723,9.723,0,0,0,4.2-54.547L2.963-50.9l3.807-1.21a9.9,9.9,0,0,0,5.45,1.627,9.879,9.879,0,0,0,9.9-9.83,9.876,9.876,0,0,0-9.9-9.827m5.947,12.52c-.07-.12-.263-.19-.553-.333s-1.71-.837-1.973-.933-.457-.143-.65.143-.747.933-.913,1.123-.337.217-.627.073a7.89,7.89,0,0,1-2.323-1.423A8.757,8.757,0,0,1,9.52-60.95c-.167-.287-.017-.443.127-.583s.29-.337.433-.5a1.863,1.863,0,0,0,.29-.48.525.525,0,0,0-.023-.5c-.073-.143-.65-1.553-.893-2.127s-.48-.48-.65-.48-.36-.023-.553-.023a1.075,1.075,0,0,0-.77.36A3.208,3.208,0,0,0,6.47-62.9a5.565,5.565,0,0,0,1.18,2.963,11.818,11.818,0,0,0,4.933,4.327c2.937,1.147,2.937.763,3.467.713A2.92,2.92,0,0,0,18-56.253a2.368,2.368,0,0,0,.167-1.363" transform="translate(0 72)" fill="#5a762d" fill-rule="evenodd"/></svg>