<svg xmlns="http://www.w3.org/2000/svg" width="24" height="16.728" viewBox="0 0 24 16.728"><g transform="translate(0 16.728)"><path d="M23.585-14.037A3.033,3.033,0,0,0,20.991-16.4,80.655,80.655,0,0,0,12-16.728a80.668,80.668,0,0,0-8.988.332A3.032,3.032,0,0,0,.423-14.037,25.7,25.7,0,0,0,0-8.364,25.694,25.694,0,0,0,.418-2.691,3.031,3.031,0,0,0,3.012-.333,80.585,80.585,0,0,0,12,0a80.572,80.572,0,0,0,8.987-.333A3.033,3.033,0,0,0,23.58-2.691,25.685,25.685,0,0,0,24-8.364,25.7,25.7,0,0,0,23.585-14.037ZM8.9-4.639v-7.937L16.533-8.6Z" fill="#caa68c"/></g></svg>