<?xml version="1.0" encoding="UTF-8" standalone="no"?><!DOCTYPE svg PUBLIC "-//W3C//DTD SVG 1.1//EN" "http://www.w3.org/Graphics/SVG/1.1/DTD/svg11.dtd"><svg width="100%" height="100%" viewBox="0 0 174 131" version="1.1" xmlns="http://www.w3.org/2000/svg" xmlns:xlink="http://www.w3.org/1999/xlink" xml:space="preserve" xmlns:serif="http://www.serif.com/" style="fill-rule:evenodd;clip-rule:evenodd;stroke-linejoin:round;stroke-miterlimit:2;"><g><g><path d="M5.053,130.686l-1.836,0l0,-7.375c0,-0.88 0.021,-1.578 0.063,-2.094c-0.12,0.125 -0.267,0.263 -0.442,0.414c-0.174,0.151 -0.759,0.631 -1.754,1.438l-0.922,-1.164l3.36,-2.641l1.531,0l0,11.422Z" style="fill:#ad9c7f;fill-rule:nonzero;"/><path d="M14.983,124.577l1.297,0c0.87,0 1.5,-0.162 1.891,-0.485c0.391,-0.323 0.586,-0.802 0.586,-1.437c0,-0.646 -0.211,-1.11 -0.633,-1.391c-0.422,-0.281 -1.057,-0.422 -1.906,-0.422l-1.235,0l0,3.735Zm0,1.547l0,4.562l-1.867,0l0,-11.422l3.227,0c1.474,0 2.565,0.276 3.273,0.828c0.709,0.552 1.063,1.386 1.063,2.5c0,1.422 -0.74,2.435 -2.219,3.039l3.227,5.055l-2.125,0l-2.735,-4.562l-1.844,0Z" style="fill:#ad9c7f;fill-rule:nonzero;"/><path d="M26.601,130.842c-1.344,0 -2.395,-0.392 -3.152,-1.175c-0.758,-0.784 -1.137,-1.864 -1.137,-3.239c0,-1.411 0.351,-2.521 1.055,-3.328c0.703,-0.807 1.669,-1.211 2.898,-1.211c1.141,0 2.042,0.347 2.703,1.039c0.662,0.693 0.992,1.646 0.992,2.86l0,0.992l-5.758,0c0.026,0.838 0.253,1.483 0.68,1.933c0.427,0.451 1.029,0.676 1.805,0.676c0.51,0 0.985,-0.048 1.426,-0.144c0.44,-0.097 0.912,-0.257 1.418,-0.481l0,1.492c-0.448,0.214 -0.901,0.365 -1.36,0.453c-0.458,0.089 -0.982,0.133 -1.57,0.133Zm-0.336,-7.562c-0.583,0 -1.051,0.185 -1.402,0.554c-0.352,0.37 -0.562,0.909 -0.629,1.618l3.922,0c-0.011,-0.714 -0.183,-1.254 -0.516,-1.621c-0.333,-0.368 -0.792,-0.551 -1.375,-0.551Z" style="fill:#ad9c7f;fill-rule:nonzero;"/><path d="M33.695,130.686l-3.281,-8.641l1.937,0l1.758,5.024c0.302,0.844 0.484,1.526 0.547,2.047l0.062,0c0.047,-0.375 0.23,-1.058 0.547,-2.047l1.758,-5.024l1.953,0l-3.297,8.641l-1.984,0Z" style="fill:#ad9c7f;fill-rule:nonzero;"/><path d="M41.805,130.686l-1.836,0l0,-8.641l1.836,0l0,8.641Zm-1.946,-10.93c0,-0.328 0.09,-0.58 0.27,-0.757c0.18,-0.178 0.436,-0.266 0.769,-0.266c0.323,0 0.575,0.088 0.754,0.266c0.18,0.177 0.27,0.429 0.27,0.757c0,0.313 -0.09,0.559 -0.27,0.739c-0.179,0.179 -0.431,0.269 -0.754,0.269c-0.333,0 -0.589,-0.09 -0.769,-0.269c-0.18,-0.18 -0.27,-0.426 -0.27,-0.739Z" style="fill:#ad9c7f;fill-rule:nonzero;"/><path d="M49.914,128.225c0,0.844 -0.307,1.491 -0.922,1.942c-0.614,0.45 -1.494,0.675 -2.64,0.675c-1.151,0 -2.076,-0.174 -2.774,-0.523l0,-1.586c1.016,0.469 1.961,0.703 2.836,0.703c1.131,0 1.696,-0.341 1.696,-1.023c0,-0.219 -0.063,-0.401 -0.188,-0.547c-0.125,-0.146 -0.331,-0.297 -0.617,-0.453c-0.287,-0.157 -0.685,-0.334 -1.195,-0.532c-0.995,-0.385 -1.668,-0.77 -2.02,-1.156c-0.351,-0.385 -0.527,-0.885 -0.527,-1.5c0,-0.739 0.298,-1.314 0.894,-1.723c0.597,-0.408 1.408,-0.613 2.434,-0.613c1.016,0 1.976,0.206 2.883,0.617l-0.594,1.383c-0.932,-0.385 -1.716,-0.578 -2.352,-0.578c-0.968,0 -1.453,0.276 -1.453,0.828c0,0.271 0.127,0.5 0.379,0.688c0.253,0.187 0.804,0.445 1.653,0.773c0.713,0.276 1.231,0.529 1.554,0.758c0.323,0.229 0.563,0.493 0.719,0.793c0.156,0.299 0.234,0.657 0.234,1.074Z" style="fill:#ad9c7f;fill-rule:nonzero;"/><path d="M54.797,129.358c0.448,0 0.896,-0.07 1.344,-0.211l0,1.383c-0.203,0.088 -0.465,0.163 -0.785,0.222c-0.32,0.06 -0.652,0.09 -0.996,0.09c-1.74,0 -2.609,-0.916 -2.609,-2.75l0,-4.656l-1.18,0l0,-0.812l1.266,-0.672l0.625,-1.828l1.132,0l0,1.921l2.461,0l0,1.391l-2.461,0l0,4.625c0,0.443 0.111,0.77 0.332,0.981c0.222,0.21 0.512,0.316 0.871,0.316Z" style="fill:#ad9c7f;fill-rule:nonzero;"/><path d="M62.954,130.686l-0.367,-1.203l-0.063,0c-0.416,0.526 -0.836,0.884 -1.257,1.074c-0.422,0.19 -0.964,0.285 -1.625,0.285c-0.849,0 -1.512,-0.229 -1.989,-0.687c-0.476,-0.459 -0.715,-1.107 -0.715,-1.946c0,-0.89 0.331,-1.562 0.993,-2.015c0.661,-0.453 1.669,-0.701 3.023,-0.742l1.492,-0.047l0,-0.461c0,-0.552 -0.129,-0.965 -0.387,-1.238c-0.257,-0.274 -0.657,-0.411 -1.199,-0.411c-0.442,0 -0.867,0.066 -1.273,0.196c-0.406,0.13 -0.797,0.284 -1.172,0.461l-0.594,-1.313c0.469,-0.245 0.982,-0.431 1.539,-0.558c0.558,-0.128 1.084,-0.192 1.578,-0.192c1.099,0 1.929,0.24 2.489,0.719c0.56,0.479 0.84,1.232 0.84,2.258l0,5.82l-1.313,0Zm-2.734,-1.25c0.666,0 1.201,-0.186 1.605,-0.559c0.404,-0.372 0.606,-0.894 0.606,-1.566l0,-0.75l-1.11,0.047c-0.864,0.031 -1.493,0.176 -1.887,0.434c-0.393,0.257 -0.589,0.652 -0.589,1.183c0,0.386 0.114,0.684 0.343,0.895c0.23,0.211 0.573,0.316 1.032,0.316Z" style="fill:#ad9c7f;fill-rule:nonzero;"/><path d="M74.486,130.686l-1.867,0l0,-9.82l-3.36,0l0,-1.602l8.586,0l0,1.602l-3.359,0l0,9.82Z" style="fill:#ad9c7f;fill-rule:nonzero;"/><path d="M86.682,130.686l-1.844,0l0,-5.312c0,-0.667 -0.134,-1.165 -0.403,-1.493c-0.268,-0.328 -0.694,-0.492 -1.277,-0.492c-0.771,0 -1.337,0.231 -1.699,0.692c-0.362,0.461 -0.543,1.233 -0.543,2.316l0,4.289l-1.836,0l0,-12.156l1.836,0l0,3.086c0,0.495 -0.031,1.023 -0.094,1.586l0.117,0c0.25,-0.417 0.598,-0.74 1.043,-0.969c0.446,-0.229 0.965,-0.344 1.559,-0.344c2.094,0 3.141,1.055 3.141,3.164l0,5.633Z" style="fill:#ad9c7f;fill-rule:nonzero;"/><path d="M92.69,130.842c-1.344,0 -2.395,-0.392 -3.153,-1.175c-0.758,-0.784 -1.136,-1.864 -1.136,-3.239c0,-1.411 0.351,-2.521 1.054,-3.328c0.703,-0.807 1.67,-1.211 2.899,-1.211c1.14,0 2.041,0.347 2.703,1.039c0.661,0.693 0.992,1.646 0.992,2.86l0,0.992l-5.758,0c0.026,0.838 0.253,1.483 0.68,1.933c0.427,0.451 1.029,0.676 1.805,0.676c0.51,0 0.985,-0.048 1.425,-0.144c0.44,-0.097 0.913,-0.257 1.418,-0.481l0,1.492c-0.448,0.214 -0.901,0.365 -1.359,0.453c-0.458,0.089 -0.982,0.133 -1.57,0.133Zm-0.336,-7.562c-0.584,0 -1.051,0.185 -1.403,0.554c-0.351,0.37 -0.561,0.909 -0.629,1.618l3.922,0c-0.01,-0.714 -0.182,-1.254 -0.515,-1.621c-0.334,-0.368 -0.792,-0.551 -1.375,-0.551Z" style="fill:#ad9c7f;fill-rule:nonzero;"/><path d="M108.932,130.686l-1.14,-3.172l-4.367,0l-1.118,3.172l-1.968,0l4.273,-11.469l2.031,0l4.274,11.469l-1.985,0Zm-1.632,-4.781l-1.071,-3.11c-0.078,-0.208 -0.186,-0.536 -0.324,-0.984c-0.138,-0.448 -0.233,-0.776 -0.285,-0.984c-0.141,0.64 -0.346,1.341 -0.617,2.101l-1.031,2.977l3.328,0Z" style="fill:#ad9c7f;fill-rule:nonzero;"/><rect x="111.909" y="118.53" width="1.836" height="12.156" style="fill:#ad9c7f;fill-rule:nonzero;"/><path d="M119.535,130.842c-1.308,0 -2.301,-0.381 -2.981,-1.144c-0.68,-0.763 -1.019,-1.858 -1.019,-3.285c0,-1.454 0.355,-2.571 1.066,-3.352c0.711,-0.781 1.738,-1.172 3.082,-1.172c0.912,0 1.732,0.169 2.461,0.508l-0.555,1.477c-0.776,-0.303 -1.416,-0.454 -1.922,-0.454c-1.494,0 -2.242,0.993 -2.242,2.977c0,0.969 0.186,1.697 0.559,2.184c0.372,0.487 0.918,0.73 1.637,0.73c0.817,0 1.591,-0.203 2.32,-0.609l0,1.601c-0.328,0.193 -0.679,0.331 -1.051,0.414c-0.372,0.084 -0.824,0.125 -1.355,0.125Z" style="fill:#ad9c7f;fill-rule:nonzero;"/><path d="M131.254,130.686l-1.844,0l0,-5.312c0,-0.667 -0.134,-1.165 -0.402,-1.493c-0.269,-0.328 -0.694,-0.492 -1.278,-0.492c-0.771,0 -1.337,0.231 -1.699,0.692c-0.362,0.461 -0.543,1.233 -0.543,2.316l0,4.289l-1.836,0l0,-12.156l1.836,0l0,3.086c0,0.495 -0.031,1.023 -0.094,1.586l0.118,0c0.25,-0.417 0.597,-0.74 1.042,-0.969c0.446,-0.229 0.965,-0.344 1.559,-0.344c2.094,0 3.141,1.055 3.141,3.164l0,5.633Z" style="fill:#ad9c7f;fill-rule:nonzero;"/><path d="M137.262,130.842c-1.344,0 -2.395,-0.392 -3.153,-1.175c-0.757,-0.784 -1.136,-1.864 -1.136,-3.239c0,-1.411 0.351,-2.521 1.054,-3.328c0.704,-0.807 1.67,-1.211 2.899,-1.211c1.141,0 2.042,0.347 2.703,1.039c0.661,0.693 0.992,1.646 0.992,2.86l0,0.992l-5.758,0c0.026,0.838 0.253,1.483 0.68,1.933c0.427,0.451 1.029,0.676 1.805,0.676c0.51,0 0.985,-0.048 1.426,-0.144c0.44,-0.097 0.912,-0.257 1.418,-0.481l0,1.492c-0.448,0.214 -0.902,0.365 -1.36,0.453c-0.458,0.089 -0.982,0.133 -1.57,0.133Zm-0.336,-7.562c-0.583,0 -1.051,0.185 -1.402,0.554c-0.352,0.37 -0.562,0.909 -0.629,1.618l3.922,0c-0.011,-0.714 -0.183,-1.254 -0.516,-1.621c-0.333,-0.368 -0.792,-0.551 -1.375,-0.551Z" style="fill:#ad9c7f;fill-rule:nonzero;"/><path d="M149.668,130.686l-1.843,0l0,-5.328c0,-0.662 -0.125,-1.155 -0.375,-1.481c-0.25,-0.325 -0.641,-0.488 -1.172,-0.488c-0.709,0 -1.228,0.231 -1.559,0.692c-0.331,0.461 -0.496,1.227 -0.496,2.3l0,4.305l-1.836,0l0,-8.641l1.438,0l0.257,1.133l0.094,0c0.24,-0.411 0.587,-0.729 1.043,-0.953c0.456,-0.224 0.957,-0.336 1.504,-0.336c1.328,0 2.208,0.453 2.641,1.36l0.125,0c0.255,-0.428 0.614,-0.761 1.078,-1c0.463,-0.24 0.995,-0.36 1.594,-0.36c1.031,0 1.782,0.261 2.253,0.781c0.472,0.521 0.708,1.316 0.708,2.383l0,5.633l-1.836,0l0,-5.328c0,-0.662 -0.127,-1.155 -0.379,-1.481c-0.253,-0.325 -0.645,-0.488 -1.176,-0.488c-0.714,0 -1.236,0.223 -1.567,0.668c-0.33,0.445 -0.496,1.129 -0.496,2.051l0,4.578Z" style="fill:#ad9c7f;fill-rule:nonzero;"/><path d="M159.2,130.686l-1.836,0l0,-8.641l1.836,0l0,8.641Zm-1.945,-10.93c0,-0.328 0.089,-0.58 0.269,-0.757c0.18,-0.178 0.436,-0.266 0.77,-0.266c0.323,0 0.574,0.088 0.754,0.266c0.179,0.177 0.269,0.429 0.269,0.757c0,0.313 -0.09,0.559 -0.269,0.739c-0.18,0.179 -0.431,0.269 -0.754,0.269c-0.334,0 -0.59,-0.09 -0.77,-0.269c-0.18,-0.18 -0.269,-0.426 -0.269,-0.739Z" style="fill:#ad9c7f;fill-rule:nonzero;"/><path d="M167.31,128.225c0,0.844 -0.308,1.491 -0.922,1.942c-0.615,0.45 -1.495,0.675 -2.641,0.675c-1.151,0 -2.075,-0.174 -2.773,-0.523l0,-1.586c1.015,0.469 1.961,0.703 2.836,0.703c1.13,0 1.695,-0.341 1.695,-1.023c0,-0.219 -0.063,-0.401 -0.188,-0.547c-0.125,-0.146 -0.33,-0.297 -0.617,-0.453c-0.286,-0.157 -0.685,-0.334 -1.195,-0.532c-0.995,-0.385 -1.668,-0.77 -2.02,-1.156c-0.351,-0.385 -0.527,-0.885 -0.527,-1.5c0,-0.739 0.298,-1.314 0.895,-1.723c0.596,-0.408 1.407,-0.613 2.433,-0.613c1.016,0 1.977,0.206 2.883,0.617l-0.594,1.383c-0.932,-0.385 -1.716,-0.578 -2.351,-0.578c-0.969,0 -1.453,0.276 -1.453,0.828c0,0.271 0.126,0.5 0.378,0.688c0.253,0.187 0.804,0.445 1.653,0.773c0.713,0.276 1.232,0.529 1.555,0.758c0.322,0.229 0.562,0.493 0.718,0.793c0.157,0.299 0.235,0.657 0.235,1.074Z" style="fill:#ad9c7f;fill-rule:nonzero;"/><path d="M172.193,129.358c0.448,0 0.896,-0.07 1.344,-0.211l0,1.383c-0.204,0.088 -0.465,0.163 -0.786,0.222c-0.32,0.06 -0.652,0.09 -0.996,0.09c-1.739,0 -2.609,-0.916 -2.609,-2.75l0,-4.656l-1.18,0l0,-0.812l1.266,-0.672l0.625,-1.828l1.133,0l0,1.921l2.461,0l0,1.391l-2.461,0l0,4.625c0,0.443 0.11,0.77 0.332,0.981c0.221,0.21 0.511,0.316 0.871,0.316Z" style="fill:#ad9c7f;fill-rule:nonzero;"/><g><rect x="45.468" y="0.318" width="66.086" height="90.418" style="fill:#ad9c7f;"/></g></g><path d="M58.998,54.834l-0.713,-1.982l-2.729,0l-0.699,1.982l-1.23,0l2.671,-7.168l1.269,0l2.671,7.168l-1.24,0Zm-1.02,-2.988l-0.669,-1.943c-0.049,-0.13 -0.117,-0.335 -0.203,-0.615c-0.086,-0.28 -0.146,-0.485 -0.178,-0.616c-0.088,0.401 -0.217,0.839 -0.386,1.314l-0.644,1.86l2.08,0Z" style="fill:#fff;fill-rule:nonzero;"/><rect x="60.859" y="47.237" width="1.147" height="7.598" style="fill:#fff;fill-rule:nonzero;"/><path d="M65.624,54.932c-0.817,0 -1.438,-0.238 -1.862,-0.715c-0.425,-0.477 -0.638,-1.162 -0.638,-2.053c0,-0.909 0.223,-1.607 0.667,-2.095c0.444,-0.488 1.086,-0.733 1.926,-0.733c0.57,0 1.083,0.106 1.538,0.318l-0.346,0.923c-0.485,-0.189 -0.886,-0.284 -1.202,-0.284c-0.934,0 -1.401,0.621 -1.401,1.861c0,0.605 0.116,1.06 0.349,1.365c0.233,0.304 0.574,0.456 1.023,0.456c0.511,0 0.995,-0.127 1.45,-0.381l0,1.001c-0.205,0.121 -0.424,0.207 -0.656,0.259c-0.233,0.052 -0.515,0.078 -0.848,0.078Z" style="fill:#fff;fill-rule:nonzero;"/><path d="M72.949,54.834l-1.152,0l0,-3.32c0,-0.417 -0.084,-0.727 -0.252,-0.932c-0.168,-0.206 -0.434,-0.308 -0.798,-0.308c-0.482,0 -0.836,0.144 -1.062,0.432c-0.227,0.288 -0.34,0.771 -0.34,1.448l0,2.68l-1.147,0l0,-7.597l1.147,0l0,1.929c0,0.309 -0.019,0.639 -0.058,0.991l0.073,0c0.156,-0.261 0.374,-0.463 0.652,-0.606c0.278,-0.143 0.603,-0.215 0.974,-0.215c1.309,0 1.963,0.66 1.963,1.978l0,3.52Z" style="fill:#fff;fill-rule:nonzero;"/><path d="M76.704,54.932c-0.84,0 -1.497,-0.245 -1.97,-0.735c-0.474,-0.49 -0.711,-1.164 -0.711,-2.024c0,-0.882 0.22,-1.575 0.659,-2.08c0.44,-0.504 1.044,-0.757 1.812,-0.757c0.713,0 1.276,0.217 1.689,0.65c0.414,0.433 0.621,1.028 0.621,1.787l0,0.62l-3.599,0c0.016,0.524 0.158,0.927 0.425,1.209c0.267,0.281 0.643,0.422 1.128,0.422c0.319,0 0.616,-0.03 0.891,-0.09c0.275,-0.061 0.57,-0.161 0.886,-0.301l0,0.933c-0.28,0.133 -0.563,0.228 -0.85,0.283c-0.286,0.055 -0.613,0.083 -0.981,0.083Zm-0.21,-4.726c-0.365,0 -0.657,0.115 -0.876,0.346c-0.22,0.231 -0.351,0.568 -0.394,1.011l2.452,0c-0.007,-0.446 -0.114,-0.784 -0.323,-1.013c-0.208,-0.23 -0.494,-0.344 -0.859,-0.344Z" style="fill:#fff;fill-rule:nonzero;"/><path d="M84.458,54.834l-1.152,0l0,-3.33c0,-0.413 -0.078,-0.721 -0.235,-0.925c-0.156,-0.203 -0.4,-0.305 -0.732,-0.305c-0.443,0 -0.767,0.144 -0.974,0.432c-0.207,0.288 -0.31,0.767 -0.31,1.438l0,2.69l-1.148,0l0,-5.4l0.899,0l0.161,0.708l0.058,0c0.15,-0.257 0.367,-0.456 0.652,-0.596c0.285,-0.14 0.598,-0.21 0.94,-0.21c0.83,0 1.38,0.284 1.651,0.85l0.078,0c0.159,-0.267 0.384,-0.475 0.674,-0.625c0.289,-0.15 0.621,-0.225 0.996,-0.225c0.644,0 1.114,0.163 1.408,0.489c0.295,0.325 0.442,0.822 0.442,1.489l0,3.52l-1.147,0l0,-3.33c0,-0.413 -0.079,-0.721 -0.237,-0.925c-0.158,-0.203 -0.403,-0.305 -0.735,-0.305c-0.446,0 -0.772,0.139 -0.979,0.417c-0.207,0.279 -0.31,0.706 -0.31,1.282l0,2.861Z" style="fill:#fff;fill-rule:nonzero;"/><path d="M90.415,54.834l-1.147,0l0,-5.4l1.147,0l0,5.4Zm-1.216,-6.831c0,-0.205 0.057,-0.363 0.169,-0.473c0.112,-0.111 0.273,-0.166 0.481,-0.166c0.202,0 0.359,0.055 0.471,0.166c0.112,0.11 0.169,0.268 0.169,0.473c0,0.196 -0.057,0.35 -0.169,0.462c-0.112,0.112 -0.269,0.168 -0.471,0.168c-0.208,0 -0.369,-0.056 -0.481,-0.168c-0.112,-0.112 -0.169,-0.266 -0.169,-0.462Z" style="fill:#fff;fill-rule:nonzero;"/><path d="M95.484,53.296c0,0.528 -0.192,0.932 -0.576,1.214c-0.384,0.281 -0.935,0.422 -1.651,0.422c-0.719,0 -1.297,-0.109 -1.733,-0.327l0,-0.991c0.635,0.293 1.225,0.439 1.772,0.439c0.707,0 1.06,-0.213 1.06,-0.639c0,-0.137 -0.039,-0.251 -0.117,-0.342c-0.078,-0.091 -0.207,-0.186 -0.386,-0.283c-0.179,-0.098 -0.428,-0.209 -0.747,-0.332c-0.622,-0.241 -1.043,-0.482 -1.262,-0.723c-0.22,-0.241 -0.33,-0.554 -0.33,-0.938c0,-0.462 0.186,-0.821 0.559,-1.076c0.373,-0.256 0.88,-0.384 1.521,-0.384c0.635,0 1.236,0.129 1.802,0.386l-0.371,0.864c-0.583,-0.24 -1.073,-0.361 -1.47,-0.361c-0.605,0 -0.908,0.173 -0.908,0.518c0,0.169 0.079,0.312 0.237,0.429c0.158,0.118 0.502,0.279 1.032,0.484c0.446,0.172 0.77,0.33 0.972,0.473c0.202,0.144 0.352,0.309 0.449,0.496c0.098,0.187 0.147,0.411 0.147,0.671Z" style="fill:#fff;fill-rule:nonzero;"/><path d="M98.536,54.004c0.28,0 0.56,-0.044 0.84,-0.131l0,0.864c-0.127,0.055 -0.291,0.102 -0.491,0.139c-0.2,0.037 -0.408,0.056 -0.623,0.056c-1.087,0 -1.63,-0.573 -1.63,-1.719l0,-2.91l-0.738,0l0,-0.508l0.791,-0.42l0.391,-1.142l0.708,0l0,1.201l1.538,0l0,0.869l-1.538,0l0,2.891c0,0.277 0.069,0.481 0.207,0.613c0.139,0.131 0.32,0.197 0.545,0.197Z" style="fill:#fff;fill-rule:nonzero;"/><path d="M71.355,44.483l-1.167,0l0,-6.138l-2.1,0l0,-1.001l5.366,0l0,1.001l-2.099,0l0,6.138Z" style="fill:#fff;fill-rule:nonzero;"/><path d="M78.977,44.483l-1.152,0l0,-3.32c0,-0.417 -0.084,-0.728 -0.252,-0.933c-0.168,-0.205 -0.434,-0.308 -0.798,-0.308c-0.482,0 -0.836,0.144 -1.062,0.432c-0.226,0.289 -0.34,0.771 -0.34,1.448l0,2.681l-1.147,0l0,-7.598l1.147,0l0,1.929c0,0.309 -0.019,0.64 -0.058,0.991l0.073,0c0.156,-0.26 0.374,-0.462 0.652,-0.605c0.278,-0.144 0.603,-0.215 0.974,-0.215c1.309,0 1.963,0.659 1.963,1.977l0,3.521Z" style="fill:#fff;fill-rule:nonzero;"/><path d="M82.732,44.581c-0.84,0 -1.497,-0.245 -1.97,-0.735c-0.474,-0.49 -0.711,-1.165 -0.711,-2.024c0,-0.882 0.22,-1.576 0.66,-2.08c0.439,-0.505 1.043,-0.757 1.811,-0.757c0.713,0 1.276,0.216 1.689,0.649c0.414,0.433 0.621,1.029 0.621,1.787l0,0.62l-3.599,0c0.016,0.525 0.158,0.927 0.425,1.209c0.267,0.282 0.643,0.422 1.128,0.422c0.319,0 0.616,-0.03 0.891,-0.09c0.275,-0.06 0.57,-0.16 0.886,-0.3l0,0.932c-0.28,0.134 -0.563,0.228 -0.85,0.284c-0.286,0.055 -0.613,0.083 -0.981,0.083Zm-0.21,-4.727c-0.365,0 -0.657,0.116 -0.876,0.347c-0.22,0.231 -0.351,0.568 -0.393,1.01l2.451,0c-0.007,-0.446 -0.114,-0.783 -0.323,-1.013c-0.208,-0.229 -0.494,-0.344 -0.859,-0.344Z" style="fill:#fff;fill-rule:nonzero;"/></g></svg>