<?xml version="1.0" encoding="UTF-8" standalone="no"?><!DOCTYPE svg PUBLIC "-//W3C//DTD SVG 1.1//EN" "http://www.w3.org/Graphics/SVG/1.1/DTD/svg11.dtd"><svg width="100%" height="100%" viewBox="0 0 20 18" version="1.1" xmlns="http://www.w3.org/2000/svg" xmlns:xlink="http://www.w3.org/1999/xlink" xml:space="preserve" xmlns:serif="http://www.serif.com/" style="fill-rule:evenodd;clip-rule:evenodd;stroke-linejoin:round;stroke-miterlimit:2;"><path d="M7.125,15c0.828,0 1.5,0.672 1.5,1.5c0,0.828 -0.672,1.5 -1.5,1.5c-0.828,0 -1.5,-0.672 -1.5,-1.5c0,-0.828 0.672,-1.5 1.5,-1.5Zm9,0c0.828,0 1.5,0.672 1.5,1.5c0,0.828 -0.672,1.5 -1.5,1.5c-0.828,0 -1.5,-0.672 -1.5,-1.5c0,-0.828 0.672,-1.5 1.5,-1.5Zm-12.5,-15c0.489,0 0.906,0.354 0.986,0.836l0.195,1.164l13.819,0c0.29,0 0.565,0.126 0.756,0.345c0.189,0.218 0.275,0.509 0.234,0.797l-1,7c-0.07,0.492 -0.492,0.858 -0.99,0.858l-11.319,0l0.166,1l10.153,0c0.553,0 1,0.447 1,1c0,0.553 -0.447,1 -1,1l-11.001,0c-0.129,0 -0.251,-0.028 -0.367,-0.075c-0.041,-0.016 -0.074,-0.044 -0.112,-0.065c-0.068,-0.038 -0.135,-0.076 -0.193,-0.13c-0.036,-0.034 -0.064,-0.073 -0.095,-0.112c-0.045,-0.057 -0.088,-0.113 -0.12,-0.179c-0.025,-0.048 -0.038,-0.098 -0.054,-0.151c-0.014,-0.042 -0.037,-0.079 -0.045,-0.124l-1.86,-11.164l-1.403,0c-0.553,0 -1,-0.447 -1,-1c0,-0.553 0.447,-1 1,-1l2.25,0Zm9,9l0,-2l-3,0l0,2l3,0Zm-4,0l0,-2l-2.986,0l0.333,2l2.653,0Zm8.133,0l0.285,-2l-3.418,0l0,2l3.133,0Zm-8.133,-3l0,-2l-3.486,0l0.338,2.03c0.047,-0.015 0.095,-0.03 0.148,-0.03l3,0Zm8.562,0l0.285,-2l-3.847,0l0,2l3.562,0Zm-4.562,0l0,-2l-3,0l0,2l3,0Z" style="fill:#fff;"/></svg>