<?xml version="1.0" encoding="UTF-8" standalone="no"?>
<!DOCTYPE svg PUBLIC "-//W3C//DTD SVG 1.1//EN" "http://www.w3.org/Graphics/SVG/1.1/DTD/svg11.dtd">
<svg width="100%" height="100%" viewBox="0 0 20 19" version="1.1" xmlns="http://www.w3.org/2000/svg" xmlns:xlink="http://www.w3.org/1999/xlink" xml:space="preserve" xmlns:serif="http://www.serif.com/" style="fill-rule:evenodd;clip-rule:evenodd;stroke-linejoin:round;stroke-miterlimit:2;">
    <g transform="matrix(1,0,0,1,-3946,-3576)">
        <g transform="matrix(1,0,0,1,2420,3538.78)">
            <g transform="matrix(1,0,0,1,1526.37,37.375)">
                <path d="M6.75,15.625C7.578,15.625 8.25,16.297 8.25,17.125C8.25,17.953 7.578,18.625 6.75,18.625C5.922,18.625 5.25,17.953 5.25,17.125C5.25,16.297 5.922,15.625 6.75,15.625ZM15.75,15.625C16.578,15.625 17.25,16.297 17.25,17.125C17.25,17.953 16.578,18.625 15.75,18.625C14.922,18.625 14.25,17.953 14.25,17.125C14.25,16.297 14.922,15.625 15.75,15.625ZM3.25,0.625C3.739,0.625 4.156,0.979 4.236,1.461L4.431,2.625L18.25,2.625C18.54,2.625 18.815,2.751 19.006,2.97C19.195,3.188 19.281,3.479 19.24,3.767L18.24,10.767C18.17,11.259 17.748,11.625 17.25,11.625L5.931,11.625L6.097,12.625L16.25,12.625C16.803,12.625 17.25,13.072 17.25,13.625C17.25,14.178 16.803,14.625 16.25,14.625L5.249,14.625C5.12,14.625 4.998,14.597 4.882,14.55C4.841,14.534 4.808,14.506 4.77,14.485C4.702,14.447 4.635,14.409 4.577,14.355C4.541,14.321 4.513,14.282 4.482,14.243C4.437,14.186 4.394,14.13 4.362,14.064C4.337,14.016 4.324,13.966 4.308,13.913C4.294,13.871 4.271,13.834 4.263,13.789L2.403,2.625L1,2.625C0.447,2.625 0,2.178 0,1.625C0,1.072 0.447,0.625 1,0.625L3.25,0.625ZM12.25,9.625L12.25,7.625L9.25,7.625L9.25,9.625L12.25,9.625ZM8.25,9.625L8.25,7.625L5.264,7.625L5.597,9.625L8.25,9.625ZM16.383,9.625L16.668,7.625L13.25,7.625L13.25,9.625L16.383,9.625ZM8.25,6.625L8.25,4.625L4.764,4.625L5.102,6.655C5.149,6.64 5.197,6.625 5.25,6.625L8.25,6.625ZM16.812,6.625L17.097,4.625L13.25,4.625L13.25,6.625L16.812,6.625ZM12.25,6.625L12.25,4.625L9.25,4.625L9.25,6.625L12.25,6.625Z" style="fill:rgb(64,64,64);"/>
            </g>
        </g>
    </g>
</svg>
