<?xml version="1.0" encoding="UTF-8" standalone="no"?>
<!DOCTYPE svg PUBLIC "-//W3C//DTD SVG 1.1//EN" "http://www.w3.org/Graphics/SVG/1.1/DTD/svg11.dtd">
<svg width="100%" height="100%" viewBox="0 0 40 154" version="1.1" xmlns="http://www.w3.org/2000/svg" xmlns:xlink="http://www.w3.org/1999/xlink" xml:space="preserve" xmlns:serif="http://www.serif.com/" style="fill-rule:evenodd;clip-rule:evenodd;stroke-linejoin:round;stroke-miterlimit:2;">
    <g transform="matrix(1,0,0,1,-2344,-2067)">
        <g transform="matrix(1,0,0,1,2104,-1)">
            <g transform="matrix(0.887859,0,0,0.887859,29.2109,266.873)">
                <g transform="matrix(1.11247,0,0,1.11247,-38.9336,-314.603)">
                    <g transform="matrix(1,0,0,1,16,2078.02)">
                        <path d="M271.126,142.004C271.126,145.026 268.674,147.484 265.66,147.484L240.631,147.484C237.617,147.484 235.165,145.026 235.165,142.004L235.165,77.542C235.165,75.761 235.582,74.089 236.369,72.709C238.485,69.026 242.536,67.826 244.763,67.438C246.455,67.144 247.683,65.676 247.683,63.945L247.683,49.086L258.614,49.086L258.614,63.945C258.614,65.676 259.84,67.145 261.528,67.438C263.754,67.826 267.805,69.025 269.921,72.71C270.709,74.081 271.126,75.751 271.126,77.542L271.126,142.004ZM271.462,71.824C268.984,67.511 264.366,66.127 261.833,65.686C260.997,65.541 260.392,64.81 260.392,63.945L260.392,47.158L259.502,47.158L258.614,47.158L247.683,47.158L246.794,47.158L245.905,47.158L245.905,63.945C245.905,64.809 245.297,65.541 244.458,65.686C241.925,66.127 237.306,67.511 234.826,71.826C233.885,73.476 233.388,75.452 233.388,77.542L233.388,142.004C233.388,146.006 236.637,149.263 240.631,149.263L265.66,149.263C269.654,149.263 272.903,146.006 272.903,142.004L272.903,77.542C272.903,75.441 272.405,73.463 271.462,71.824Z" style="fill:rgb(173,156,127);fill-rule:nonzero;"/>
                    </g>
                    <g transform="matrix(1,0,0,1,16,2078.02)">
                        <path d="M247.683,45.809L260.392,45.809L260.392,31.98C260.392,30.213 258.956,28.775 257.191,28.775L249.104,28.775C247.34,28.775 245.905,30.213 245.905,31.98L245.905,45.809L247.683,45.809Z" style="fill:rgb(173,156,127);fill-rule:nonzero;"/>
                    </g>
                    <g transform="matrix(1,0,0,1,16,2078.02)">
                        <path d="M267.397,118.192L238.895,118.192L238.895,96.921L267.397,96.921L267.397,118.192ZM267.974,90.2L238.317,90.2C237.998,90.2 237.74,90.46 237.74,90.779L237.74,124.365C237.74,124.685 237.998,124.944 238.317,124.944L267.974,124.944C268.294,124.944 268.552,124.685 268.552,124.365L268.552,90.779C268.552,90.46 268.294,90.2 267.974,90.2Z" style="fill:rgb(173,156,127);fill-rule:nonzero;"/>
                    </g>
                </g>
                <g transform="matrix(1.1263,0,0,1.1263,-2435.52,170.858)">
                    <text x="2374.55px" y="1802.59px" style="font-family:'OpenSans-Semibold', 'Open Sans', sans-serif;font-weight:600;font-size:16px;fill:rgb(173,156,127);">1<tspan x="2383.36px 2387.2px 2398.49px 2402.64px " y="1802.59px 1802.59px 1802.59px 1802.59px "> Gin</tspan></text>
                </g>
            </g>
        </g>
    </g>
</svg>
