<?xml version="1.0" encoding="UTF-8" standalone="no"?><!DOCTYPE svg PUBLIC "-//W3C//DTD SVG 1.1//EN" "http://www.w3.org/Graphics/SVG/1.1/DTD/svg11.dtd"><svg width="100%" height="100%" viewBox="0 0 272 124" version="1.1" xmlns="http://www.w3.org/2000/svg" xmlns:xlink="http://www.w3.org/1999/xlink" xml:space="preserve" xmlns:serif="http://www.serif.com/" style="fill-rule:evenodd;clip-rule:evenodd;stroke-linejoin:round;stroke-miterlimit:2;"><g><path d="M12.945,92.319c0,0.764 0,1.337 -0.039,1.643c0,0.344 -0.076,0.573 -0.191,0.726c-0.306,0.268 -0.84,0.268 -1.528,0.268c-0.765,0 -1.567,-0.039 -2.026,0.42c-0.458,0.42 -0.42,1.07 -0.42,2.56l0,17.006c0,1.375 0.114,2.254 -0.803,2.331c-0.993,0.038 -1.949,0.038 -2.866,0c-0.993,-0.039 -0.84,-0.956 -0.84,-2.102l0,-17.617c0,-1.299 0,-1.796 -0.344,-2.178c-0.382,-0.42 -1.147,-0.42 -1.911,-0.42c-0.421,0 -0.726,0 -0.879,-0.039c-0.765,-0.038 -1.032,-0.229 -1.07,-0.993c-0.039,-0.803 -0.039,-1.682 0,-2.56c0,-0.306 0.115,-0.536 0.229,-0.65c0.306,-0.267 0.765,-0.191 1.643,-0.191l9.172,0c1.796,0 1.873,0 1.873,1.796Z" style="fill:#fff;fill-rule:nonzero;"/><path d="M32.362,92.357l0,22.814c0,2.025 -0.115,2.102 -2.178,2.102c-0.65,0 -1.147,0 -1.49,-0.039c-0.956,-0.077 -0.841,-0.917 -0.841,-1.948l-0.039,-6.65c0,-0.65 -0.037,-1.184 -0.152,-1.566c-0.306,-1.07 -1.949,-0.917 -3.058,-0.841c-1.107,0.077 -0.993,1.07 -0.993,2.139l0,6.955c0,1.798 -0.153,1.95 -2.025,1.95c-1.3,0 -1.949,0.038 -2.255,-0.268c-0.268,-0.306 -0.268,-0.804 -0.268,-2.178l0,-22.508c0,-0.955 0.077,-1.491 0.268,-1.682c0.382,-0.344 2.675,-0.306 3.401,-0.229c1.032,0.076 0.879,0.956 0.879,2.102l0,6.343c0,1.223 -0.077,1.988 0.344,2.408c0.459,0.42 1.796,0.42 2.789,0.268c1.147,-0.115 1.07,-1.299 1.07,-2.408l0,-3.401c0,-1.49 0,-2.637 0.039,-3.401c0,-0.955 0.076,-1.491 0.267,-1.682c0.344,-0.344 2.637,-0.306 3.363,-0.229c1.032,0.076 0.879,0.956 0.879,1.949Z" style="fill:#fff;fill-rule:nonzero;"/><path d="M51.971,113.565c0.077,0.994 0.077,1.95 -0.039,2.867c-0.076,0.918 -0.993,0.841 -1.795,0.841l-8.293,0c-0.535,0 -1.185,0 -1.529,-0.306c-0.343,-0.306 -0.306,-0.802 -0.306,-2.217l0,-22.24c0,-1.911 0.039,-1.987 1.911,-1.987l8.255,0c0.879,0 1.376,0.114 1.567,0.267c0.344,0.344 0.306,2.254 0.229,3.134c-0.076,0.917 -0.879,0.84 -1.987,0.84l-3.783,0c-1.262,0.039 -1.606,0.421 -1.682,1.606c-0.038,1.299 -0.038,2.56 0.038,3.783c0,0.497 0.153,0.879 0.344,1.108c0.459,0.42 1.3,0.382 2.484,0.382c0.611,0 1.07,0 1.338,0.038c0.917,0 1.146,0.268 1.185,1.185c0.038,0.803 0.038,1.605 -0.039,2.407c0,0.536 -0.306,0.803 -0.84,0.841c-0.574,0.039 -1.453,0.039 -2.561,0.039c-1.452,0 -1.834,0.191 -1.911,1.833c-0.076,0.917 -0.076,1.949 -0.038,3.134c0.076,1.222 0.42,1.605 1.682,1.644l3.745,0c1.146,0.038 1.91,-0.077 2.025,0.801Z" style="fill:#fff;fill-rule:nonzero;"/><path d="M83.096,101.842l-0.322,0c0.376,14.555 0.376,15.196 -3.531,18.406c-1.98,1.661 -4.923,2.248 -7.652,1.874c-0.375,-0.054 -0.75,-0.107 -0.91,-0.161c-0.482,-0.106 -0.482,0.268 -0.16,0.429c0.267,0.214 0.534,0.322 0.856,0.48c0.963,0.428 1.979,0.644 2.889,0.644c2.302,0 4.335,-0.644 5.993,-1.979c4.281,-3.479 4.228,-4.497 4.228,-16.964c0,-1.391 0,-1.98 -0.428,-2.408c-0.161,-0.161 -0.481,-0.321 -0.963,-0.321Z" style="fill:#fff;fill-rule:nonzero;"/><path d="M82.079,98.791c0.16,0.161 0.267,0.322 0.375,0.482l0.374,0c1.606,0 1.606,-1.444 1.606,-2.996l0,-1.767c0,-2.033 -0.428,-3.585 -1.713,-5.297l-0.428,-0.482c0.481,1.659 0.428,2.087 0.428,4.87c0,1.445 0.535,3.8 -2.194,3.96c-0.482,0 -0.91,0.054 -1.338,0.054l-0.963,0l0,0.534c1.071,0 1.819,0 2.247,0.054c0.589,0 1.232,0.268 1.606,0.588Z" style="fill:#fff;fill-rule:nonzero;"/><path d="M71.055,112.222c0.268,0.857 0.804,1.285 1.392,1.338c-0.054,-0.429 -0.054,-0.91 -0.054,-1.444l0,-14.983c0,-2.355 -0.16,-5.459 1.285,-6.208c-0.375,-0.32 -0.803,-0.428 -1.231,-0.374c-1.124,0.16 -1.766,1.444 -1.766,3.907l0,14.982c0,1.177 0.107,2.034 0.374,2.728l0,0.054Z" style="fill:#fff;fill-rule:nonzero;"/><path d="M99.744,86.002l-0.481,0l0,32.16c0,3.693 0,3.693 -3.692,3.693l-0.91,0c0.054,0.909 0.268,1.605 1.284,1.659c0.536,0.053 1.284,0.053 2.301,0.053c2.194,0 2.729,-0.535 2.729,-2.729l0,-31.679c0,-1.819 0.215,-2.997 -1.231,-3.157Z" style="fill:#fff;fill-rule:nonzero;"/><path d="M130.945,86.162c-0.213,-0.053 -0.481,-0.053 -0.696,-0.053l0,31.947c0,3.905 0,3.905 -3.959,3.905c-0.428,0 -1.017,0.054 -1.712,0.054c0.054,0.107 0.054,0.268 0.107,0.375c0.535,1.659 2.996,1.283 4.281,1.283c2.407,0 2.996,-0.587 2.996,-2.943l0,-31.945c0,-1.231 0.107,-2.569 -1.017,-2.623Z" style="fill:#fff;fill-rule:nonzero;"/><path d="M116.336,106.711l0,11.398c0,3.852 0,3.852 -4.013,3.852l-0.642,0c0.054,0.909 0.32,1.553 1.444,1.712l1.874,0c2.461,0 3.05,-0.587 3.05,-2.889l0,-10.167c-0.802,-2.515 -1.017,-3.264 -1.284,-4.012c-0.107,-0.322 -0.429,-0.214 -0.429,0.106Z" style="fill:#fff;fill-rule:nonzero;"/><path d="M119.976,87.18c-0.269,-0.964 -1.07,-1.124 -1.927,-1.071l3.479,11.72c0.107,0.266 0.428,0.266 0.428,-0.054l0,-3.907l-1.339,-4.655c-0.32,-0.964 -0.535,-1.659 -0.641,-2.033Z" style="fill:#fff;fill-rule:nonzero;"/><path d="M80.045,86.731c1.927,2.516 1.713,3.532 1.713,7.065c0,1.551 0.321,2.889 -1.285,2.996c-1.23,0.053 -2.461,0.053 -3.745,0c-1.445,-0.107 -1.07,0 -1.231,-3.746c-0.053,-1.766 -1.338,-3.531 -3.21,-3.264c-1.874,0.267 -2.569,2.301 -2.569,4.87l0,14.982c0,1.123 0.107,2.141 0.428,3.05c0.803,2.621 3.692,2.729 4.976,0.375c0.054,-0.161 0.108,-0.323 0.161,-0.375c0.535,-3.103 1.07,-6.849 -0.696,-7.117c-0.856,-0.106 -1.284,-0.641 -1.284,-1.604c0,-1.873 0,-2.997 0.053,-3.318c0.054,-0.803 0.482,-1.231 1.338,-1.284c0.482,-0.054 0.964,-0.054 2.836,-0.054c1.445,0 2.409,0 2.891,0.054c0.48,0 0.802,0.16 0.962,0.321c0.429,0.428 0.429,1.016 0.429,2.408c0,11.557 1.123,14.125 -3.157,17.604c-1.606,1.284 -3.693,1.712 -5.78,1.712c-3.372,0 -6.903,-1.871 -8.616,-5.886c-0.267,-0.641 -0.374,-1.605 -0.374,-2.89c0,-16.266 0,-19.102 -0.054,-20.601c0,-4.014 3.211,-8.615 8.08,-8.562l1.927,0c2.462,0.054 4.549,1.123 6.207,3.264Z" style="fill:#fff;fill-rule:nonzero;"/><path d="M98.3,86.678l0,31.678c0,2.676 -0.107,2.73 -2.729,2.73c-1.018,0 -1.766,0 -2.302,-0.054c-1.444,-0.108 -1.284,-1.446 -1.284,-2.943l0,-31.893c0,-1.284 0.107,-2.086 0.321,-2.3c0.535,-0.536 3.747,-0.429 4.763,-0.375c1.445,0.161 1.231,1.337 1.231,3.157Z" style="fill:#fff;fill-rule:nonzero;"/><path d="M129.287,86.303l0,31.947c0,2.836 -0.162,2.943 -2.997,2.943c-1.284,0 -3.692,0.428 -4.281,-1.284c-0.107,-0.374 -0.268,-0.802 -0.535,-1.605c-2.89,-8.403 -4.068,-12.575 -3.96,-12.308l-0.642,-1.766c-0.321,-0.642 -1.018,-0.481 -1.284,0.161c-0.162,0.428 -0.215,1.176 -0.215,2.3l0,11.613c0,2.889 -0.053,2.889 -3.05,2.889l-1.873,0c-1.658,-0.215 -1.445,-1.553 -1.445,-3.265l0,-31.303c0,-1.659 -0.107,-2.943 1.124,-2.997l5.085,0c0.64,0 1.122,0.374 1.337,1.124c0.107,0.374 0.321,1.07 0.642,2.033l3.96,13.378c0.106,0.321 0.214,0.589 0.321,0.803c0.267,0.642 0.963,0.642 1.178,0c0.267,-0.856 0.267,-1.284 0.267,-3.051c0.053,-7.972 0.053,-11.825 0.053,-11.612c0,-2.621 0.108,-2.729 2.729,-2.729c0.91,0 1.766,0 2.568,0.108c1.124,0.052 1.018,1.39 1.018,2.621Z" style="fill:#fff;fill-rule:nonzero;"/><path d="M155.02,90.408l-6.497,0c-1.568,0 -2.446,0 -2.751,0.039c-0.841,0 -1.071,0.229 -1.109,1.069c-0.038,0.153 -0.038,0.574 -0.038,1.223l0,22.47c0,2.064 0.038,2.064 2.14,2.064c2.102,0 2.102,0 2.102,-2.102l0,-6.459c0,-1.604 0.305,-2.101 1.069,-2.406c0.23,-0.077 0.688,-0.153 1.376,-0.192c1.452,0 2.179,-0.038 2.103,-0.038c1.069,-0.038 0.917,-0.993 0.917,-2.522c-0.039,-1.873 -0.077,-1.949 -1.987,-1.949c-2.446,-0.038 -3.211,0.191 -3.402,-1.223c-0.038,-0.268 -0.076,-0.688 -0.076,-1.223c0.038,-1.719 0.038,-2.789 0.076,-3.172c0.076,-1.49 1.299,-1.299 2.293,-1.299l1.644,-0.038l1.642,0c0.956,0 1.759,0.114 1.834,-0.803c0.077,-0.611 0.077,-1.261 0.039,-1.987c0,-1.223 -0.191,-1.376 -1.375,-1.452Z" style="fill:#fff;fill-rule:nonzero;"/><path d="M171.188,112.764c-3.286,-0.077 -3.745,0.267 -3.898,-1.377c0,-0.267 -0.038,-0.763 -0.038,-1.529l0,-17.042c0,-1.452 0.154,-2.293 -0.917,-2.369c-0.382,-0.039 -0.917,-0.039 -1.682,-0.039c-1.872,0 -1.91,0.076 -1.91,1.949l0,23.119c0,1.72 0.076,1.797 1.796,1.797l7.834,0c0.84,0 1.72,0.151 1.759,-0.88c0.036,-0.917 0.036,-1.795 0,-2.712c-0.039,-1.11 -0.459,-0.917 -2.944,-0.917Z" style="fill:#fff;fill-rule:nonzero;"/><path d="M185.486,106.534c0,-0.114 0,-0.305 0.038,-0.496c0.113,-1.605 0.345,-2.79 0.611,-3.516c0.153,-0.268 0.574,-0.42 0.803,0c0.114,0.229 0.19,0.421 0.228,0.574c0,0.114 0.421,2.14 0.498,2.827c0.039,0.344 0.039,0.573 0.039,0.65c-0.077,0.497 -2.217,0.535 -2.217,-0.039Zm4.394,-14.215c-0.115,-0.612 -0.268,-1.299 -0.535,-1.567c-0.152,-0.115 -0.458,-0.191 -0.841,-0.229l-3.477,0c-1.223,0 -1.529,0.229 -1.758,1.49c-0.344,2.102 -3.057,18.074 -3.974,23.273c-0.152,1.107 -0.421,1.91 0.649,1.948c0.803,0.039 1.797,0.039 2.981,0c0.534,0 0.84,-0.267 0.956,-0.841c0.305,-1.757 0.496,-2.789 0.533,-3.095c0.232,-1.95 0.535,-2.025 2.524,-2.025c0,0 0.114,0 0.306,0.038c1.337,0.037 1.413,1.872 1.452,2.254c0.075,0.306 0.114,0.765 0.191,1.339c0.152,1.223 0.19,1.795 0.535,2.101c0.152,0.152 0.382,0.229 0.763,0.268c0.306,0 3.02,0.114 3.363,-0.229c0.306,-0.268 0.344,-0.956 0.154,-2.065c-0.039,-0.304 -2.752,-16.317 -3.822,-22.66Z" style="fill:#fff;fill-rule:nonzero;"/><path d="M211.362,90.523c-0.841,-0.039 -1.835,-0.039 -2.981,0c-1.03,0.038 -1.146,1.91 -1.261,2.637c-0.381,2.216 -1.414,8.75 -1.873,11.579c-0.038,0.382 -0.19,0.917 -0.342,1.605c-0.154,0.535 -0.612,0.42 -0.727,0.114c-0.192,-0.573 -0.306,-0.994 -0.383,-1.299c-0.19,-1.299 -0.458,-3.057 -0.801,-5.197c-0.804,-5.274 -1.033,-6.573 -1.377,-8.484c-0.114,-0.726 -0.381,-0.917 -1.108,-0.955c-0.765,-0.039 -1.566,-0.039 -2.407,-0.039c-1.07,0.077 -1.299,0.344 -1.185,1.453c0,0.114 0.039,0.267 0.076,0.42c0.23,1.452 1.109,6.114 1.49,8.33l0.192,1.033l2.446,13.756c0.115,0.574 0.152,1.797 1.223,1.797l4.356,0c1.032,-0.039 1.109,-1.491 1.262,-2.294l3.898,-21.323c0.152,-0.879 0.229,-1.643 0.305,-2.216c0.038,-0.573 -0.192,-0.879 -0.803,-0.917Z" style="fill:#fff;fill-rule:nonzero;"/><path d="M225.963,110.164c0,0.612 -0.075,1.109 -0.229,1.454c-0.688,1.527 -2.903,1.489 -3.515,-0.077c-0.153,-0.306 -0.191,-0.879 -0.191,-1.644l0,-12.457c0,-0.612 0,-0.994 0.038,-1.223c0.267,-1.95 3.096,-2.179 3.707,-0.306c0.115,0.382 0.19,0.802 0.19,1.338l0,12.915Zm2.676,-18.457c-1.605,-1.528 -3.516,-1.949 -6.535,-1.49c-0.496,0.076 -0.917,0.267 -1.376,0.611c-2.215,1.605 -3.286,3.516 -3.209,5.771c0,1.07 0.038,3.095 0,14.33c0,1.223 0.19,2.216 0.649,3.058c2.446,4.585 8.789,4.891 11.809,0.037c0.191,-0.343 0.343,-0.649 0.382,-0.993c0.306,-1.567 0.42,-2.561 0.42,-2.981l-0.038,-12.649c0,-2.025 -0.497,-4.203 -2.102,-5.694Z" style="fill:#fff;fill-rule:nonzero;"/><path d="M246.72,100.687c0,0.077 -0.039,0.23 -0.076,0.46c-0.306,1.413 -1.643,2.254 -3.057,1.91c-0.65,-0.191 -0.955,-0.573 -0.955,-1.223c0,-0.076 -0.039,-1.147 -0.039,-2.827c0,-3.173 -0.422,-4.204 1.72,-3.937c0.153,0.038 0.304,0.077 0.572,0.115c1.261,0.305 1.759,0.841 1.835,2.064l0,3.438Zm4.777,14.484c-1.032,-4.051 -1.72,-6.649 -2.064,-7.872c-0.23,-0.955 -0.114,-1.758 0.42,-2.408c0.726,-0.917 1.108,-1.834 1.108,-2.713c0.039,-3.516 0.039,-5.771 0,-6.802c-0.076,-2.14 -1.603,-3.936 -3.669,-4.433c-1.223,-0.344 -2.33,-0.496 -3.286,-0.459l-2.025,0c-2.216,0 -3.324,-0.076 -3.668,0.268c-0.193,0.191 -0.267,0.764 -0.267,1.719l0,22.585c0,1.261 -0.154,2.178 0.878,2.217c0.917,0.038 1.834,0.038 2.714,0c1.07,-0.039 0.917,-0.917 0.917,-2.064l0,-5.389c0.038,-1.185 -0.039,-2.215 1.068,-2.368c1.11,-0.153 1.3,0.839 1.453,1.566l0.726,3.095c0.383,1.491 0.65,2.523 0.765,3.096c0.229,1.07 0.345,1.948 1.184,2.064c1.262,0.077 2.408,0.077 3.44,-0.039c0.42,-0.038 0.65,-0.383 0.573,-0.764c-0.038,-0.343 -0.115,-0.803 -0.267,-1.299Z" style="fill:#fff;fill-rule:nonzero;"/><path d="M268.698,104.51c-0.687,-0.803 -4.548,-4.319 -4.661,-4.472c-1.146,-1.299 -1.605,-2.675 -1.415,-4.127c0.269,-2.14 2.599,-2.561 3.516,-0.535l0.383,0.994c0.152,0.42 0.458,0.611 0.917,0.611c0.917,0 1.91,-0.191 2.943,-0.535c0.382,-0.153 0.572,-0.382 0.495,-0.841c-0.381,-3.21 -2.903,-6.955 -8.521,-5.541c-2.446,0.612 -4.319,2.752 -4.548,5.732c-0.19,2.561 0.65,4.891 2.485,6.879l1.069,1.07l2.37,2.331c1.987,2.025 2.79,2.369 2.752,4.623c0,1.032 -0.765,2.026 -1.682,2.255c-0.956,0.229 -1.72,-0.19 -2.331,-1.261c-0.191,-0.382 -0.267,-0.611 -0.383,-1.069c-0.038,-0.268 -0.114,-0.422 -0.114,-0.498c-0.229,-0.802 -0.497,-1.031 -1.261,-0.993c-0.42,0 -1.3,0.114 -2.56,0.306c-0.803,0.114 -0.689,1.069 -0.612,1.643c0.19,1.26 0.726,2.599 1.643,4.012c0.306,0.459 0.803,0.879 1.452,1.299c1.07,0.651 2.064,1.031 3.975,1.031c2.561,0 3.134,-0.037 4.853,-2.062c0.841,-0.994 1.377,-2.102 1.529,-3.325c0.382,-2.79 -0.345,-5.311 -2.294,-7.527Z" style="fill:#fff;fill-rule:nonzero;"/><path d="M86.234,35.259c0,0 0.605,1.827 2.772,1.725c0,0 -0.129,-2.172 -2.772,-1.725Z" style="fill:#fff;fill-rule:nonzero;"/><path d="M88.866,39.673c0,0 0.664,-2.072 -1.963,-2.61c0,0 -0.095,1.923 1.963,2.61Z" style="fill:#fff;fill-rule:nonzero;"/><path d="M86.832,41.706c0,0 0.665,-2.072 -1.961,-2.61c0,0 -0.096,1.922 1.961,2.61Z" style="fill:#fff;fill-rule:nonzero;"/><path d="M84.192,40.147c0,0 -0.95,1.674 0.577,3.213c0,0 1.526,-1.55 -0.577,-3.213Z" style="fill:#fff;fill-rule:nonzero;"/><path d="M85.44,35.859c0,0 -0.891,1.706 0.69,3.191c0,0 1.471,-1.604 -0.69,-3.191Z" style="fill:#fff;fill-rule:nonzero;"/><path d="M111.047,40.162c0,0 0.605,1.827 2.772,1.724c0,0 -0.129,-2.172 -2.772,-1.724Z" style="fill:#fff;fill-rule:nonzero;"/><path d="M113.678,44.575c0,0 0.665,-2.071 -1.962,-2.609c0,0 -0.095,1.922 1.962,2.609Z" style="fill:#fff;fill-rule:nonzero;"/><path d="M124.879,29.838c0,0 0.605,1.827 2.771,1.725c0,0 -0.128,-2.172 -2.771,-1.725Z" style="fill:#fff;fill-rule:nonzero;"/><path d="M125.548,31.642c0,0 -0.096,1.923 1.962,2.61c0,0 0.663,-2.072 -1.962,-2.61Z" style="fill:#fff;fill-rule:nonzero;"/><path d="M113.08,38.129c0,0 0.605,1.827 2.772,1.725c0,0 -0.129,-2.172 -2.772,-1.725Z" style="fill:#fff;fill-rule:nonzero;"/><path d="M115.711,42.543c0,0 0.664,-2.072 -1.962,-2.61c0,0 -0.095,1.923 1.962,2.61Z" style="fill:#fff;fill-rule:nonzero;"/><path d="M110.253,40.761c0,0 -0.891,1.706 0.691,3.191c0,0 1.469,-1.603 -0.691,-3.191Z" style="fill:#fff;fill-rule:nonzero;"/><path d="M122.526,31.671c0,0 0.606,1.828 2.772,1.725c0,0 -0.129,-2.172 -2.772,-1.725Z" style="fill:#fff;fill-rule:nonzero;"/><path d="M123.195,33.476c0,0 -0.094,1.922 1.963,2.609c0,0 0.664,-2.072 -1.963,-2.609Z" style="fill:#fff;fill-rule:nonzero;"/><path d="M121.732,32.271c0,0 -0.891,1.706 0.691,3.191c0,0 1.47,-1.603 -0.691,-3.191Z" style="fill:#fff;fill-rule:nonzero;"/><path d="M120.405,33.598c0,0 -1.127,2.16 0.874,4.04c0,0 1.863,-2.03 -0.874,-4.04Z" style="fill:#fff;fill-rule:nonzero;"/><path d="M114.276,19.056c0,0 0.605,1.827 2.771,1.725c0,0 -0.128,-2.172 -2.771,-1.725Z" style="fill:#fff;fill-rule:nonzero;"/><path d="M114.945,20.86c0,0 -0.096,1.922 1.962,2.61c0,0 0.664,-2.072 -1.962,-2.61Z" style="fill:#fff;fill-rule:nonzero;"/><path d="M113.481,19.655c0,0 -0.891,1.707 0.69,3.192c0,0 1.471,-1.604 -0.69,-3.192Z" style="fill:#fff;fill-rule:nonzero;"/><path d="M112.826,11.874c0,0 -0.472,-2.124 -3.011,-1.263c0,0 0.889,1.708 3.011,1.263Z" style="fill:#fff;fill-rule:nonzero;"/><path d="M110.763,12.286c0,0 0.21,1.913 2.351,2.265c0,0 0.327,-2.151 -2.351,-2.265Z" style="fill:#fff;fill-rule:nonzero;"/><path d="M109.127,11.329c0,0 -0.609,1.826 1.188,3.041c0,0 1.197,-1.817 -1.188,-3.041Z" style="fill:#fff;fill-rule:nonzero;"/><path d="M91.698,18.642c0,0 1.352,0.593 2.405,-0.694c0,0 -1.303,-1.041 -2.405,0.694Z" style="fill:#fff;fill-rule:nonzero;"/><path d="M93.069,19.187c0,0 1.046,1.04 2.494,0.221c0,0 -0.84,-1.441 -2.494,-0.221Z" style="fill:#fff;fill-rule:nonzero;"/><path d="M93.804,20.647c0,0 -0.159,-1.661 -2.172,-1.245c0,0 0.515,1.383 2.172,1.245Z" style="fill:#fff;fill-rule:nonzero;"/><path d="M93.055,11.967c0,0 -0.272,-1.451 -1.929,-1.596c0,0 -0.125,1.663 1.929,1.596Z" style="fill:#fff;fill-rule:nonzero;"/><path d="M92.732,10.527c0,0 0.27,-1.45 -1.222,-2.184c0,0 -0.718,1.505 1.222,2.184Z" style="fill:#fff;fill-rule:nonzero;"/><path d="M93.719,11.593c0,0 0.853,-1.204 -0.195,-2.495c0,0 -1.282,1.067 0.195,2.495Z" style="fill:#fff;fill-rule:nonzero;"/><path d="M95.525,10.57c0,0 1.351,0.593 2.405,-0.693c0,0 -1.304,-1.041 -2.405,0.693Z" style="fill:#fff;fill-rule:nonzero;"/><path d="M99.389,11.337c0,0 -0.839,-1.442 -2.493,-0.222c0,0 1.046,1.041 2.493,0.222Z" style="fill:#fff;fill-rule:nonzero;"/><path d="M95.459,11.33c0,0 0.514,1.383 2.171,1.245c0,0 -0.159,-1.661 -2.171,-1.245Z" style="fill:#fff;fill-rule:nonzero;"/><path d="M99.02,13.246c0,0 -1.654,-0.217 -1.699,1.838c0,0 1.463,-0.192 1.699,-1.838Z" style="fill:#fff;fill-rule:nonzero;"/><path d="M98.776,14.601c0,0 1.434,0.349 2.248,-1.1c0,0 -1.464,-0.799 -2.248,1.1Z" style="fill:#fff;fill-rule:nonzero;"/><path d="M100.16,15.709c0,0 -0.995,-1.338 -2.502,0.059c0,0 1.156,0.917 2.502,-0.059Z" style="fill:#fff;fill-rule:nonzero;"/><path d="M102.106,21.25c0,0 -0.436,-1.235 -1.909,-1.136c0,0 0.117,1.476 1.909,1.136Z" style="fill:#fff;fill-rule:nonzero;"/><path d="M100.022,17.901c0,0 -0.477,1.599 1.544,1.971c0,0 0.044,-1.475 -1.544,-1.971Z" style="fill:#fff;fill-rule:nonzero;"/><path d="M102.706,20.773c0,0 0.657,-1.321 -0.578,-2.436c0,0 -1.102,1.252 0.578,2.436Z" style="fill:#fff;fill-rule:nonzero;"/><path d="M81.249,11.875c0,0 -0.801,1.24 0.302,2.485c0,0 1.235,-1.121 -0.302,-2.485Z" style="fill:#fff;fill-rule:nonzero;"/><path d="M78.519,11.085l-0.001,0c0,-0.003 0.002,-0.006 0.002,-0.009c-0.164,-0.053 -1.417,-0.408 -2.325,0.852c0,0 0.782,0.605 1.598,0.076c-0.148,0.367 -0.216,0.84 -0.046,1.433c0,0 1.099,-0.258 1.067,-1.391c-0.039,-0.506 -0.135,-0.801 -0.295,-0.961Z" style="fill:#fff;fill-rule:nonzero;"/><path d="M74.621,12.987c0,0 -1.61,-0.433 -1.927,1.598c0,0 1.476,0.003 1.927,-1.598Z" style="fill:#fff;fill-rule:nonzero;"/><path d="M70.633,14.395c0,0 -0.061,-1.474 -1.679,-1.856c0,0 -0.364,1.628 1.679,1.856Z" style="fill:#fff;fill-rule:nonzero;"/><path d="M73.921,15.235c0,0 -0.755,-0.781 -1.756,-0.25c0.271,-0.358 0.493,-0.882 0.382,-1.631c0,0 -1.623,0.265 -1.108,2.216c-0.001,0.001 0.016,0.026 0.025,0.021c0.214,0.117 1.349,0.652 2.457,-0.356Z" style="fill:#fff;fill-rule:nonzero;"/><path d="M67.19,18.974c0,0 1.037,1.306 2.499,-0.139c0,0 -1.185,-0.879 -2.499,0.139Z" style="fill:#fff;fill-rule:nonzero;"/><path d="M69.089,17.583c0,0 0.142,1.077 1.263,1.245c-0.431,0.126 -0.92,0.416 -1.276,1.084c0,0 1.481,0.766 2.223,-1.151c0,0 -0.666,-1.336 -2.21,-1.178Z" style="fill:#fff;fill-rule:nonzero;"/><path d="M72.072,16.263c0,0 0.293,1.446 1.952,1.567c0,0 0.101,-1.664 -1.952,-1.567Z" style="fill:#fff;fill-rule:nonzero;"/><path d="M77.972,15.551c0,0 0.102,-1.664 -1.951,-1.567c0,0 0.293,1.446 1.951,1.567Z" style="fill:#fff;fill-rule:nonzero;"/><path d="M78.935,13.634c0,0 1.665,0.108 1.574,-1.946c0,0 -1.447,0.288 -1.574,1.946Z" style="fill:#fff;fill-rule:nonzero;"/><path d="M81.493,41.879c0,0 -0.057,1.924 2.014,2.569c0,0 0.623,-2.085 -2.014,-2.569Z" style="fill:#fff;fill-rule:nonzero;"/><path d="M80.654,43.497c0,0 -1.356,1.366 -0.285,3.252c0,0 1.879,-1.097 0.285,-3.252Z" style="fill:#fff;fill-rule:nonzero;"/><path d="M77.262,45.148c0,0 2.062,0.697 2.64,-1.921c0,0 -1.921,-0.125 -2.64,1.921Z" style="fill:#fff;fill-rule:nonzero;"/><path d="M77.146,41.841c0,0 0.893,1.984 3.204,0.626c0,0 -1.216,-1.492 -3.204,-0.626Z" style="fill:#fff;fill-rule:nonzero;"/><path d="M77.654,39.689c0,0 0.893,1.984 3.204,0.626c0,0 -1.216,-1.493 -3.204,-0.626Z" style="fill:#fff;fill-rule:nonzero;"/><path d="M82.63,38.948c0,0 -0.912,-1.119 -2.404,-0.469c0,0 0.67,1.488 2.404,0.469Z" style="fill:#fff;fill-rule:nonzero;"/><path d="M83.38,38.227c0,0 -0.27,-1.987 -2.507,-2.296c0,0 -0.285,2.248 2.507,2.296Z" style="fill:#fff;fill-rule:nonzero;"/><path d="M82.094,33.553c0,0 -1.261,1.883 1.213,3.177c0,0 0.649,-1.897 -1.213,-3.177Z" style="fill:#fff;fill-rule:nonzero;"/><path d="M79.655,32.702c0,0 -0.967,1.443 0.93,2.436c0,0 0.498,-1.455 -0.93,-2.436Z" style="fill:#fff;fill-rule:nonzero;"/><path d="M80.408,37.161c0,0 0.499,-1.455 -0.93,-2.436c0,0 -0.967,1.443 0.93,2.436Z" style="fill:#fff;fill-rule:nonzero;"/><path d="M78.21,35.937c0,0 1.386,-1.265 0.434,-3.151c0,0 -1.881,0.976 -0.434,3.151Z" style="fill:#fff;fill-rule:nonzero;"/><path d="M75.526,33.916c0,0 1.85,0.313 2.75,-1.599c0,0 -1.928,-0.88 -2.75,1.599Z" style="fill:#fff;fill-rule:nonzero;"/><path d="M73.294,33.333c0,0 -1,1.587 0.418,3.154c0,0 1.555,-1.442 -0.418,-3.154Z" style="fill:#fff;fill-rule:nonzero;"/><path d="M70.949,35.261c0,0 -0.122,1.871 1.872,2.572c0,0 0.679,-2.008 -1.872,-2.572Z" style="fill:#fff;fill-rule:nonzero;"/><path d="M69.473,37.57c0,0 0.993,1.592 3.021,0.998c0,0 -0.619,-2.027 -3.021,-0.998Z" style="fill:#fff;fill-rule:nonzero;"/><path d="M70.378,40.07c0,0 1.382,1.268 3.177,0.153c0,0 -1.139,-1.787 -3.177,-0.153Z" style="fill:#fff;fill-rule:nonzero;"/><path d="M70.331,40.973c0,0 0.302,1.851 2.403,2.085c0,0 0.21,-2.109 -2.403,-2.085Z" style="fill:#fff;fill-rule:nonzero;"/><path d="M70.302,44.506c0,0 1.323,-1.338 -0.493,-2.78c0,0 -0.826,1.445 0.493,2.78Z" style="fill:#fff;fill-rule:nonzero;"/><path d="M68.747,40.914c0,0 -0.448,-1.604 -2.324,-1.604c0,0 0.001,0.008 0.001,0.014c-0.004,-0.003 -0.014,-0.011 -0.014,-0.011c0,0 -1.41,1.246 0.305,2.807c0,0 0.442,-0.69 0.286,-1.591c0.341,0.29 0.884,0.489 1.746,0.385Z" style="fill:#fff;fill-rule:nonzero;"/><path d="M63.327,43.871c0,0 0.921,-1.387 -0.305,-2.807c0,0 -1.41,1.246 0.305,2.807Z" style="fill:#fff;fill-rule:nonzero;"/><path d="M60.94,43.76c0,0 1.506,-0.711 1.19,-2.561c0,0 -1.851,0.338 -1.19,2.561Z" style="fill:#fff;fill-rule:nonzero;"/><path d="M59.007,42.144c0,0 1.645,0.255 2.421,-1.454c0,0 -1.722,-0.758 -2.421,1.454Z" style="fill:#fff;fill-rule:nonzero;"/><path d="M62.601,40.276c0,0 -0.486,-1.818 -2.649,-0.98c0,0 0.831,1.443 2.649,0.98Z" style="fill:#fff;fill-rule:nonzero;"/><path d="M62.151,37.203c0,0 -0.771,1.476 0.598,2.76c0,0 1.271,-1.387 -0.598,-2.76Z" style="fill:#fff;fill-rule:nonzero;"/><path d="M64.904,38.394c0,0 1.743,-0.708 0.641,-2.75c0,0 -1.328,1.004 -0.641,2.75Z" style="fill:#fff;fill-rule:nonzero;"/><path d="M68.789,31.893c0,0 -1.328,1.003 -0.642,2.75c0,0 1.743,-0.709 0.642,-2.75Z" style="fill:#fff;fill-rule:nonzero;"/><path d="M66.084,33.645c0,0 1.861,0.281 1.956,-2.037c0,0 -1.654,0.185 -1.956,2.037Z" style="fill:#fff;fill-rule:nonzero;"/><path d="M63.251,32.572c-0.261,-0.087 -1.697,-0.446 -2.73,0.893c0,0 0.476,0.339 1.098,0.303c-0.125,0.235 -0.233,0.499 -0.288,0.834c0,0 1.797,0.171 1.92,-2.03Z" style="fill:#fff;fill-rule:nonzero;"/><path d="M61.432,31.423c0,0 -1.544,-0.625 -2.689,0.861c0,0 1.502,1.132 2.689,-0.861Z" style="fill:#fff;fill-rule:nonzero;"/><path d="M60.156,28.951c0,0 -1.427,0.179 -1.664,1.781c0,0 1.609,0.221 1.664,-1.781Z" style="fill:#fff;fill-rule:nonzero;"/><path d="M56.815,28.617c0,0 1.193,1.724 3.147,0.031c0,0 -1.414,-1.202 -3.147,-0.031Z" style="fill:#fff;fill-rule:nonzero;"/><path d="M57.542,26.549c0,0 -1.847,-0.181 -2.604,1.769c0,0 1.964,0.737 2.604,-1.769Z" style="fill:#fff;fill-rule:nonzero;"/><path d="M59.781,22.683c0,0 -1.708,0.727 -1.436,2.802c0,0 2.076,-0.297 1.436,-2.802Z" style="fill:#fff;fill-rule:nonzero;"/><path d="M57.801,25.173c0,0 0.615,-2.005 -1.925,-2.49c0,0 -0.068,1.855 1.925,2.49Z" style="fill:#fff;fill-rule:nonzero;"/><path d="M56.996,26.157c0,0 -1.09,-1.792 -3.14,-0.216c0,0 1.34,1.283 3.14,0.216Z" style="fill:#fff;fill-rule:nonzero;"/><path d="M55.829,24.589c0,0 -0.832,-1.408 -2.446,-0.2c0,0 1.032,1.014 2.446,0.2Z" style="fill:#fff;fill-rule:nonzero;"/><path d="M61.458,24.361c0,0 -1.575,-0.441 -1.905,1.548c0,0 1.447,0.018 1.905,-1.548Z" style="fill:#fff;fill-rule:nonzero;"/><path d="M63.102,26.005c0,0 -1.574,-0.441 -1.904,1.548c0,0 1.446,0.018 1.904,-1.548Z" style="fill:#fff;fill-rule:nonzero;"/><path d="M61.837,28.453c0,0 1.501,0.908 2.941,-0.446c0,0 -1.373,-1.429 -2.941,0.446Z" style="fill:#fff;fill-rule:nonzero;"/><path d="M72.028,31.08c0,0 -0.484,-1.686 -2.461,-1.671c0,0 0.037,1.981 2.461,1.671Z" style="fill:#fff;fill-rule:nonzero;"/><path d="M67.584,27.832c0.08,-0.335 0.103,-0.724 0.012,-1.182c0,0 -1.727,0.447 -1.096,2.657c0,0 1.676,0.269 2.452,-1.499c0,0 -0.678,-0.281 -1.368,0.024Z" style="fill:#fff;fill-rule:nonzero;"/><path d="M73.361,27.383c0,0 -0.048,0.733 0.462,1.289c-0.343,0.031 -0.719,0.134 -1.123,0.368c0,0 1.01,1.704 2.965,0.238c0,0 -0.381,-1.727 -2.304,-1.895Z" style="fill:#fff;fill-rule:nonzero;"/><path d="M72.661,30.612c0,0 0.209,-1.448 -1.3,-2.113c0,0 -0.65,1.52 1.3,2.113Z" style="fill:#fff;fill-rule:nonzero;"/><path d="M75.815,27.608c0,0 -0.65,1.52 1.3,2.113c0,0 0.209,-1.448 -1.3,-2.113Z" style="fill:#fff;fill-rule:nonzero;"/><path d="M82.896,28.634c0,0 -0.865,1.783 1.436,2.605c0,0 0.334,-1.722 -1.436,-2.605Z" style="fill:#fff;fill-rule:nonzero;"/><path d="M87.197,28.548c0,0 -0.376,0.632 -0.173,1.358c-0.32,-0.128 -0.702,-0.206 -1.168,-0.181c0,0 0.128,1.977 2.535,1.556c0,0 0.441,-1.713 -1.194,-2.733Z" style="fill:#fff;fill-rule:nonzero;"/><path d="M84.908,28.636c0,0 -1.268,1.061 0.201,2.473c0,0 0.842,-1.196 -0.201,-2.473Z" style="fill:#fff;fill-rule:nonzero;"/><path d="M89.479,32.337c0,0 0.757,-1.075 -0.181,-2.223c0,0 -1.139,0.954 0.181,2.223Z" style="fill:#fff;fill-rule:nonzero;"/><path d="M90.679,30.115c0,0 -1.528,1.278 0.243,2.98c0,0 1.014,-1.441 -0.243,-2.98Z" style="fill:#fff;fill-rule:nonzero;"/><path d="M83.994,26.743c0,0 -1.268,1.061 0.201,2.473c0,0 0.842,-1.196 -0.201,-2.473Z" style="fill:#fff;fill-rule:nonzero;"/><path d="M79.814,9.679c0,0 0.557,-1.662 -1.081,-2.771c0,0 -1.092,1.654 1.081,2.771Z" style="fill:#fff;fill-rule:nonzero;"/><path d="M83.822,10.249c-0.026,-0.017 -0.041,-0.034 -0.066,-0.051c0.04,0.013 0.069,0.025 0.072,0.036c0.033,-0.077 0.667,-1.62 -0.821,-2.846c0,0 -0.455,0.577 -0.349,1.323c-0.3,-0.168 -0.669,-0.296 -1.134,-0.333c0,0 -0.133,1.978 2.309,1.876c0,0 -0.004,-0.016 -0.005,-0.02c-0.001,0.002 -0.006,0.015 -0.006,0.015Z" style="fill:#fff;fill-rule:nonzero;"/><path d="M80.727,7.174c0,0 -1.396,0.885 -0.125,2.478c0,0 0.992,-1.074 0.125,-2.478Z" style="fill:#fff;fill-rule:nonzero;"/><path d="M84.902,8.963c0,0 -1.396,0.885 -0.125,2.478c0,0 0.992,-1.075 0.125,-2.478Z" style="fill:#fff;fill-rule:nonzero;"/><path d="M75.815,22.657c0,0 -0.65,1.521 1.3,2.114c0,0 0.209,-1.448 -1.3,-2.114Z" style="fill:#fff;fill-rule:nonzero;"/><path d="M76.76,22.734c0,0 0.167,-1.156 -1.038,-1.687c0,0 -0.519,1.214 1.038,1.687Z" style="fill:#fff;fill-rule:nonzero;"/><path d="M78.606,24.828c0,0 1.419,-0.355 1.463,-2.004c0,0 -1.653,-0.025 -1.463,2.004Z" style="fill:#fff;fill-rule:nonzero;"/><path d="M82.624,28.395c0,0 0.334,-1.619 -1.695,-1.812c0,0 0.084,1.46 1.695,1.812Z" style="fill:#fff;fill-rule:nonzero;"/><path d="M81.527,26.129c0,0 0.996,1.071 2.461,0.314c0,0 -0.776,-1.46 -2.461,-0.314Z" style="fill:#fff;fill-rule:nonzero;"/><path d="M81.659,25.481c0,0 1.462,0.001 1.906,-1.588c0,0 -1.597,-0.427 -1.906,1.588Z" style="fill:#fff;fill-rule:nonzero;"/><path d="M85.212,25.519c0,0 -0.478,-0.898 -1.515,-0.193c0,0 0.613,0.659 1.515,0.193Z" style="fill:#fff;fill-rule:nonzero;"/><path d="M84.951,23.95c0,0 -0.982,-0.262 -1.173,0.977c0,0 0.9,0 1.173,-0.977Z" style="fill:#fff;fill-rule:nonzero;"/><path d="M86.437,29.089c0,0 0.727,-0.53 0.371,-1.481c0,0 -0.948,0.368 -0.371,1.481Z" style="fill:#fff;fill-rule:nonzero;"/><path d="M85.219,27.681c0,0 -0.376,0.945 0.832,1.281c0,0 0.106,-0.894 -0.832,-1.281Z" style="fill:#fff;fill-rule:nonzero;"/><path d="M88.286,17.159c0,0 -1.288,0.031 -1.077,1.605c0,0 1.093,-0.319 1.077,-1.605Z" style="fill:#fff;fill-rule:nonzero;"/><path d="M87.414,19.519c0,0 0.942,0.131 1.369,-0.852c0,0 -0.99,-0.417 -1.369,0.852Z" style="fill:#fff;fill-rule:nonzero;"/><path d="M88.781,20.988c0.055,-0.296 0.032,-0.672 -0.247,-1.089c0,0 -0.937,0.643 -0.023,1.706c0,0 0.036,-0.044 0.081,-0.115c0.201,0.006 0.824,-0.033 1.138,-0.757c0,0 -0.555,-0.222 -0.949,0.255Z" style="fill:#fff;fill-rule:nonzero;"/><path d="M89.844,16.379c0,0 -0.991,-0.417 -1.369,0.853c0,0 0.942,0.13 1.369,-0.853Z" style="fill:#fff;fill-rule:nonzero;"/><path d="M97.793,25.639c0,0 -0.831,0.322 -0.325,1.298c0,0 0.637,-0.465 0.325,-1.298Z" style="fill:#fff;fill-rule:nonzero;"/><path d="M97.129,26.825c0,0 0.094,-0.783 -0.728,-1.122c0,0 -0.331,0.828 0.728,1.122Z" style="fill:#fff;fill-rule:nonzero;"/><path d="M93.768,22.54c0,0 0.555,0.559 1.332,0.125c0,0 -0.445,-0.773 -1.332,-0.125Z" style="fill:#fff;fill-rule:nonzero;"/><path d="M94.826,21.298c0,0 -0.868,-0.202 -0.999,0.89c0,0 0.788,-0.026 0.999,-0.89Z" style="fill:#fff;fill-rule:nonzero;"/><path d="M94.202,17.564c0,0 0.675,-0.583 -0.13,-1.331c0,0 -0.444,0.652 0.13,1.331Z" style="fill:#fff;fill-rule:nonzero;"/><path d="M94.429,16.224c0,0 0.175,0.769 1.063,0.812c0,0 0.033,-0.891 -1.063,-0.812Z" style="fill:#fff;fill-rule:nonzero;"/><path d="M95.677,13.975c0,0 0.767,-0.182 0.802,-1.07c0,0 -0.891,-0.025 -0.802,1.07Z" style="fill:#fff;fill-rule:nonzero;"/><path d="M95.407,13.98c0,0 0.39,-0.686 -0.237,-1.316c0,0 -0.625,0.635 0.237,1.316Z" style="fill:#fff;fill-rule:nonzero;"/><path d="M95.359,20.368c0,0 -0.937,1.932 1.557,2.823c0,0 0.361,-1.866 -1.557,-2.823Z" style="fill:#fff;fill-rule:nonzero;"/><path d="M98.567,21.55c0,0 0.139,2.143 2.747,1.686c0,0 -0.607,-1.801 -2.747,-1.686Z" style="fill:#fff;fill-rule:nonzero;"/><path d="M97.758,23.05c0,0 0.913,-1.296 -0.219,-2.68c0,0 -1.374,1.149 0.219,2.68Z" style="fill:#fff;fill-rule:nonzero;"/><path d="M96.767,20.998c0,0 0.913,-1.296 -0.218,-2.68c0,0 -1.375,1.15 0.218,2.68Z" style="fill:#fff;fill-rule:nonzero;"/><path d="M99.197,20.861c0,0 0.788,-0.575 0.402,-1.605c0,0 -1.028,0.398 -0.402,1.605Z" style="fill:#fff;fill-rule:nonzero;"/><path d="M97.877,19.335c0,0 -0.408,1.024 0.901,1.387c0,0 0.116,-0.968 -0.901,-1.387Z" style="fill:#fff;fill-rule:nonzero;"/><path d="M104.973,7.443c0,0 -1.165,-0.926 -2.525,0.06c0,0 1.003,1.351 2.525,-0.06Z" style="fill:#fff;fill-rule:nonzero;"/><path d="M106.597,4.404c0,0 -1.471,-0.23 -2.166,1.298c0,0 1.539,0.68 2.166,-1.298Z" style="fill:#fff;fill-rule:nonzero;"/><path d="M103.239,5.989c0,0 0.301,1.371 1.941,0.818c0,0 -0.57,-1.103 -1.941,-0.818Z" style="fill:#fff;fill-rule:nonzero;"/><path d="M101.455,5.935c0,0 0.301,1.371 1.941,0.818c0,0 -0.57,-1.103 -1.941,-0.818Z" style="fill:#fff;fill-rule:nonzero;"/><path d="M104.18,5.015c0,0 -0.114,-0.756 -0.969,-0.861c0,0 -0.095,0.859 0.969,0.861Z" style="fill:#fff;fill-rule:nonzero;"/><path d="M103.932,5.256c0,0 -0.631,-0.431 -1.29,0.123c0,0 0.564,0.655 1.29,-0.123Z" style="fill:#fff;fill-rule:nonzero;"/><path d="M100.057,16.843c0,0 0.793,1.392 2.393,0.234c0,0 -0.995,-1.009 -2.393,-0.234Z" style="fill:#fff;fill-rule:nonzero;"/><path d="M104.334,14.39c0,0 -1.364,-0.386 -2.197,0.979c0,0 1.377,0.818 2.197,-0.979Z" style="fill:#fff;fill-rule:nonzero;"/><path d="M100.978,15.503c0,0 0.128,1.33 1.741,0.996c0,0 -0.412,-1.108 -1.741,-0.996Z" style="fill:#fff;fill-rule:nonzero;"/><path d="M101.162,13.766c0,0 -0.189,0.8 0.818,0.924c0,0 -0.022,-0.726 -0.818,-0.924Z" style="fill:#fff;fill-rule:nonzero;"/><path d="M101.718,14.89c0,0 -0.547,-0.48 -1.234,-0.031c0,0 0.458,0.683 1.234,0.031Z" style="fill:#fff;fill-rule:nonzero;"/><path d="M90.242,28.326c0,0 -0.949,0.368 -0.372,1.481c0,0 0.728,-0.531 0.372,-1.481Z" style="fill:#fff;fill-rule:nonzero;"/><path d="M89.484,29.679c0,0 0.107,-0.893 -0.831,-1.28c0,0 -0.377,0.945 0.831,1.28Z" style="fill:#fff;fill-rule:nonzero;"/><path d="M80.631,22.917c0,0 -1.438,1.393 0.463,2.969c0,0 0.911,-1.519 -0.463,-2.969Z" style="fill:#fff;fill-rule:nonzero;"/><path d="M69.375,21.753c0,0 -0.313,-1.429 -1.96,-1.521c0,0 -0.073,1.652 1.96,1.521Z" style="fill:#fff;fill-rule:nonzero;"/><path d="M68.857,22.296c0,0 -1.153,-0.9 -2.48,0.08c0,0 0.998,1.318 2.48,-0.08Z" style="fill:#fff;fill-rule:nonzero;"/><path d="M65.081,29.62c0,0 -1.153,-0.9 -2.48,0.08c0,0 0.997,1.319 2.48,-0.08Z" style="fill:#fff;fill-rule:nonzero;"/><path d="M67.937,24.288c0,0 1.644,0.169 1.63,-1.869c0,0 -1.444,0.231 -1.63,1.869Z" style="fill:#fff;fill-rule:nonzero;"/><path d="M85.9,23.922c0,0 0.912,-1.519 -0.462,-2.969c0,0 -1.438,1.394 0.462,2.969Z" style="fill:#fff;fill-rule:nonzero;"/><path d="M83.804,22.774c0,0 1.55,-0.858 1.087,-2.801c0,0 -1.942,0.486 -1.087,2.801Z" style="fill:#fff;fill-rule:nonzero;"/><path d="M81.849,23.834c0,0 1.549,-0.857 1.086,-2.801c0,0 -1.942,0.486 -1.086,2.801Z" style="fill:#fff;fill-rule:nonzero;"/><path d="M80.183,22.325c0,0 1.43,0.051 1.919,-1.489c0,0 -1.547,-0.472 -1.919,1.489Z" style="fill:#fff;fill-rule:nonzero;"/><path d="M80.542,18.654c0,0 -1.96,-0.137 -2.036,2.132c0,0 0.337,-0.05 0.734,-0.259c0.018,0.237 0.067,0.499 0.166,0.798c0,0 1.523,-0.78 1.136,-2.671Z" style="fill:#fff;fill-rule:nonzero;"/><path d="M77.328,19.608c0,0 1.699,-0.202 1.994,-2.109c0,0 -1.915,-0.274 -1.994,2.109Z" style="fill:#fff;fill-rule:nonzero;"/><path d="M76.206,19.385c0,0 1.204,-1.216 0.247,-2.892c0,0 -1.669,0.978 -0.247,2.892Z" style="fill:#fff;fill-rule:nonzero;"/><path d="M76.102,16.318c0,0 -0.867,-0.791 -1.72,0.378c0,0 0.921,0.478 1.72,-0.378Z" style="fill:#fff;fill-rule:nonzero;"/><path d="M72.825,22.603c0,0 1.636,0.229 2.38,-1.48c0,0 -1.72,-0.726 -2.38,1.48Z" style="fill:#fff;fill-rule:nonzero;"/><path d="M74.854,23.894c0,0 -0.865,-1.655 -2.778,-0.372c0,0 1.117,1.217 2.778,0.372Z" style="fill:#fff;fill-rule:nonzero;"/><path d="M71.626,22.758c0,0 1.04,-0.119 1.225,-1.285c0,0 -1.17,-0.172 -1.225,1.285Z" style="fill:#fff;fill-rule:nonzero;"/><path d="M68.968,16.104c0,0 -1.302,-1.017 -2.802,0.09c0,0 1.126,1.49 2.802,-0.09Z" style="fill:#fff;fill-rule:nonzero;"/><path d="M70.076,15.683c0,0 -0.358,-1.613 -2.22,-1.712c0,0 -0.078,1.865 2.22,1.712Z" style="fill:#fff;fill-rule:nonzero;"/><path d="M68.38,17.069c0,0 0.926,0.735 1.703,-0.5c0,0 -0.959,-0.417 -1.703,0.5Z" style="fill:#fff;fill-rule:nonzero;"/><path d="M74.272,18.026c0,0 -1.684,0.885 -0.374,2.831c0,0 1.238,-1.14 0.374,-2.831Z" style="fill:#fff;fill-rule:nonzero;"/><path d="M71.442,10.392c0,0 -1.685,0.886 -0.374,2.832c0,0 1.238,-1.14 0.374,-2.832Z" style="fill:#fff;fill-rule:nonzero;"/><path d="M78.187,24.592c0,0 0.932,-1.738 -0.674,-3.276c0,0 -1.524,1.627 0.674,3.276Z" style="fill:#fff;fill-rule:nonzero;"/><path d="M55.581,23.891c0,0 0.327,-1.602 -1.68,-1.789c0,0 0.085,1.444 1.68,1.789Z" style="fill:#fff;fill-rule:nonzero;"/><path d="M63.935,34.218c0,0 0.637,-0.872 -0.517,-1.536c0,0 -0.345,0.891 0.517,1.536Z" style="fill:#fff;fill-rule:nonzero;"/><path d="M63.694,32.506c0,0 0.703,1.08 2.089,0.645c0,0 -0.453,-1.384 -2.089,-0.645Z" style="fill:#fff;fill-rule:nonzero;"/><path d="M59.834,37.796c0,0 0.348,1.093 1.64,1.047c0,0 -0.06,-1.295 -1.64,-1.047Z" style="fill:#fff;fill-rule:nonzero;"/><path d="M70.701,27.704c0,0 1.534,-0.616 0.574,-2.414c0,0 -1.171,0.876 -0.574,2.414Z" style="fill:#fff;fill-rule:nonzero;"/><path d="M70.086,26.981c0,0 -0.935,0.699 -0.459,1.927c0,0 1.225,-0.492 0.459,-1.927Z" style="fill:#fff;fill-rule:nonzero;"/><path d="M66.947,26.313c0,0 -1.39,-0.454 -2.304,0.919c0,0 1.386,0.901 2.304,-0.919Z" style="fill:#fff;fill-rule:nonzero;"/><path d="M64.881,26.314c0,0 -1.111,-0.363 -1.841,0.734c0,0 1.108,0.719 1.841,-0.734Z" style="fill:#fff;fill-rule:nonzero;"/><path d="M67.976,25.004c0,0 1.376,0.915 2.314,-0.895c0,0 -1.386,-0.468 -2.314,0.895Z" style="fill:#fff;fill-rule:nonzero;"/><path d="M68.551,27.452c0,0 2.228,-0.074 1.84,-2.794c0,0 -1.888,0.57 -1.84,2.794Z" style="fill:#fff;fill-rule:nonzero;"/><path d="M83.939,16.9c0,0 -1.289,-0.691 -2.43,0.499c0,0 1.206,1.131 2.43,-0.499Z" style="fill:#fff;fill-rule:nonzero;"/><path d="M78.704,15.662c0,0 0.963,0.903 1.941,-0.399c0,0 -1.03,-0.552 -1.941,0.399Z" style="fill:#fff;fill-rule:nonzero;"/><path d="M82.804,13.788c0,0 -0.248,1.635 1.789,1.72c0,0 -0.161,-1.454 -1.789,-1.72Z" style="fill:#fff;fill-rule:nonzero;"/><path d="M84.139,15.832c0,0 -1.315,-1.471 -3.31,-0.488c0,0 1.008,1.989 3.31,0.488Z" style="fill:#fff;fill-rule:nonzero;"/><path d="M100.256,25.183c0,0 -1.06,-1.007 -2.476,-0.16c0,0 0.865,1.409 2.476,0.16Z" style="fill:#fff;fill-rule:nonzero;"/><path d="M98.39,24.295c0,0 -0.847,-0.804 -1.978,-0.128c0,0 0.691,1.125 1.978,0.128Z" style="fill:#fff;fill-rule:nonzero;"/><path d="M96.077,27.101c0,0 -0.288,-1.132 -1.605,-1.162c0,0 -0.015,1.32 1.605,1.162Z" style="fill:#fff;fill-rule:nonzero;"/><path d="M92.924,21.411c0,0 -0.218,-0.856 -1.214,-0.879c0,0 -0.012,0.999 1.214,0.879Z" style="fill:#fff;fill-rule:nonzero;"/><path d="M98.458,23.223c0,0 0.332,1.622 2.275,0.998c0,0 -0.654,-1.311 -2.275,-0.998Z" style="fill:#fff;fill-rule:nonzero;"/><path d="M97.89,4.516c0,0 -0.744,1.275 0.413,2.47c0,0 1.183,-1.175 -0.413,-2.47Z" style="fill:#fff;fill-rule:nonzero;"/><path d="M102.161,5.647c0,0 0.043,-1.475 -1.544,-1.97c0,0 -0.477,1.598 1.544,1.97Z" style="fill:#fff;fill-rule:nonzero;"/><path d="M95.802,8.59c0,0 0.361,-1.866 -1.556,-2.823c0,0 -0.938,1.932 1.556,2.823Z" style="fill:#fff;fill-rule:nonzero;"/><path d="M94.392,8.533c0,0 -0.607,-1.801 -2.748,-1.686c0,0 0.139,2.143 2.748,1.686Z" style="fill:#fff;fill-rule:nonzero;"/><path d="M96.596,6.281c0,0 -1.374,1.15 0.219,2.681c0,0 0.913,-1.296 -0.219,-2.681Z" style="fill:#fff;fill-rule:nonzero;"/><path d="M99.808,4.538c0,0 -1.374,1.149 0.219,2.68c0,0 0.912,-1.296 -0.219,-2.68Z" style="fill:#fff;fill-rule:nonzero;"/><path d="M98.801,8.413c0,0 0.788,-0.575 0.402,-1.605c0,0 -1.028,0.398 -0.402,1.605Z" style="fill:#fff;fill-rule:nonzero;"/><path d="M98.382,8.275c0,0 0.116,-0.969 -0.901,-1.388c0,0 -0.409,1.024 0.901,1.388Z" style="fill:#fff;fill-rule:nonzero;"/><path d="M94.137,9.191c0,0 0.691,1.125 1.977,0.128c0,0 -0.847,-0.805 -1.977,-0.128Z" style="fill:#fff;fill-rule:nonzero;"/><path d="M99.517,9.655c0,0 -0.654,-1.311 -2.276,-0.998c0,0 0.332,1.622 2.276,0.998Z" style="fill:#fff;fill-rule:nonzero;"/><path d="M99.779,12.576c0,0 2.057,-0.256 2.403,-2.569c0,0 -2.321,-0.319 -2.403,2.569Z" style="fill:#fff;fill-rule:nonzero;"/><path d="M103.667,9.167c0,0 -0.929,-1.72 -2.912,-0.352c0,0 1.186,1.259 2.912,0.352Z" style="fill:#fff;fill-rule:nonzero;"/><path d="M101.221,6.45c0,0 -1.354,0.492 -0.569,2.085c0,0 1.045,-0.73 0.569,-2.085Z" style="fill:#fff;fill-rule:nonzero;"/><path d="M99.494,10.834c0,0 0.912,-0.243 0.924,-1.309c0,0 -1.068,0.001 -0.924,1.309Z" style="fill:#fff;fill-rule:nonzero;"/><path d="M106.172,11.74c0,0 -1.661,-0.321 -2.511,1.386c0,0 1.72,0.832 2.511,-1.386Z" style="fill:#fff;fill-rule:nonzero;"/><path d="M103.802,12.038c0,0 -1.326,-0.256 -2.005,1.106c0,0 1.373,0.666 2.005,-1.106Z" style="fill:#fff;fill-rule:nonzero;"/><path d="M103.85,8.696c0,0 0.288,1.889 2.564,1.283c0,0 -0.676,-1.549 -2.564,-1.283Z" style="fill:#fff;fill-rule:nonzero;"/><path d="M106.024,10.492c0,0 -1.955,-1.17 -3.82,0.6c0,0 1.797,1.847 3.82,-0.6Z" style="fill:#fff;fill-rule:nonzero;"/><path d="M88.554,13.974c0,0 -0.492,1.846 1.836,2.202c0,0 0,-1.691 -1.836,-2.202Z" style="fill:#fff;fill-rule:nonzero;"/><path d="M89.25,13.746c0,0 -0.001,-1.35 -1.467,-1.759c0,0 -0.393,1.475 1.467,1.759Z" style="fill:#fff;fill-rule:nonzero;"/><path d="M92.006,15.362c0,0 1.393,-0.958 0.773,-2.761c0,0 -1.8,0.642 -0.773,2.761Z" style="fill:#fff;fill-rule:nonzero;"/><path d="M91.269,15.476c0,0 0.778,-2.143 -1.314,-3.637c0,0 -1.473,2.114 1.314,3.637Z" style="fill:#fff;fill-rule:nonzero;"/><path d="M107.289,20.126c0,0 0.797,1.427 2.589,0.994c0,0 -0.455,-1.792 -2.589,-0.994Z" style="fill:#fff;fill-rule:nonzero;"/><path d="M108.986,21.693c0,0 0.636,1.14 2.068,0.794c0,0 -0.365,-1.43 -2.068,-0.794Z" style="fill:#fff;fill-rule:nonzero;"/><path d="M106.595,24.326c0,0 1.218,-1.389 -0.648,-2.696c0,0 -0.725,1.466 0.648,2.696Z" style="fill:#fff;fill-rule:nonzero;"/><path d="M109.28,23.464c0,0 0.249,-2.48 -2.823,-2.452c0,0 0.352,2.176 2.823,2.452Z" style="fill:#fff;fill-rule:nonzero;"/><path d="M110.405,32.557c0,0 -2.197,-0.306 -3.194,1.99c0,0 2.311,0.973 3.194,-1.99Z" style="fill:#fff;fill-rule:nonzero;"/><path d="M110.186,27.425c0,0 -2.194,-0.443 -3.373,1.693c0,0 0.822,0.437 1.725,0.132c-0.138,0.412 -0.211,0.898 -0.148,1.483c0,0 2.491,-0.295 1.796,-3.308Z" style="fill:#fff;fill-rule:nonzero;"/><path d="M110.189,31.583c0,0 -1.568,-0.983 -3.111,0.422c0,0 1.425,1.53 3.111,-0.422Z" style="fill:#fff;fill-rule:nonzero;"/><path d="M111.447,25.978c0,0 -1.409,-0.884 -2.797,0.379c0,0 1.282,1.376 2.797,-0.379Z" style="fill:#fff;fill-rule:nonzero;"/><path d="M108.558,24.612c0,0 1.718,1.845 3.751,-0.507c0,0 -1.891,-1.186 -3.751,0.507Z" style="fill:#fff;fill-rule:nonzero;"/><path d="M107.859,32.866c0,0 -1.568,-0.983 -3.112,0.421c0,0 1.426,1.531 3.112,-0.421Z" style="fill:#fff;fill-rule:nonzero;"/><path d="M102.689,40.224c0,0 -0.544,-1.769 -2.631,-1.714c0,0 0.079,2.091 2.631,1.714Z" style="fill:#fff;fill-rule:nonzero;"/><path d="M106.927,34.907c0,0 -2.069,-0.314 -2.176,2.263c0,0 1.84,-0.203 2.176,-2.263Z" style="fill:#fff;fill-rule:nonzero;"/><path d="M104.368,33.314c0,0 -1.792,1.079 -0.231,3.131c0,0 1.287,-1.33 0.231,-3.131Z" style="fill:#fff;fill-rule:nonzero;"/><path d="M101.174,34.02c0,0 -0.432,2.047 2.135,2.303c0,0 -0.098,-1.848 -2.135,-2.303Z" style="fill:#fff;fill-rule:nonzero;"/><path d="M102.976,33.756c0,0 0.792,-0.818 0.142,-1.926c0,0 -1.103,0.664 -0.142,1.926Z" style="fill:#fff;fill-rule:nonzero;"/><path d="M102.466,33.682c0,0 -0.059,-1.138 -1.313,-1.417c0,0 -0.266,1.259 1.313,1.417Z" style="fill:#fff;fill-rule:nonzero;"/><path d="M107.547,30.041c0,0 -0.719,-0.883 -1.896,-0.369c0,0 0.528,1.173 1.896,0.369Z" style="fill:#fff;fill-rule:nonzero;"/><path d="M107.412,30.538c0,0 -1.136,-0.075 -1.562,1.137c0,0 1.219,0.412 1.562,-1.137Z" style="fill:#fff;fill-rule:nonzero;"/><path d="M106.328,25.285c0,0 0.527,1.174 1.895,0.369c0,0 -0.719,-0.883 -1.895,-0.369Z" style="fill:#fff;fill-rule:nonzero;"/><path d="M106.526,27.288c0,0 1.219,0.413 1.562,-1.137c0,0 -1.136,-0.075 -1.562,1.137Z" style="fill:#fff;fill-rule:nonzero;"/><path d="M103.858,37.009c0,0 -1.98,-1.049 -3.721,0.785c0,0 1.858,1.723 3.721,-0.785Z" style="fill:#fff;fill-rule:nonzero;"/><path d="M101.053,31.067c0,0 -1.98,-1.05 -3.72,0.785c0,0 1.857,1.723 3.72,-0.785Z" style="fill:#fff;fill-rule:nonzero;"/><path d="M96.131,32.608c0,0 0.745,2.422 3.613,1.185c0,0 -1.188,-1.9 -3.613,-1.185Z" style="fill:#fff;fill-rule:nonzero;"/><path d="M101.215,36.194c0,0 -1.187,-1.901 -3.613,-1.186c0,0 0.745,2.422 3.613,1.186Z" style="fill:#fff;fill-rule:nonzero;"/><path d="M99.419,38.4c0,0 -0.031,-1.812 -2.009,-2.326c0,0 -0.493,1.988 2.009,2.326Z" style="fill:#fff;fill-rule:nonzero;"/><path d="M101.695,30.72c0,0 1.93,-0.807 0.684,-3.065c0,0 -1.466,1.13 -0.684,3.065Z" style="fill:#fff;fill-rule:nonzero;"/><path d="M104.708,30.752c0,0 0.972,-1.852 -1.428,-2.796c0,0 -0.409,1.805 1.428,2.796Z" style="fill:#fff;fill-rule:nonzero;"/><path d="M106.307,28.367c0,0 -0.589,-1.674 -2.56,-0.729c0,0 0.884,1.296 2.56,0.729Z" style="fill:#fff;fill-rule:nonzero;"/><path d="M103.225,27.329c0,0 2.238,-0.131 2.772,-2.603c0,0 -2.482,-0.507 -2.772,2.603Z" style="fill:#fff;fill-rule:nonzero;"/><path d="M111.595,31.028c0.003,-0.013 0.008,-0.021 0.01,-0.034c0.001,0.012 0,0.021 0.001,0.034c-0.004,0 -0.011,0 -0.011,0Zm1.032,-1.723c0.045,-0.355 0.025,-0.76 -0.12,-1.224c0,0 -1.589,0.666 -0.901,2.951c0,0.004 0,0.007 0.001,0.011c0.088,0.001 1.829,-0.002 2.433,-1.915c0,0 -0.734,-0.215 -1.413,0.177Z" style="fill:#fff;fill-rule:nonzero;"/><path d="M110.917,27.687c0,0 1.423,0.539 2.441,-0.844c0,0 -1.398,-1.003 -2.441,0.844Z" style="fill:#fff;fill-rule:nonzero;"/><path d="M113.006,31.653c0,0 -1.257,-0.902 -2.193,0.758c0,0 1.279,0.485 2.193,-0.758Z" style="fill:#fff;fill-rule:nonzero;"/><path d="M113.363,33.045c0,0 -1.685,-1.209 -2.941,1.017c0,0 1.716,0.649 2.941,-1.017Z" style="fill:#fff;fill-rule:nonzero;"/><path d="M113.298,28.503c0,0 0.722,0.595 1.589,-0.01c0,0 -0.617,-0.861 -1.589,0.01Z" style="fill:#fff;fill-rule:nonzero;"/><path d="M113.326,28.08c0,0 0.929,-0.124 1.075,-1.17c0,0 -1.05,-0.135 -1.075,1.17Z" style="fill:#fff;fill-rule:nonzero;"/><path d="M126.132,28.981c0,0 0.724,0.595 1.59,-0.01c0,0 -0.616,-0.861 -1.59,0.01Z" style="fill:#fff;fill-rule:nonzero;"/><path d="M127.235,27.388c0,0 -1.049,-0.135 -1.074,1.17c0,0 0.929,-0.124 1.074,-1.17Z" style="fill:#fff;fill-rule:nonzero;"/><path d="M119.59,36.888c0,0 -0.739,-1.033 -1.907,0.012c0,0 0.867,0.715 1.907,-0.012Z" style="fill:#fff;fill-rule:nonzero;"/><path d="M117.716,36.392c0,0 1.115,-0.148 1.291,-1.405c0,0 -1.261,-0.161 -1.291,1.405Z" style="fill:#fff;fill-rule:nonzero;"/><path d="M121.865,41.945c0,0 0.518,-1.161 -0.975,-1.641c0,0 -0.178,1.111 0.975,1.641Z" style="fill:#fff;fill-rule:nonzero;"/><path d="M123.211,40.48c0,0 -0.498,-1.169 -1.866,-0.403c0,0 0.692,0.887 1.866,0.403Z" style="fill:#fff;fill-rule:nonzero;"/><path d="M115.053,32.14c0,0 -0.616,-0.861 -1.589,0.01c0,0 0.723,0.595 1.589,-0.01Z" style="fill:#fff;fill-rule:nonzero;"/><path d="M113.493,31.727c0,0 0.929,-0.124 1.075,-1.17c0,0 -1.05,-0.135 -1.075,1.17Z" style="fill:#fff;fill-rule:nonzero;"/><path d="M112.114,22.892c0,0 0.998,-1.149 0.054,-2.583c0,0 -1.427,0.964 -0.054,2.583Z" style="fill:#fff;fill-rule:nonzero;"/><path d="M117.077,29.491c0,0 0.038,-1.521 -1.605,-2.022c0,0 -0.483,1.651 1.605,2.022Z" style="fill:#fff;fill-rule:nonzero;"/><path d="M116.752,29.824c0,0 -0.923,-0.902 -2.182,-0.173c0,0 0.746,1.254 2.182,0.173Z" style="fill:#fff;fill-rule:nonzero;"/><path d="M117.224,29.988c0,0 -1.784,0.469 -1.813,2.549c0,0 2.083,0.006 1.813,-2.549Z" style="fill:#fff;fill-rule:nonzero;"/><path d="M115.142,16.819c0,0 0.208,-1.448 -1.301,-2.114c0,0 -0.65,1.521 1.301,2.114Z" style="fill:#fff;fill-rule:nonzero;"/><path d="M114.786,14.782c0,0 0.168,-1.156 -1.038,-1.687c0,0 -0.518,1.214 1.038,1.687Z" style="fill:#fff;fill-rule:nonzero;"/><path d="M117.916,14.688c0,0 -1.62,0.326 -1.004,2.269c0,0 1.311,-0.649 1.004,-2.269Z" style="fill:#fff;fill-rule:nonzero;"/><path d="M116.214,16.64c0,0 0.931,-1.738 -0.675,-3.276c0,0 -1.523,1.627 0.675,3.276Z" style="fill:#fff;fill-rule:nonzero;"/><path d="M78.227,15.652c0,0 1.35,-0.42 0.656,-2.019c0,0 -1.058,0.667 -0.656,2.019Z" style="fill:#fff;fill-rule:nonzero;"/><path d="M86.148,24.442c0,0 0.555,1.558 2.389,0.669c0,0 -0.83,-1.204 -2.389,-0.669Z" style="fill:#fff;fill-rule:nonzero;"/><path d="M88.262,25.809c0,0 -1.407,-0.398 -2.266,1.01c0,0 1.42,0.845 2.266,-1.01Z" style="fill:#fff;fill-rule:nonzero;"/><path d="M87.81,28.181c0,0 1.346,-0.394 0.683,-1.99c0,0 -1.06,0.643 -0.683,1.99Z" style="fill:#fff;fill-rule:nonzero;"/><path d="M88.759,25.793c0,0 0.01,1.77 1.937,2.296c0,0 0.504,-1.937 -1.937,-2.296Z" style="fill:#fff;fill-rule:nonzero;"/><path d="M94.456,27.345c0,0 0.517,-1.57 -1.477,-1.993c0,0 -0.083,1.46 1.477,1.993Z" style="fill:#fff;fill-rule:nonzero;"/><path d="M93.625,24.969c0,0 0.867,1.178 2.409,0.593c0,0 -0.604,-1.539 -2.409,-0.593Z" style="fill:#fff;fill-rule:nonzero;"/><path d="M93.677,24.526c0,0 1.232,0.142 1.76,-1.153c0,0 -1.304,-0.514 -1.76,1.153Z" style="fill:#fff;fill-rule:nonzero;"/><path d="M115.176,10.101c0,0 -0.085,-0.887 -1.16,-0.664c0,0 0.274,0.739 1.16,0.664Z" style="fill:#fff;fill-rule:nonzero;"/><path d="M115.492,8.743c0,0 -0.708,-0.542 -1.277,0.398c0,0 0.728,0.302 1.277,-0.398Z" style="fill:#fff;fill-rule:nonzero;"/><path d="M116.363,8.117c0,0 -1.653,1.372 0.25,3.214c0,0 1.099,-1.55 -0.25,-3.214Z" style="fill:#fff;fill-rule:nonzero;"/><path d="M118.794,10.519c0,0 -0.759,2.009 1.805,2.672c0,0 0.191,-1.891 -1.805,-2.672Z" style="fill:#fff;fill-rule:nonzero;"/><path d="M118.346,9.02c0,0 -1.726,0.479 -0.909,2.53c0,0 1.367,-0.802 0.909,-2.53Z" style="fill:#fff;fill-rule:nonzero;"/><path d="M120.682,8.858c0,0 -1.1,-0.063 -1.029,1.295c0,0 0.956,-0.198 1.029,-1.295Z" style="fill:#fff;fill-rule:nonzero;"/><path d="M119.328,9.853c0,0 0.507,-0.833 -0.246,-1.635c0,0 -0.795,0.763 0.246,1.635Z" style="fill:#fff;fill-rule:nonzero;"/><path d="M117.499,12.946c0,0 -0.439,-1.082 -1.748,-0.934c0,0 0.164,1.31 1.748,0.934Z" style="fill:#fff;fill-rule:nonzero;"/><path d="M119.662,13.847c0,0 -0.053,-1.464 -1.659,-1.849c0,0 -0.368,1.614 1.659,1.849Z" style="fill:#fff;fill-rule:nonzero;"/><path d="M115.19,10.886c0,0 -0.975,-1.007 -2.079,0.321c0,0 1.063,0.639 2.079,-0.321Z" style="fill:#fff;fill-rule:nonzero;"/><path d="M110.633,15.901c0,0 -0.774,0.443 -0.127,1.332c0,0 0.561,-0.556 0.127,-1.332Z" style="fill:#fff;fill-rule:nonzero;"/><path d="M110.154,17.173c0,0 -0.025,-0.788 -0.888,-1c0,0 -0.203,0.868 0.888,1Z" style="fill:#fff;fill-rule:nonzero;"/><path d="M112.491,17.326c0,0 0.146,-1.231 -1.149,-1.761c0,0 -0.516,1.303 1.149,1.761Z" style="fill:#fff;fill-rule:nonzero;"/><path d="M93.102,21.675c0,0 -1.587,1.22 0.121,3.002c0,0 1.078,-1.404 -0.121,-3.002Z" style="fill:#fff;fill-rule:nonzero;"/><path d="M111.087,1.427c0,0 -0.84,-1.441 -2.494,-0.221c0,0 1.046,1.041 2.494,0.221Z" style="fill:#fff;fill-rule:nonzero;"/><path d="M109.327,2.666c0,0 -0.159,-1.661 -2.171,-1.245c0,0 0.514,1.383 2.171,1.245Z" style="fill:#fff;fill-rule:nonzero;"/><path d="M110.623,4.684c0,0 -0.445,-0.773 -1.332,-0.125c0,0 0.556,0.559 1.332,0.125Z" style="fill:#fff;fill-rule:nonzero;"/><path d="M110.349,3.317c0,0 -0.868,-0.201 -0.999,0.89c0,0 0.789,-0.026 0.999,-0.89Z" style="fill:#fff;fill-rule:nonzero;"/><path d="M112.44,5.21c0,0 0.361,-1.866 -1.557,-2.823c0,0 -0.937,1.932 1.557,2.823Z" style="fill:#fff;fill-rule:nonzero;"/><path d="M116.837,5.256c0,0 -0.606,-1.801 -2.746,-1.687c0,0 0.138,2.143 2.746,1.687Z" style="fill:#fff;fill-rule:nonzero;"/><path d="M113.282,5.069c0,0 0.912,-1.296 -0.219,-2.68c0,0 -1.374,1.149 0.219,2.68Z" style="fill:#fff;fill-rule:nonzero;"/><path d="M112.072,0.337c0,0 -1.374,1.15 0.218,2.681c0,0 0.913,-1.296 -0.218,-2.681Z" style="fill:#fff;fill-rule:nonzero;"/><path d="M115.122,1.275c0,0 -1.027,0.399 -0.402,1.605c0,0 0.789,-0.575 0.402,-1.605Z" style="fill:#fff;fill-rule:nonzero;"/><path d="M114.301,2.742c0,0 0.117,-0.969 -0.9,-1.388c0,0 -0.409,1.024 0.9,1.388Z" style="fill:#fff;fill-rule:nonzero;"/><path d="M118.884,7.202c0,0 -1.06,-1.007 -2.476,-0.16c0,0 0.864,1.409 2.476,0.16Z" style="fill:#fff;fill-rule:nonzero;"/><path d="M111.936,6.186c0,0 0.691,1.125 1.977,0.128c0,0 -0.847,-0.804 -1.977,-0.128Z" style="fill:#fff;fill-rule:nonzero;"/><path d="M107.233,2.552c0,0 -0.011,0.998 1.214,0.878c0,0 -0.218,-0.856 -1.214,-0.878Z" style="fill:#fff;fill-rule:nonzero;"/><path d="M111.558,7.582c0,0 -0.605,-1.539 -2.409,-0.594c0,0 0.866,1.178 2.409,0.594Z" style="fill:#fff;fill-rule:nonzero;"/><path d="M110.96,5.393c0,0 -1.304,-0.515 -1.76,1.152c0,0 1.232,0.142 1.76,-1.152Z" style="fill:#fff;fill-rule:nonzero;"/><path d="M108.625,3.694c0,0 -1.586,1.221 0.121,3.002c0,0 1.079,-1.404 -0.121,-3.002Z" style="fill:#fff;fill-rule:nonzero;"/><path d="M107.452,42.792c0,0 0.373,1.232 1.833,0.611c0,0 -0.599,-0.968 -1.833,-0.611Z" style="fill:#fff;fill-rule:nonzero;"/><path d="M107.391,44.804c0,0 1.156,0.567 1.696,-0.926c0,0 -1.117,-0.221 -1.696,0.926Z" style="fill:#fff;fill-rule:nonzero;"/><path d="M101.919,47.026c0,0 2.018,-0.551 1.073,-2.951c0,0 -1.599,0.931 -1.073,2.951Z" style="fill:#fff;fill-rule:nonzero;"/><path d="M103.687,44.968c0,0 -0.638,1.737 1.056,2.957c0,0 1.203,-1.711 -1.056,-2.957Z" style="fill:#fff;fill-rule:nonzero;"/><path d="M107.035,45.846c0,0 -0.368,-1.736 -2.445,-1.053c0,0 0.709,1.4 2.445,1.053Z" style="fill:#fff;fill-rule:nonzero;"/><path d="M104.113,44.419c0,0 2.236,0.158 3.084,-2.223c0,0 -2.396,-0.824 -3.084,2.223Z" style="fill:#fff;fill-rule:nonzero;"/><path d="M116.638,24.658c0,0 -1.184,1.825 1.21,3.032c0,0 0.595,-1.83 -1.21,-3.032Z" style="fill:#fff;fill-rule:nonzero;"/><path d="M116.638,39.725c0,0 -1.184,1.825 1.21,3.032c0,0 0.595,-1.83 -1.21,-3.032Z" style="fill:#fff;fill-rule:nonzero;"/><path d="M114.772,25.463c0,0 -0.571,-1.153 -1.909,-0.299c0,0 0.751,0.856 1.909,0.299Z" style="fill:#fff;fill-rule:nonzero;"/><path d="M114.499,23.469c0,0 -1.234,-0.367 -1.519,1.194c0,0 1.138,0.032 1.519,-1.194Z" style="fill:#fff;fill-rule:nonzero;"/><path d="M124.461,23.448c0,0 -1.9,0.877 -0.57,3.088c0,0 1.424,-1.183 0.57,-3.088Z" style="fill:#fff;fill-rule:nonzero;"/><path d="M122.98,26.268c0,0 0.342,-1.819 -1.53,-2.741c0,0 -0.904,1.887 1.53,2.741Z" style="fill:#fff;fill-rule:nonzero;"/><path d="M122.525,26.603c0,0 -0.931,-1.262 -2.586,-0.633c0,0 0.651,1.65 2.586,0.633Z" style="fill:#fff;fill-rule:nonzero;"/><path d="M120.384,29.596c0,0 2.499,0.415 2.673,-2.703c0,0 -2.23,0.214 -2.673,2.703Z" style="fill:#fff;fill-rule:nonzero;"/><path d="M119.098,71.524c-3.548,-0.064 -7.001,-0.761 -8.446,-2.207c-1.833,-1.833 -2.847,-2.702 -7.991,-1.826c-4.473,0.761 -5.477,-2.576 -5.18,-6.041c0.064,-0.74 0.495,-1.188 0.446,0.049c-0.29,7.255 5.936,3.966 9.306,4.113c3.37,0.146 3.722,2.5 5.792,3.759c3.911,2.376 9.224,0.275 9.128,-0.156c-0.156,-0.702 -2.34,0.624 -5.383,0.078c-2.644,-0.475 -3.92,-2.167 -5.824,-3.584c-1.906,-1.416 -2.646,-2.01 -5.041,-1.903c-2.681,0.119 -4.562,0.614 -5.008,-1.713c-0.874,-4.563 -4.455,-6.138 -2.475,-9.158c1.374,-2.095 1.202,-3.746 1.535,-6.931c0.188,-1.802 1.287,-0.891 3.408,-3.298c1.853,-2.103 2.686,-0.879 5.129,-1.612c2.442,-0.732 2.392,-1.465 3.37,-3.321c0.976,-1.856 3.865,-2.823 3.815,-1.166c-0.044,1.442 0.717,0.982 0.629,2.24c-0.061,0.884 1.687,1.005 2.779,0.119c0.808,-0.655 1.572,0.241 1.572,0.241c0,0 0.219,-0.874 -0.873,-0.918c-0.661,-0.026 -1.595,0.852 -2.185,0.437c-0.514,-0.362 -0.219,-1.197 -0.463,-1.686c-0.244,-0.488 -0.391,-1.758 -0.195,-2.344c0.195,-0.586 1.709,-1.368 2.539,-1.954c0.83,-0.586 2.784,-1.465 3.615,-1.856c0.831,-0.39 1.612,-1.367 2.1,-2.491c0.488,-1.123 1.339,-1.4 0.977,-1.514c-0.329,-0.103 -1.189,0.245 -1.91,1.906c-0.425,0.978 -1.289,1.31 -2.583,1.757c-1.199,0.414 -3.796,-0.206 -3.196,-2.434c0.09,-0.332 -0.167,-0.392 -0.353,-0.042c-0.162,0.302 -0.323,0.716 -0.359,1.207c-0.128,1.718 1.619,1.434 1.661,2.051c0.034,0.509 -0.631,0.999 -1.758,1.319c-2.305,0.653 -1.905,1.856 -3.028,2.149c-1.124,0.293 -1.759,0.195 -3.225,0.83c-1.464,0.635 -2.55,3.156 -4.15,4.054c-2.621,1.47 -4.309,0.518 -6.819,1.751c-1.6,0.787 -3.322,3.37 -3.322,3.37c0,0 -0.348,-0.064 0.093,-1.502c1.065,-3.469 -1.316,-5.828 -2.163,-9.48c-0.766,-3.301 2.004,-4.091 3.174,-4.298c2.045,-0.361 4.988,-2.633 6.545,-6.887c0.211,-0.575 0.512,-3.167 0.147,-4.493c-0.297,-1.079 1.737,1.627 5.617,1.465c1.361,-0.057 2.686,-0.391 4.249,-1.319c1.563,-0.928 2.606,-0.511 2.129,-0.878c-0.44,-0.341 -1.69,-0.294 -2.91,0.341c-1.221,0.635 -2.799,1.36 -3.468,0.733c-1.932,-1.81 -5.796,-1.564 -3.761,-3.126c2.353,-1.808 0.896,-4.741 2.348,-5.74c1.039,-0.714 2.536,0.074 3.66,0.025c1.122,-0.048 0.83,-1.074 0.976,-1.563c0.146,-0.488 0.293,-0.683 1.123,-0.927c0.831,-0.245 1.075,-1.124 1.075,-1.124c0.135,-0.393 -0.795,0.733 -2.246,0.879c-0.708,0.072 -0.343,1.172 -1.076,1.612c-0.732,0.44 -2.024,-0.303 -2.929,-0.098c-1.643,0.374 -2.379,0.569 -3.175,-0.928c-0.422,-0.792 0.733,-0.878 0.928,-1.416c0.126,-0.347 0.149,-0.81 -0.16,-0.95c-0.405,-0.033 0.223,1.006 -1.452,1.683c-0.955,0.386 -0.196,1.318 0.83,2.149c1.026,0.83 -0.238,2.152 0.244,4.347c0.252,1.145 -2.002,1.611 -2.686,2.344c-0.684,0.733 -1.465,1.465 -1.025,3.175c0.439,1.709 -0.782,4.151 -2.198,6.056c-1.417,1.905 -5.869,3.696 -7.536,2.634c-1.042,-0.664 -1.354,-4.246 -2.135,-7.469c-0.782,-3.224 2.589,-4.201 3.174,-4.494c0.587,-0.293 1.221,-0.586 1.612,0.245c0.391,0.83 0.141,1.265 1.569,1.417c0.768,0.081 1.19,1.212 1.46,1.025c0.204,-0.142 0.048,-1.124 -1.075,-1.319c-1.123,-0.195 -1.026,-1.465 -1.612,-2.247c-0.586,-0.781 -1.709,0.196 -2.1,0.098c-0.391,-0.098 0.206,-0.588 0.391,-2.296c0.296,-2.728 -0.354,-2.035 -0.354,-2.035c0,0 -0.259,0.194 -0.525,3.696c-0.126,1.657 -1.807,1.221 -3.468,2.491c-1.661,1.27 -1.026,2.246 -0.586,3.663c0.439,1.416 0.293,2.393 -0.88,2.1c-1.172,-0.293 -2.002,-3.419 -2.393,-4.591c-0.39,-1.172 -0.928,-3.565 -0.928,-3.565c0,0 -0.244,-0.977 -0.098,-1.759c0.147,-0.781 1.13,-0.927 1.347,-1.949c0.326,-1.532 -0.467,-1.372 -0.467,-1.372c0.341,0.586 0.293,1.368 -0.733,2.1c-0.933,0.667 -0.488,1.751 -0.856,1.761c-0.282,-0.043 -0.179,-0.607 -1.488,-1.663c-1.515,-1.221 -3.77,-1.04 -4.591,-1.27c-1.041,-0.292 -0.391,-1.416 -0.391,-1.416c-1.602,1.298 -0.586,2.295 2.442,2.588c3.028,0.293 3.484,2.436 3.956,3.809c0.851,2.475 0.223,2.389 0.223,2.389c-2.402,0.606 -1.818,2.178 -2.519,2.105c-0.683,-0.071 -0.64,-1.672 -1.701,-2.668c-0.7,-0.657 -3.606,-0.776 -4.675,-1.601c-0.476,-0.368 -0.627,0.13 -0.194,0.454c0.932,0.699 2.81,1.08 4.275,1.764c1.465,0.683 0.635,1.611 1.758,2.539c1.124,0.928 2.393,-1.172 3.175,-1.465c0.781,-0.293 0.928,1.612 1.514,3.712c0.586,2.1 2.638,1.71 3.712,2.589c1.074,0.879 2.306,5.525 1.985,8.11c-0.252,2.034 0.353,3.073 0.287,3.618c-0.107,0.775 -2.249,-4.354 -7.226,-4.472c-1.711,-0.041 -2.96,-0.829 -3.55,-1.505c-0.921,-1.055 -1.129,-3.782 -1.798,-4.572c-0.668,-0.79 -1.397,-0.79 -3.949,-0.85c-2.552,-0.061 -3.768,-0.426 -4.679,-2.006c-0.912,-1.579 1.542,-2.426 1.64,-4.314c0.051,-0.98 -1.667,-1.2 -2.014,-3.667c-0.163,-1.162 -0.842,-0.679 -0.433,0.736c0.26,0.896 1.018,1.255 1.233,2.506c0.175,1.023 -0.851,1.701 -1.277,2.309c-0.425,0.607 -0.79,2.187 0.851,4.496c1.64,2.309 6.682,0.449 7.656,1.702c2.231,2.866 0.867,2.823 -2.43,2.795c-2.527,-0.022 -2.721,1.99 -4.929,2.055c-1.656,0.049 -3.582,-1.892 -4.125,-2.055c-1.215,-0.365 -2.552,0.729 -3.585,0.85c-1.033,0.122 -2.066,-0.79 -2.37,-1.519c-0.304,-0.729 -1.094,-1.944 -1.398,-2.309c-0.304,-0.364 -0.872,-0.808 -1.905,-0.991c-1.033,-0.182 -2.227,-0.953 -2.227,-0.953c0,0 1.416,1.361 2.827,2.02c1.125,0.527 1.759,2.398 2.61,3.978c0.85,1.58 2.341,0.625 3.86,0.443c1.52,-0.182 1.58,-0.669 3.16,0.243c1.58,0.911 1.792,1.586 1.641,1.944c-0.998,2.353 -2.538,0.828 -3.466,3.219c-0.562,1.45 -1.012,2.295 -1.774,2.51c-2.294,0.65 -2.576,1.472 -2.576,1.472c0,0 -0.065,0.606 1.104,-0.346c1.222,-0.996 1.932,-0.896 2.9,-1.169c1.137,-0.32 0.956,-1.128 1.563,-1.128c0.608,0 1.597,1.15 1.272,2.383c-0.111,0.424 -0.476,0.649 -0.844,1.191c-0.445,0.655 -0.367,1.469 -0.367,1.469c0.389,0.111 0.237,-0.733 1.038,-1.296c1.078,-0.758 1.393,-1.985 0.42,-3.079c-0.972,-1.094 0.573,-2.419 0.973,-3.342c0.836,-1.933 3.26,-2.301 4.126,-3.621c1.134,-1.73 4.956,-0.52 7.748,1.125c1.775,1.046 1.952,1.44 1.71,1.926c-0.243,0.486 -0.449,1.558 -0.412,2.597c0.087,2.403 -2.077,2.489 -2.66,3.685c-0.496,1.016 -0.218,1.899 -0.218,1.899c0,0 0.346,0.514 0.346,-0.519c0,-1.034 0.529,-1.661 1.695,-1.988c1.249,-0.35 1.336,-0.607 1.458,-2.066c0.122,-1.458 0.364,-3.22 1.459,-3.828c1.093,-0.607 2.977,-0.911 4.374,1.884c1.398,2.795 -0.379,6.423 -1.458,8.081c-5.01,7.698 -1.941,8.965 -0.563,14.718c1.618,6.758 -1.338,10.964 -12.533,11.287c-5.022,0.144 -7.209,2.564 -6.536,3.648c6.997,-2.837 16.169,-4.561 26.218,-4.561c11.67,0 22.164,2.32 29.434,6.014c1.122,-1.379 -1.337,-4.038 -5.512,-4.112Z" style="fill:#fff;fill-rule:nonzero;"/></g></svg>