<?xml version="1.0" encoding="UTF-8" standalone="no"?><!DOCTYPE svg PUBLIC "-//W3C//DTD SVG 1.1//EN" "http://www.w3.org/Graphics/SVG/1.1/DTD/svg11.dtd"><svg width="100%" height="100%" viewBox="0 0 218 100" version="1.1" xmlns="http://www.w3.org/2000/svg" xmlns:xlink="http://www.w3.org/1999/xlink" xml:space="preserve" xmlns:serif="http://www.serif.com/" style="fill-rule:evenodd;clip-rule:evenodd;stroke-linejoin:round;stroke-miterlimit:2;"><g><path d="M10.822,74.256c0,0.612 0,1.071 -0.031,1.315c0,0.276 -0.062,0.46 -0.153,0.582c-0.245,0.214 -0.673,0.214 -1.224,0.214c-0.612,0 -1.255,-0.03 -1.622,0.337c-0.367,0.336 -0.337,0.857 -0.337,2.05l0,13.619c0,1.101 0.092,1.804 -0.643,1.866c-0.795,0.031 -1.56,0.031 -2.295,0c-0.795,-0.031 -0.673,-0.765 -0.673,-1.683l0,-14.108c0,-1.04 0,-1.438 -0.275,-1.744c-0.306,-0.337 -0.919,-0.337 -1.53,-0.337c-0.337,0 -0.582,0 -0.705,-0.03c-0.612,-0.031 -0.826,-0.184 -0.856,-0.796c-0.031,-0.642 -0.031,-1.346 0,-2.05c0,-0.245 0.092,-0.429 0.183,-0.52c0.245,-0.214 0.613,-0.154 1.316,-0.154l7.345,0c1.438,0 1.5,0 1.5,1.439Z" style="fill:#231f20;fill-rule:nonzero;"/><path d="M26.371,74.286l0,18.27c0,1.621 -0.092,1.683 -1.744,1.683c-0.52,0 -0.918,0 -1.193,-0.031c-0.766,-0.062 -0.674,-0.734 -0.674,-1.56l-0.031,-5.326c0,-0.52 -0.03,-0.948 -0.122,-1.253c-0.245,-0.857 -1.561,-0.735 -2.448,-0.674c-0.887,0.062 -0.796,0.857 -0.796,1.713l0,5.57c0,1.439 -0.122,1.561 -1.622,1.561c-1.04,0 -1.56,0.031 -1.805,-0.214c-0.215,-0.245 -0.215,-0.644 -0.215,-1.745l0,-18.024c0,-0.765 0.062,-1.194 0.215,-1.347c0.306,-0.275 2.142,-0.245 2.723,-0.183c0.827,0.061 0.704,0.765 0.704,1.683l0,5.08c0,0.979 -0.061,1.591 0.275,1.928c0.368,0.336 1.439,0.336 2.235,0.214c0.918,-0.092 0.856,-1.04 0.856,-1.928l0,-2.724c0,-1.193 0,-2.111 0.031,-2.723c0,-0.765 0.061,-1.194 0.214,-1.347c0.276,-0.275 2.112,-0.245 2.693,-0.183c0.826,0.061 0.704,0.765 0.704,1.56Z" style="fill:#231f20;fill-rule:nonzero;"/><path d="M42.074,91.27c0.061,0.796 0.061,1.561 -0.031,2.295c-0.061,0.736 -0.795,0.674 -1.438,0.674l-6.641,0c-0.428,0 -0.949,0 -1.224,-0.245c-0.275,-0.245 -0.245,-0.642 -0.245,-1.776l0,-17.809c0,-1.531 0.031,-1.592 1.531,-1.592l6.61,0c0.704,0 1.101,0.092 1.255,0.215c0.275,0.275 0.244,1.805 0.183,2.509c-0.061,0.735 -0.704,0.673 -1.591,0.673l-3.03,0c-1.01,0.031 -1.286,0.337 -1.346,1.286c-0.031,1.04 -0.031,2.05 0.03,3.029c0,0.398 0.123,0.704 0.275,0.888c0.368,0.336 1.041,0.306 1.99,0.306c0.489,0 0.856,0 1.071,0.03c0.735,0 0.918,0.215 0.949,0.949c0.03,0.643 0.03,1.286 -0.031,1.928c0,0.429 -0.245,0.643 -0.673,0.673c-0.46,0.031 -1.163,0.031 -2.051,0.031c-1.163,0 -1.469,0.153 -1.53,1.468c-0.061,0.734 -0.061,1.561 -0.03,2.51c0.06,0.979 0.336,1.285 1.346,1.316l2.999,0c0.918,0.031 1.53,-0.061 1.622,0.642Z" style="fill:#231f20;fill-rule:nonzero;"/><path d="M66.999,81.882l-0.258,0c0.301,11.656 0.301,12.169 -2.827,14.74c-1.586,1.33 -3.943,1.8 -6.128,1.5c-0.301,-0.043 -0.601,-0.085 -0.729,-0.129c-0.386,-0.084 -0.386,0.215 -0.128,0.344c0.213,0.171 0.428,0.258 0.685,0.385c0.771,0.342 1.585,0.515 2.314,0.515c1.843,0 3.471,-0.515 4.8,-1.585c3.428,-2.785 3.385,-3.601 3.385,-13.585c0,-1.113 0,-1.585 -0.343,-1.928c-0.128,-0.129 -0.385,-0.257 -0.771,-0.257Z" style="fill:#838d4a;fill-rule:nonzero;"/><path d="M66.185,79.439c0.128,0.128 0.214,0.258 0.3,0.386l0.299,0c1.286,0 1.286,-1.157 1.286,-2.4l0,-1.414c0,-1.628 -0.342,-2.871 -1.371,-4.242l-0.343,-0.386c0.385,1.328 0.343,1.671 0.343,3.9c0,1.157 0.428,3.042 -1.757,3.171c-0.386,0 -0.729,0.043 -1.072,0.043l-0.77,0l0,0.428c0.857,0 1.456,0 1.799,0.043c0.471,0 0.986,0.214 1.286,0.471Z" style="fill:#838d4a;fill-rule:nonzero;"/><path d="M57.357,90.194c0.214,0.686 0.643,1.029 1.114,1.072c-0.043,-0.343 -0.043,-0.729 -0.043,-1.156l0,-11.999c0,-1.886 -0.128,-4.371 1.029,-4.971c-0.3,-0.257 -0.643,-0.343 -0.986,-0.3c-0.9,0.129 -1.414,1.157 -1.414,3.129l0,11.998c0,0.942 0.085,1.628 0.3,2.184l0,0.043Z" style="fill:#838d4a;fill-rule:nonzero;"/><path d="M80.331,69.198l-0.386,0l0,25.753c0,2.958 0,2.958 -2.956,2.958l-0.729,0c0.043,0.728 0.215,1.285 1.029,1.328c0.429,0.043 1.028,0.043 1.842,0.043c1.758,0 2.186,-0.429 2.186,-2.186l0,-25.368c0,-1.457 0.172,-2.4 -0.986,-2.528Z" style="fill:#838d4a;fill-rule:nonzero;"/><path d="M105.317,69.326c-0.171,-0.043 -0.385,-0.043 -0.557,-0.043l0,25.584c0,3.126 0,3.126 -3.171,3.126c-0.343,0 -0.815,0.044 -1.371,0.044c0.043,0.085 0.043,0.215 0.086,0.3c0.428,1.329 2.399,1.027 3.428,1.027c1.928,0 2.399,-0.47 2.399,-2.356l0,-25.582c0,-0.986 0.086,-2.057 -0.814,-2.1Z" style="fill:#838d4a;fill-rule:nonzero;"/><path d="M93.618,85.781l0,9.128c0,3.084 0,3.084 -3.214,3.084l-0.514,0c0.043,0.729 0.257,1.244 1.157,1.371l1.5,0c1.971,0 2.443,-0.47 2.443,-2.313l0,-8.142c-0.643,-2.014 -0.815,-2.613 -1.029,-3.213c-0.085,-0.257 -0.343,-0.171 -0.343,0.085Z" style="fill:#838d4a;fill-rule:nonzero;"/><path d="M96.532,70.141c-0.215,-0.772 -0.856,-0.9 -1.542,-0.858l2.785,9.385c0.086,0.214 0.343,0.214 0.343,-0.043l0,-3.128l-1.072,-3.728c-0.256,-0.772 -0.428,-1.329 -0.514,-1.628Z" style="fill:#838d4a;fill-rule:nonzero;"/><path d="M64.556,69.781c1.543,2.015 1.371,2.829 1.371,5.657c0,1.243 0.258,2.314 -1.028,2.4c-0.985,0.043 -1.971,0.043 -2.999,0c-1.157,-0.086 -0.858,0 -0.987,-3c-0.042,-1.414 -1.07,-2.828 -2.57,-2.614c-1.5,0.214 -2.057,1.843 -2.057,3.9l0,11.998c0,0.899 0.085,1.715 0.343,2.443c0.642,2.099 2.956,2.185 3.985,0.299c0.043,-0.128 0.086,-0.258 0.129,-0.299c0.428,-2.486 0.856,-5.485 -0.558,-5.7c-0.685,-0.085 -1.028,-0.513 -1.028,-1.285c0,-1.499 0,-2.4 0.042,-2.656c0.043,-0.644 0.386,-0.986 1.072,-1.029c0.386,-0.043 0.771,-0.043 2.271,-0.043c1.157,0 1.929,0 2.315,0.043c0.385,0 0.642,0.129 0.771,0.257c0.342,0.343 0.342,0.814 0.342,1.929c0,9.254 0.901,11.311 -2.528,14.097c-1.286,1.028 -2.957,1.371 -4.628,1.371c-2.7,0 -5.528,-1.499 -6.899,-4.713c-0.215,-0.513 -0.3,-1.286 -0.3,-2.314c0,-13.027 0,-15.298 -0.043,-16.498c0,-3.214 2.571,-6.899 6.47,-6.856l1.543,0c1.972,0.043 3.643,0.899 4.971,2.613Z" style="fill:#231f20;fill-rule:nonzero;"/><path d="M79.174,69.739l0,25.367c0,2.143 -0.085,2.187 -2.185,2.187c-0.815,0 -1.414,0 -1.843,-0.044c-1.157,-0.086 -1.029,-1.157 -1.029,-2.356l0,-25.54c0,-1.028 0.086,-1.671 0.258,-1.843c0.428,-0.428 3,-0.342 3.814,-0.299c1.157,0.128 0.985,1.071 0.985,2.528Z" style="fill:#231f20;fill-rule:nonzero;"/><path d="M103.989,69.438l0,25.584c0,2.271 -0.129,2.356 -2.4,2.356c-1.028,0 -2.957,0.343 -3.428,-1.028c-0.086,-0.3 -0.215,-0.642 -0.429,-1.285c-2.314,-6.729 -3.257,-10.07 -3.171,-9.857l-0.514,-1.413c-0.257,-0.515 -0.815,-0.386 -1.028,0.128c-0.13,0.343 -0.172,0.942 -0.172,1.843l0,9.299c0,2.313 -0.043,2.313 -2.443,2.313l-1.499,0c-1.329,-0.172 -1.158,-1.243 -1.158,-2.615l0,-25.067c0,-1.328 -0.085,-2.357 0.9,-2.4l4.072,0c0.513,0 0.899,0.3 1.071,0.9c0.086,0.3 0.257,0.857 0.514,1.628l3.172,10.714c0.084,0.257 0.171,0.471 0.256,0.642c0.214,0.515 0.772,0.515 0.943,0c0.215,-0.685 0.215,-1.028 0.215,-2.442c0.042,-6.385 0.042,-9.47 0.042,-9.3c0,-2.099 0.086,-2.185 2.185,-2.185c0.729,0 1.414,0 2.057,0.086c0.9,0.042 0.815,1.114 0.815,2.099Z" style="fill:#231f20;fill-rule:nonzero;"/><path d="M124.596,72.726l-5.203,0c-1.255,0 -1.959,0 -2.203,0.031c-0.673,0 -0.857,0.183 -0.887,0.856c-0.031,0.123 -0.031,0.459 -0.031,0.979l0,17.994c0,1.653 0.031,1.653 1.713,1.653c1.684,0 1.684,0 1.684,-1.683l0,-5.172c0,-1.285 0.244,-1.683 0.856,-1.927c0.184,-0.062 0.551,-0.123 1.102,-0.154c1.163,0 1.745,-0.03 1.684,-0.03c0.856,-0.031 0.734,-0.796 0.734,-2.02c-0.031,-1.5 -0.062,-1.561 -1.591,-1.561c-1.959,-0.03 -2.572,0.153 -2.724,-0.979c-0.031,-0.214 -0.061,-0.551 -0.061,-0.98c0.03,-1.376 0.03,-2.233 0.061,-2.539c0.061,-1.194 1.04,-1.041 1.836,-1.041l1.316,-0.03l1.316,0c0.765,0 1.408,0.091 1.468,-0.643c0.062,-0.49 0.062,-1.01 0.031,-1.592c0,-0.979 -0.153,-1.101 -1.101,-1.162Z" style="fill:#231f20;fill-rule:nonzero;"/><path d="M137.544,90.628c-2.632,-0.061 -2.999,0.214 -3.122,-1.103c0,-0.213 -0.03,-0.61 -0.03,-1.223l0,-13.648c0,-1.163 0.123,-1.837 -0.735,-1.897c-0.306,-0.031 -0.734,-0.031 -1.347,-0.031c-1.498,0 -1.529,0.061 -1.529,1.56l0,18.514c0,1.377 0.061,1.439 1.438,1.439l6.273,0c0.673,0 1.378,0.122 1.409,-0.704c0.029,-0.735 0.029,-1.438 0,-2.172c-0.031,-0.889 -0.368,-0.735 -2.357,-0.735Z" style="fill:#231f20;fill-rule:nonzero;"/><path d="M148.993,85.64c0,-0.092 0,-0.245 0.031,-0.398c0.091,-1.285 0.276,-2.234 0.489,-2.816c0.123,-0.214 0.46,-0.336 0.643,0c0.092,0.184 0.152,0.337 0.183,0.46c0,0.092 0.337,1.714 0.399,2.264c0.031,0.276 0.031,0.459 0.031,0.521c-0.062,0.398 -1.776,0.428 -1.776,-0.031Zm3.519,-11.384c-0.091,-0.49 -0.214,-1.041 -0.428,-1.255c-0.122,-0.092 -0.367,-0.153 -0.674,-0.184l-2.784,0c-0.98,0 -1.225,0.184 -1.408,1.194c-0.275,1.683 -2.448,14.474 -3.183,18.637c-0.121,0.887 -0.336,1.529 0.521,1.56c0.642,0.031 1.438,0.031 2.387,0c0.427,0 0.672,-0.214 0.765,-0.673c0.244,-1.407 0.397,-2.234 0.427,-2.479c0.186,-1.561 0.429,-1.621 2.021,-1.621c0,0 0.092,0 0.245,0.03c1.071,0.03 1.132,1.499 1.163,1.805c0.061,0.245 0.091,0.613 0.153,1.072c0.122,0.979 0.153,1.438 0.429,1.683c0.121,0.121 0.305,0.183 0.61,0.214c0.245,0 2.419,0.092 2.693,-0.183c0.246,-0.215 0.276,-0.766 0.124,-1.654c-0.031,-0.243 -2.204,-13.066 -3.061,-18.146Z" style="fill:#231f20;fill-rule:nonzero;"/><path d="M169.715,72.817c-0.673,-0.03 -1.469,-0.03 -2.387,0c-0.825,0.031 -0.918,1.53 -1.01,2.112c-0.305,1.775 -1.132,7.008 -1.5,9.273c-0.03,0.306 -0.152,0.734 -0.274,1.285c-0.123,0.428 -0.49,0.337 -0.582,0.092c-0.154,-0.46 -0.245,-0.796 -0.306,-1.041c-0.153,-1.04 -0.367,-2.448 -0.642,-4.162c-0.644,-4.223 -0.827,-5.263 -1.103,-6.793c-0.091,-0.582 -0.305,-0.735 -0.887,-0.766c-0.612,-0.03 -1.254,-0.03 -1.928,-0.03c-0.856,0.061 -1.04,0.275 -0.948,1.163c0,0.092 0.031,0.214 0.061,0.336c0.184,1.164 0.887,4.897 1.192,6.671l0.155,0.827l1.958,11.016c0.092,0.46 0.122,1.439 0.98,1.439l3.488,0c0.826,-0.031 0.888,-1.194 1.01,-1.837l3.122,-17.075c0.121,-0.704 0.183,-1.316 0.244,-1.775c0.031,-0.459 -0.153,-0.704 -0.643,-0.735Z" style="fill:#231f20;fill-rule:nonzero;"/><path d="M181.408,88.546c0,0.49 -0.06,0.889 -0.184,1.165c-0.55,1.222 -2.324,1.192 -2.814,-0.062c-0.123,-0.245 -0.154,-0.704 -0.154,-1.317l0,-9.975c0,-0.49 0,-0.796 0.031,-0.98c0.214,-1.561 2.479,-1.744 2.968,-0.244c0.093,0.305 0.153,0.642 0.153,1.071l0,10.342Zm2.143,-14.78c-1.285,-1.224 -2.816,-1.561 -5.234,-1.193c-0.396,0.061 -0.734,0.214 -1.102,0.489c-1.773,1.285 -2.631,2.816 -2.569,4.621c0,0.857 0.031,2.479 0,11.476c0,0.979 0.152,1.774 0.52,2.449c1.959,3.671 7.038,3.916 9.456,0.03c0.153,-0.275 0.275,-0.521 0.306,-0.796c0.245,-1.255 0.337,-2.051 0.337,-2.387l-0.031,-10.129c0,-1.622 -0.398,-3.366 -1.683,-4.56Z" style="fill:#231f20;fill-rule:nonzero;"/><path d="M198.03,80.957c0,0.062 -0.031,0.184 -0.061,0.368c-0.245,1.132 -1.316,1.806 -2.448,1.53c-0.521,-0.153 -0.765,-0.459 -0.765,-0.979c0,-0.061 -0.031,-0.919 -0.031,-2.265c0,-2.54 -0.338,-3.366 1.377,-3.152c0.123,0.031 0.244,0.062 0.458,0.092c1.011,0.245 1.409,0.673 1.47,1.653l0,2.753Zm3.826,11.599c-0.827,-3.244 -1.378,-5.325 -1.653,-6.304c-0.184,-0.765 -0.092,-1.408 0.336,-1.928c0.582,-0.734 0.888,-1.469 0.888,-2.173c0.03,-2.815 0.03,-4.621 0,-5.447c-0.061,-1.714 -1.285,-3.152 -2.939,-3.55c-0.979,-0.276 -1.866,-0.397 -2.631,-0.367l-1.622,0c-1.775,0 -2.662,-0.061 -2.937,0.214c-0.155,0.153 -0.214,0.612 -0.214,1.377l0,18.086c0,1.01 -0.124,1.744 0.703,1.775c0.734,0.031 1.469,0.031 2.173,0c0.857,-0.031 0.734,-0.734 0.734,-1.653l0,-4.315c0.031,-0.949 -0.031,-1.774 0.856,-1.897c0.889,-0.122 1.041,0.673 1.164,1.255l0.581,2.478c0.307,1.194 0.521,2.021 0.612,2.479c0.184,0.857 0.276,1.56 0.949,1.653c1.01,0.062 1.928,0.062 2.755,-0.031c0.336,-0.031 0.52,-0.307 0.458,-0.612c-0.03,-0.275 -0.092,-0.643 -0.213,-1.04Z" style="fill:#231f20;fill-rule:nonzero;"/><path d="M215.63,84.018c-0.55,-0.642 -3.642,-3.458 -3.733,-3.58c-0.917,-1.041 -1.285,-2.143 -1.132,-3.305c0.215,-1.714 2.081,-2.051 2.815,-0.429l0.307,0.796c0.122,0.336 0.367,0.489 0.734,0.489c0.735,0 1.53,-0.153 2.357,-0.428c0.305,-0.123 0.458,-0.306 0.396,-0.673c-0.305,-2.571 -2.324,-5.57 -6.824,-4.438c-1.958,0.49 -3.458,2.204 -3.641,4.59c-0.153,2.051 0.52,3.917 1.989,5.509l0.856,0.857l1.898,1.867c1.591,1.621 2.235,1.897 2.204,3.701c0,0.827 -0.613,1.623 -1.347,1.807c-0.765,0.183 -1.377,-0.153 -1.866,-1.011c-0.153,-0.305 -0.214,-0.489 -0.307,-0.855c-0.031,-0.215 -0.092,-0.338 -0.092,-0.399c-0.183,-0.643 -0.397,-0.826 -1.009,-0.795c-0.337,0 -1.041,0.091 -2.05,0.245c-0.643,0.091 -0.552,0.856 -0.49,1.315c0.152,1.01 0.581,2.082 1.316,3.213c0.245,0.368 0.642,0.704 1.162,1.041c0.857,0.521 1.653,0.826 3.184,0.826c2.05,0 2.509,-0.03 3.885,-1.652c0.674,-0.796 1.103,-1.683 1.225,-2.663c0.306,-2.234 -0.276,-4.253 -1.837,-6.028Z" style="fill:#231f20;fill-rule:nonzero;"/><path d="M69.512,28.562c0,0 0.485,1.463 2.22,1.381c0,0 -0.103,-1.739 -2.22,-1.381Z" style="fill:#838d4a;fill-rule:nonzero;"/><path d="M71.619,32.097c0,0 0.532,-1.659 -1.571,-2.09c0,0 -0.076,1.539 1.571,2.09Z" style="fill:#838d4a;fill-rule:nonzero;"/><path d="M69.991,33.725c0,0 0.532,-1.66 -1.571,-2.09c0,0 -0.076,1.539 1.571,2.09Z" style="fill:#838d4a;fill-rule:nonzero;"/><path d="M67.877,32.476c0,0 -0.761,1.341 0.462,2.574c0,0 1.222,-1.242 -0.462,-2.574Z" style="fill:#838d4a;fill-rule:nonzero;"/><path d="M68.877,29.042c0,0 -0.714,1.367 0.552,2.556c0,0 1.178,-1.285 -0.552,-2.556Z" style="fill:#838d4a;fill-rule:nonzero;"/><path d="M89.382,32.488c0,0 0.485,1.463 2.22,1.381c0,0 -0.103,-1.739 -2.22,-1.381Z" style="fill:#838d4a;fill-rule:nonzero;"/><path d="M91.489,36.023c0,0 0.533,-1.659 -1.571,-2.09c0,0 -0.076,1.54 1.571,2.09Z" style="fill:#838d4a;fill-rule:nonzero;"/><path d="M100.459,24.221c0,0 0.485,1.463 2.219,1.381c0,0 -0.103,-1.739 -2.219,-1.381Z" style="fill:#838d4a;fill-rule:nonzero;"/><path d="M100.995,25.666c0,0 -0.077,1.539 1.571,2.09c0,0 0.531,-1.66 -1.571,-2.09Z" style="fill:#838d4a;fill-rule:nonzero;"/><path d="M91.011,30.86c0,0 0.484,1.463 2.219,1.382c0,0 -0.103,-1.74 -2.219,-1.382Z" style="fill:#838d4a;fill-rule:nonzero;"/><path d="M93.117,34.395c0,0 0.532,-1.659 -1.571,-2.09c0,0 -0.076,1.54 1.571,2.09Z" style="fill:#838d4a;fill-rule:nonzero;"/><path d="M88.747,32.968c0,0 -0.714,1.367 0.553,2.556c0,0 1.176,-1.285 -0.553,-2.556Z" style="fill:#838d4a;fill-rule:nonzero;"/><path d="M98.575,25.689c0,0 0.485,1.463 2.22,1.381c0,0 -0.103,-1.739 -2.22,-1.381Z" style="fill:#838d4a;fill-rule:nonzero;"/><path d="M99.111,27.134c0,0 -0.076,1.54 1.572,2.09c0,0 0.531,-1.659 -1.572,-2.09Z" style="fill:#838d4a;fill-rule:nonzero;"/><path d="M97.939,26.169c0,0 -0.714,1.367 0.553,2.556c0,0 1.178,-1.284 -0.553,-2.556Z" style="fill:#838d4a;fill-rule:nonzero;"/><path d="M96.876,27.232c0,0 -0.902,1.73 0.7,3.235c0,0 1.492,-1.626 -0.7,-3.235Z" style="fill:#838d4a;fill-rule:nonzero;"/><path d="M91.968,15.586c0,0 0.485,1.464 2.22,1.382c0,0 -0.104,-1.74 -2.22,-1.382Z" style="fill:#838d4a;fill-rule:nonzero;"/><path d="M92.504,17.031c0,0 -0.077,1.54 1.571,2.09c0,0 0.532,-1.659 -1.571,-2.09Z" style="fill:#838d4a;fill-rule:nonzero;"/><path d="M91.331,16.067c0,0 -0.713,1.366 0.553,2.555c0,0 1.178,-1.284 -0.553,-2.555Z" style="fill:#838d4a;fill-rule:nonzero;"/><path d="M90.807,9.835c0,0 -0.378,-1.701 -2.411,-1.011c0,0 0.711,1.367 2.411,1.011Z" style="fill:#838d4a;fill-rule:nonzero;"/><path d="M89.155,10.165c0,0 0.168,1.532 1.883,1.814c0,0 0.262,-1.723 -1.883,-1.814Z" style="fill:#838d4a;fill-rule:nonzero;"/><path d="M87.845,9.399c0,0 -0.488,1.462 0.951,2.435c0,0 0.958,-1.455 -0.951,-2.435Z" style="fill:#838d4a;fill-rule:nonzero;"/><path d="M73.888,15.255c0,0 1.082,0.475 1.926,-0.556c0,0 -1.044,-0.833 -1.926,0.556Z" style="fill:#838d4a;fill-rule:nonzero;"/><path d="M74.985,15.691c0,0 0.838,0.834 1.997,0.178c0,0 -0.672,-1.155 -1.997,-0.178Z" style="fill:#838d4a;fill-rule:nonzero;"/><path d="M75.574,16.86c0,0 -0.127,-1.329 -1.739,-0.996c0,0 0.412,1.107 1.739,0.996Z" style="fill:#838d4a;fill-rule:nonzero;"/><path d="M74.974,9.91c0,0 -0.218,-1.162 -1.544,-1.278c0,0 -0.101,1.332 1.544,1.278Z" style="fill:#838d4a;fill-rule:nonzero;"/><path d="M74.716,8.757c0,0 0.216,-1.162 -0.979,-1.75c0,0 -0.575,1.206 0.979,1.75Z" style="fill:#838d4a;fill-rule:nonzero;"/><path d="M75.506,9.61c0,0 0.683,-0.964 -0.156,-1.998c0,0 -1.027,0.855 0.156,1.998Z" style="fill:#838d4a;fill-rule:nonzero;"/><path d="M76.952,8.791c0,0 1.082,0.475 1.926,-0.555c0,0 -1.044,-0.834 -1.926,0.555Z" style="fill:#838d4a;fill-rule:nonzero;"/><path d="M80.047,9.405c0,0 -0.673,-1.154 -1.997,-0.177c0,0 0.838,0.833 1.997,0.177Z" style="fill:#838d4a;fill-rule:nonzero;"/><path d="M76.899,9.4c0,0 0.412,1.107 1.739,0.997c0,0 -0.127,-1.33 -1.739,-0.997Z" style="fill:#838d4a;fill-rule:nonzero;"/><path d="M79.751,10.934c0,0 -1.324,-0.174 -1.361,1.472c0,0 1.172,-0.154 1.361,-1.472Z" style="fill:#838d4a;fill-rule:nonzero;"/><path d="M79.556,12.019c0,0 1.148,0.28 1.8,-0.881c0,0 -1.172,-0.64 -1.8,0.881Z" style="fill:#838d4a;fill-rule:nonzero;"/><path d="M80.664,12.907c0,0 -0.797,-1.072 -2.004,0.047c0,0 0.926,0.734 2.004,-0.047Z" style="fill:#838d4a;fill-rule:nonzero;"/><path d="M82.223,17.343c0,0 -0.35,-0.989 -1.529,-0.909c0,0 0.094,1.182 1.529,0.909Z" style="fill:#838d4a;fill-rule:nonzero;"/><path d="M80.554,14.662c0,0 -0.382,1.28 1.236,1.578c0,0 0.035,-1.181 -1.236,-1.578Z" style="fill:#838d4a;fill-rule:nonzero;"/><path d="M82.703,16.961c0,0 0.526,-1.058 -0.463,-1.95c0,0 -0.883,1.002 0.463,1.95Z" style="fill:#838d4a;fill-rule:nonzero;"/><path d="M65.52,9.836c0,0 -0.641,0.993 0.242,1.99c0,0 0.989,-0.898 -0.242,-1.99Z" style="fill:#838d4a;fill-rule:nonzero;"/><path d="M63.334,9.203l-0.001,0.001c0,-0.003 0.002,-0.005 0.002,-0.008c-0.132,-0.042 -1.135,-0.326 -1.862,0.682c0,0 0.626,0.485 1.279,0.062c-0.118,0.293 -0.172,0.672 -0.037,1.147c0,0 0.88,-0.207 0.855,-1.114c-0.031,-0.405 -0.108,-0.642 -0.236,-0.77Z" style="fill:#838d4a;fill-rule:nonzero;"/><path d="M60.213,10.727c0,0 -1.29,-0.347 -1.544,1.279c0,0 1.182,0.003 1.544,-1.279Z" style="fill:#838d4a;fill-rule:nonzero;"/><path d="M57.018,11.854c0,0 -0.048,-1.181 -1.344,-1.487c0,0 -0.291,1.304 1.344,1.487Z" style="fill:#838d4a;fill-rule:nonzero;"/><path d="M59.651,12.526c0,0 -0.604,-0.625 -1.405,-0.199c0.217,-0.287 0.394,-0.707 0.306,-1.306c0,0 -1.3,0.212 -0.888,1.774c-0.001,0.001 0.013,0.021 0.02,0.017c0.171,0.093 1.081,0.522 1.967,-0.286Z" style="fill:#838d4a;fill-rule:nonzero;"/><path d="M54.261,15.521c0,0 0.831,1.046 2.002,-0.112c0,0 -0.949,-0.704 -2.002,0.112Z" style="fill:#838d4a;fill-rule:nonzero;"/><path d="M55.782,14.407c0,0 0.114,0.862 1.012,0.997c-0.345,0.101 -0.737,0.333 -1.022,0.868c0,0 1.186,0.613 1.78,-0.922c0,0 -0.533,-1.069 -1.77,-0.943Z" style="fill:#838d4a;fill-rule:nonzero;"/><path d="M58.171,13.35c0,0 0.235,1.158 1.563,1.255c0,0 0.081,-1.333 -1.563,-1.255Z" style="fill:#838d4a;fill-rule:nonzero;"/><path d="M62.896,12.78c0,0 0.081,-1.333 -1.563,-1.255c0,0 0.235,1.158 1.563,1.255Z" style="fill:#838d4a;fill-rule:nonzero;"/><path d="M63.667,11.245c0,0 1.333,0.086 1.261,-1.558c0,0 -1.159,0.23 -1.261,1.558Z" style="fill:#838d4a;fill-rule:nonzero;"/><path d="M65.715,33.863c0,0 -0.045,1.541 1.613,2.058c0,0 0.499,-1.67 -1.613,-2.058Z" style="fill:#838d4a;fill-rule:nonzero;"/><path d="M65.043,35.159c0,0 -1.085,1.094 -0.227,2.604c0,0 1.504,-0.879 0.227,-2.604Z" style="fill:#838d4a;fill-rule:nonzero;"/><path d="M62.328,36.481c0,0 1.65,0.558 2.114,-1.538c0,0 -1.539,-0.1 -2.114,1.538Z" style="fill:#838d4a;fill-rule:nonzero;"/><path d="M62.234,33.833c0,0 0.715,1.589 2.566,0.501c0,0 -0.974,-1.195 -2.566,-0.501Z" style="fill:#838d4a;fill-rule:nonzero;"/><path d="M62.641,32.109c0,0 0.715,1.589 2.566,0.502c0,0 -0.973,-1.195 -2.566,-0.502Z" style="fill:#838d4a;fill-rule:nonzero;"/><path d="M66.626,31.516c0,0 -0.731,-0.896 -1.925,-0.375c0,0 0.536,1.191 1.925,0.375Z" style="fill:#838d4a;fill-rule:nonzero;"/><path d="M67.227,30.939c0,0 -0.216,-1.591 -2.008,-1.839c0,0 -0.228,1.8 2.008,1.839Z" style="fill:#838d4a;fill-rule:nonzero;"/><path d="M66.197,27.196c0,0 -1.01,1.508 0.971,2.544c0,0 0.52,-1.519 -0.971,-2.544Z" style="fill:#838d4a;fill-rule:nonzero;"/><path d="M64.243,26.514c0,0 -0.774,1.156 0.745,1.951c0,0 0.399,-1.165 -0.745,-1.951Z" style="fill:#838d4a;fill-rule:nonzero;"/><path d="M64.847,30.085c0,0 0.399,-1.165 -0.745,-1.951c0,0 -0.775,1.156 0.745,1.951Z" style="fill:#838d4a;fill-rule:nonzero;"/><path d="M63.086,29.105c0,0 1.11,-1.013 0.348,-2.524c0,0 -1.507,0.782 -0.348,2.524Z" style="fill:#838d4a;fill-rule:nonzero;"/><path d="M60.937,27.487c0,0 1.481,0.25 2.203,-1.28c0,0 -1.544,-0.706 -2.203,1.28Z" style="fill:#838d4a;fill-rule:nonzero;"/><path d="M59.15,27.02c0,0 -0.801,1.271 0.335,2.525c0,0 1.245,-1.154 -0.335,-2.525Z" style="fill:#838d4a;fill-rule:nonzero;"/><path d="M57.272,28.563c0,0 -0.098,1.499 1.499,2.06c0,0 0.544,-1.608 -1.499,-2.06Z" style="fill:#838d4a;fill-rule:nonzero;"/><path d="M56.09,30.413c0,0 0.795,1.274 2.419,0.799c0,0 -0.496,-1.624 -2.419,-0.799Z" style="fill:#838d4a;fill-rule:nonzero;"/><path d="M56.814,32.415c0,0 1.107,1.015 2.545,0.123c0,0 -0.912,-1.432 -2.545,-0.123Z" style="fill:#838d4a;fill-rule:nonzero;"/><path d="M56.777,33.138c0,0 0.242,1.482 1.924,1.669c0,0 0.168,-1.689 -1.924,-1.669Z" style="fill:#838d4a;fill-rule:nonzero;"/><path d="M56.753,35.967c0,0 1.06,-1.072 -0.394,-2.227c0,0 -0.662,1.158 0.394,2.227Z" style="fill:#838d4a;fill-rule:nonzero;"/><path d="M55.509,33.091c0,0 -0.359,-1.285 -1.861,-1.285c0,0 0,0.006 0,0.011c-0.003,-0.002 -0.011,-0.008 -0.011,-0.008c0,0 -1.129,0.997 0.244,2.248c0,0 0.354,-0.553 0.229,-1.274c0.274,0.232 0.708,0.391 1.399,0.308Z" style="fill:#838d4a;fill-rule:nonzero;"/><path d="M51.168,35.459c0,0 0.738,-1.111 -0.244,-2.248c0,0 -1.129,0.997 0.244,2.248Z" style="fill:#838d4a;fill-rule:nonzero;"/><path d="M49.257,35.369c0,0 1.206,-0.569 0.953,-2.05c0,0 -1.483,0.27 -0.953,2.05Z" style="fill:#838d4a;fill-rule:nonzero;"/><path d="M47.708,34.075c0,0 1.318,0.205 1.939,-1.163c0,0 -1.379,-0.607 -1.939,1.163Z" style="fill:#838d4a;fill-rule:nonzero;"/><path d="M50.586,32.579c0,0 -0.388,-1.455 -2.12,-0.784c0,0 0.664,1.156 2.12,0.784Z" style="fill:#838d4a;fill-rule:nonzero;"/><path d="M50.226,30.119c0,0 -0.617,1.182 0.479,2.21c0,0 1.018,-1.11 -0.479,-2.21Z" style="fill:#838d4a;fill-rule:nonzero;"/><path d="M52.431,31.073c0,0 1.395,-0.567 0.513,-2.202c0,0 -1.064,0.804 -0.513,2.202Z" style="fill:#838d4a;fill-rule:nonzero;"/><path d="M55.542,25.866c0,0 -1.064,0.804 -0.514,2.202c0,0 1.396,-0.567 0.514,-2.202Z" style="fill:#838d4a;fill-rule:nonzero;"/><path d="M53.376,27.27c0,0 1.49,0.225 1.566,-1.631c0,0 -1.325,0.147 -1.566,1.631Z" style="fill:#838d4a;fill-rule:nonzero;"/><path d="M51.107,26.41c-0.209,-0.069 -1.359,-0.357 -2.186,0.716c0,0 0.381,0.271 0.879,0.242c-0.1,0.188 -0.187,0.4 -0.23,0.668c0,0 1.439,0.137 1.537,-1.626Z" style="fill:#838d4a;fill-rule:nonzero;"/><path d="M49.65,25.49c0,0 -1.236,-0.5 -2.153,0.69c0,0 1.203,0.906 2.153,-0.69Z" style="fill:#838d4a;fill-rule:nonzero;"/><path d="M48.628,23.511c0,0 -1.142,0.143 -1.332,1.426c0,0 1.288,0.177 1.332,-1.426Z" style="fill:#838d4a;fill-rule:nonzero;"/><path d="M45.953,23.243c0,0 0.956,1.381 2.52,0.025c0,0 -1.132,-0.963 -2.52,-0.025Z" style="fill:#838d4a;fill-rule:nonzero;"/><path d="M46.535,21.587c0,0 -1.479,-0.145 -2.085,1.417c0,0 1.573,0.59 2.085,-1.417Z" style="fill:#838d4a;fill-rule:nonzero;"/><path d="M48.328,18.492c0,0 -1.367,0.582 -1.15,2.243c0,0 1.663,-0.237 1.15,-2.243Z" style="fill:#838d4a;fill-rule:nonzero;"/><path d="M46.743,20.485c0,0 0.492,-1.606 -1.542,-1.994c0,0 -0.054,1.485 1.542,1.994Z" style="fill:#838d4a;fill-rule:nonzero;"/><path d="M46.098,21.273c0,0 -0.873,-1.435 -2.515,-0.173c0,0 1.074,1.028 2.515,0.173Z" style="fill:#838d4a;fill-rule:nonzero;"/><path d="M45.164,20.017c0,0 -0.667,-1.127 -1.959,-0.159c0,0 0.826,0.812 1.959,0.159Z" style="fill:#838d4a;fill-rule:nonzero;"/><path d="M49.671,19.835c0,0 -1.261,-0.353 -1.525,1.239c0,0 1.159,0.015 1.525,-1.239Z" style="fill:#838d4a;fill-rule:nonzero;"/><path d="M50.988,21.152c0,0 -1.261,-0.353 -1.525,1.239c0,0 1.158,0.015 1.525,-1.239Z" style="fill:#838d4a;fill-rule:nonzero;"/><path d="M49.975,23.112c0,0 1.201,0.727 2.355,-0.357c0,0 -1.1,-1.144 -2.355,0.357Z" style="fill:#838d4a;fill-rule:nonzero;"/><path d="M58.135,25.216c0,0 -0.386,-1.35 -1.97,-1.339c0,0 0.03,1.587 1.97,1.339Z" style="fill:#838d4a;fill-rule:nonzero;"/><path d="M54.577,22.614c0.064,-0.268 0.083,-0.579 0.01,-0.946c0,0 -1.384,0.358 -0.878,2.127c0,0 1.342,0.216 1.964,-1.199c0,0 -0.544,-0.226 -1.096,0.018Z" style="fill:#838d4a;fill-rule:nonzero;"/><path d="M59.203,22.255c0,0 -0.038,0.587 0.37,1.032c-0.274,0.025 -0.575,0.108 -0.899,0.295c0,0 0.809,1.365 2.374,0.191c0,0 -0.305,-1.383 -1.845,-1.518Z" style="fill:#838d4a;fill-rule:nonzero;"/><path d="M58.643,24.841c0,0 0.167,-1.16 -1.042,-1.693c0,0 -0.52,1.218 1.042,1.693Z" style="fill:#838d4a;fill-rule:nonzero;"/><path d="M61.168,22.435c0,0 -0.52,1.218 1.042,1.692c0,0 0.167,-1.159 -1.042,-1.692Z" style="fill:#838d4a;fill-rule:nonzero;"/><path d="M66.839,23.257c0,0 -0.692,1.428 1.15,2.086c0,0 0.267,-1.379 -1.15,-2.086Z" style="fill:#838d4a;fill-rule:nonzero;"/><path d="M70.283,23.188c0,0 -0.301,0.506 -0.139,1.087c-0.256,-0.102 -0.561,-0.165 -0.935,-0.145c0,0 0.103,1.584 2.03,1.247c0,0 0.354,-1.372 -0.956,-2.189Z" style="fill:#838d4a;fill-rule:nonzero;"/><path d="M68.45,23.258c0,0 -1.015,0.85 0.161,1.981c0,0 0.675,-0.958 -0.161,-1.981Z" style="fill:#838d4a;fill-rule:nonzero;"/><path d="M72.111,26.222c0,0 0.606,-0.861 -0.145,-1.78c0,0 -0.913,0.764 0.145,1.78Z" style="fill:#838d4a;fill-rule:nonzero;"/><path d="M73.072,24.443c0,0 -1.224,1.023 0.194,2.386c0,0 0.812,-1.154 -0.194,-2.386Z" style="fill:#838d4a;fill-rule:nonzero;"/><path d="M67.718,21.743c0,0 -1.016,0.849 0.161,1.98c0,0 0.675,-0.958 -0.161,-1.98Z" style="fill:#838d4a;fill-rule:nonzero;"/><path d="M64.371,8.078c0,0 0.446,-1.332 -0.866,-2.219c0,0 -0.874,1.324 0.866,2.219Z" style="fill:#838d4a;fill-rule:nonzero;"/><path d="M67.581,8.534c-0.021,-0.014 -0.034,-0.027 -0.053,-0.041c0.032,0.011 0.055,0.02 0.057,0.029c0.026,-0.062 0.534,-1.297 -0.657,-2.279c0,0 -0.364,0.462 -0.28,1.059c-0.24,-0.134 -0.535,-0.237 -0.908,-0.266c0,0 -0.107,1.583 1.849,1.502c0,0 -0.003,-0.013 -0.004,-0.016c-0.001,0.002 -0.004,0.012 -0.004,0.012Z" style="fill:#838d4a;fill-rule:nonzero;"/><path d="M65.102,6.072c0,0 -1.118,0.708 -0.1,1.984c0,0 0.794,-0.86 0.1,-1.984Z" style="fill:#838d4a;fill-rule:nonzero;"/><path d="M68.445,7.504c0,0 -1.118,0.709 -0.1,1.985c0,0 0.794,-0.861 0.1,-1.985Z" style="fill:#838d4a;fill-rule:nonzero;"/><path d="M61.168,18.471c0,0 -0.52,1.217 1.042,1.692c0,0 0.167,-1.159 -1.042,-1.692Z" style="fill:#838d4a;fill-rule:nonzero;"/><path d="M61.926,18.532c0,0 0.133,-0.926 -0.832,-1.351c0,0 -0.415,0.972 0.832,1.351Z" style="fill:#838d4a;fill-rule:nonzero;"/><path d="M63.404,20.209c0,0 1.135,-0.285 1.171,-1.605c0,0 -1.324,-0.02 -1.171,1.605Z" style="fill:#838d4a;fill-rule:nonzero;"/><path d="M66.621,23.065c0,0 0.268,-1.296 -1.357,-1.451c0,0 0.067,1.17 1.357,1.451Z" style="fill:#838d4a;fill-rule:nonzero;"/><path d="M65.743,21.251c0,0 0.797,0.858 1.97,0.251c0,0 -0.621,-1.169 -1.97,-0.251Z" style="fill:#838d4a;fill-rule:nonzero;"/><path d="M65.848,20.732c0,0 1.171,0 1.527,-1.272c0,0 -1.279,-0.342 -1.527,1.272Z" style="fill:#838d4a;fill-rule:nonzero;"/><path d="M68.693,20.762c0,0 -0.382,-0.719 -1.212,-0.154c0,0 0.49,0.528 1.212,0.154Z" style="fill:#838d4a;fill-rule:nonzero;"/><path d="M68.485,19.506c0,0 -0.787,-0.21 -0.94,0.782c0,0 0.721,0.001 0.94,-0.782Z" style="fill:#838d4a;fill-rule:nonzero;"/><path d="M69.675,23.621c0,0 0.582,-0.424 0.297,-1.186c0,0 -0.76,0.295 -0.297,1.186Z" style="fill:#838d4a;fill-rule:nonzero;"/><path d="M68.7,22.494c0,0 -0.302,0.756 0.665,1.025c0,0 0.086,-0.715 -0.665,-1.025Z" style="fill:#838d4a;fill-rule:nonzero;"/><path d="M71.155,14.068c0,0 -1.031,0.025 -0.862,1.285c0,0 0.875,-0.256 0.862,-1.285Z" style="fill:#838d4a;fill-rule:nonzero;"/><path d="M70.457,15.957c0,0 0.754,0.105 1.096,-0.682c0,0 -0.792,-0.334 -1.096,0.682Z" style="fill:#838d4a;fill-rule:nonzero;"/><path d="M71.551,17.134c0.045,-0.237 0.027,-0.539 -0.197,-0.872c0,0 -0.75,0.515 -0.018,1.366c0,0 0.028,-0.035 0.064,-0.092c0.161,0.005 0.66,-0.027 0.912,-0.606c0,0 -0.445,-0.178 -0.761,0.204Z" style="fill:#838d4a;fill-rule:nonzero;"/><path d="M72.403,13.443c0,0 -0.793,-0.334 -1.097,0.683c0,0 0.755,0.104 1.097,-0.683Z" style="fill:#838d4a;fill-rule:nonzero;"/><path d="M78.769,20.858c0,0 -0.666,0.258 -0.261,1.04c0,0 0.511,-0.373 0.261,-1.04Z" style="fill:#838d4a;fill-rule:nonzero;"/><path d="M78.237,21.808c0,0 0.075,-0.627 -0.583,-0.899c0,0 -0.265,0.663 0.583,0.899Z" style="fill:#838d4a;fill-rule:nonzero;"/><path d="M75.545,18.376c0,0 0.445,0.448 1.067,0.1c0,0 -0.356,-0.618 -1.067,-0.1Z" style="fill:#838d4a;fill-rule:nonzero;"/><path d="M76.392,17.382c0,0 -0.695,-0.161 -0.799,0.713c0,0 0.631,-0.021 0.799,-0.713Z" style="fill:#838d4a;fill-rule:nonzero;"/><path d="M75.893,14.392c0,0 0.54,-0.467 -0.104,-1.066c0,0 -0.355,0.522 0.104,1.066Z" style="fill:#838d4a;fill-rule:nonzero;"/><path d="M76.075,13.319c0,0 0.14,0.616 0.851,0.65c0,0 0.026,-0.713 -0.851,-0.65Z" style="fill:#838d4a;fill-rule:nonzero;"/><path d="M77.074,11.518c0,0 0.614,-0.146 0.642,-0.857c0,0 -0.713,-0.02 -0.642,0.857Z" style="fill:#838d4a;fill-rule:nonzero;"/><path d="M76.858,11.522c0,0 0.312,-0.549 -0.19,-1.054c0,0 -0.501,0.509 0.19,1.054Z" style="fill:#838d4a;fill-rule:nonzero;"/><path d="M76.82,16.637c0,0 -0.751,1.547 1.246,2.261c0,0 0.289,-1.494 -1.246,-2.261Z" style="fill:#838d4a;fill-rule:nonzero;"/><path d="M79.388,17.583c0,0 0.111,1.717 2.2,1.351c0,0 -0.486,-1.442 -2.2,-1.351Z" style="fill:#838d4a;fill-rule:nonzero;"/><path d="M78.74,18.785c0,0 0.731,-1.038 -0.175,-2.146c0,0 -1.1,0.92 0.175,2.146Z" style="fill:#838d4a;fill-rule:nonzero;"/><path d="M77.947,17.142c0,0 0.731,-1.038 -0.175,-2.146c0,0 -1.1,0.921 0.175,2.146Z" style="fill:#838d4a;fill-rule:nonzero;"/><path d="M79.893,17.032c0,0 0.631,-0.461 0.322,-1.285c0,0 -0.823,0.319 -0.322,1.285Z" style="fill:#838d4a;fill-rule:nonzero;"/><path d="M78.836,15.81c0,0 -0.327,0.82 0.721,1.111c0,0 0.093,-0.775 -0.721,-1.111Z" style="fill:#838d4a;fill-rule:nonzero;"/><path d="M84.518,6.287c0,0 -0.933,-0.742 -2.022,0.048c0,0 0.804,1.082 2.022,-0.048Z" style="fill:#838d4a;fill-rule:nonzero;"/><path d="M85.819,3.853c0,0 -1.178,-0.184 -1.735,1.04c0,0 1.233,0.544 1.735,-1.04Z" style="fill:#838d4a;fill-rule:nonzero;"/><path d="M83.129,5.122c0,0 0.241,1.098 1.555,0.656c0,0 -0.457,-0.884 -1.555,-0.656Z" style="fill:#838d4a;fill-rule:nonzero;"/><path d="M81.701,5.079c0,0 0.241,1.098 1.554,0.656c0,0 -0.456,-0.884 -1.554,-0.656Z" style="fill:#838d4a;fill-rule:nonzero;"/><path d="M83.883,4.342c0,0 -0.091,-0.605 -0.776,-0.689c0,0 -0.076,0.688 0.776,0.689Z" style="fill:#838d4a;fill-rule:nonzero;"/><path d="M83.685,4.535c0,0 -0.506,-0.345 -1.033,0.099c0,0 0.451,0.524 1.033,-0.099Z" style="fill:#838d4a;fill-rule:nonzero;"/><path d="M80.582,13.814c0,0 0.635,1.115 1.916,0.187c0,0 -0.797,-0.807 -1.916,-0.187Z" style="fill:#838d4a;fill-rule:nonzero;"/><path d="M84.006,11.85c0,0 -1.092,-0.309 -1.759,0.784c0,0 1.103,0.655 1.759,-0.784Z" style="fill:#838d4a;fill-rule:nonzero;"/><path d="M81.319,12.742c0,0 0.102,1.064 1.394,0.797c0,0 -0.33,-0.887 -1.394,-0.797Z" style="fill:#838d4a;fill-rule:nonzero;"/><path d="M81.467,11.351c0,0 -0.152,0.64 0.654,0.74c0,0 -0.017,-0.582 -0.654,-0.74Z" style="fill:#838d4a;fill-rule:nonzero;"/><path d="M81.911,12.25c0,0 -0.438,-0.384 -0.987,-0.025c0,0 0.366,0.548 0.987,0.025Z" style="fill:#838d4a;fill-rule:nonzero;"/><path d="M72.721,23.01c0,0 -0.759,0.295 -0.297,1.186c0,0 0.582,-0.425 0.297,-1.186Z" style="fill:#838d4a;fill-rule:nonzero;"/><path d="M72.115,24.094c0,0 0.085,-0.716 -0.666,-1.026c0,0 -0.302,0.757 0.666,1.026Z" style="fill:#838d4a;fill-rule:nonzero;"/><path d="M65.025,18.678c0,0 -1.151,1.116 0.371,2.378c0,0 0.729,-1.216 -0.371,-2.378Z" style="fill:#838d4a;fill-rule:nonzero;"/><path d="M56.012,17.746c0,0 -0.252,-1.144 -1.57,-1.217c0,0 -0.059,1.322 1.57,1.217Z" style="fill:#838d4a;fill-rule:nonzero;"/><path d="M55.597,18.181c0,0 -0.924,-0.721 -1.986,0.064c0,0 0.799,1.056 1.986,-0.064Z" style="fill:#838d4a;fill-rule:nonzero;"/><path d="M52.572,24.046c0,0 -0.923,-0.72 -1.986,0.064c0,0 0.799,1.056 1.986,-0.064Z" style="fill:#838d4a;fill-rule:nonzero;"/><path d="M54.859,19.777c0,0 1.317,0.135 1.306,-1.497c0,0 -1.156,0.184 -1.306,1.497Z" style="fill:#838d4a;fill-rule:nonzero;"/><path d="M69.245,19.483c0,0 0.73,-1.216 -0.371,-2.377c0,0 -1.151,1.116 0.371,2.377Z" style="fill:#838d4a;fill-rule:nonzero;"/><path d="M67.566,18.564c0,0 1.241,-0.687 0.871,-2.243c0,0 -1.555,0.389 -0.871,2.243Z" style="fill:#838d4a;fill-rule:nonzero;"/><path d="M66,19.413c0,0 1.241,-0.687 0.871,-2.243c0,0 -1.556,0.389 -0.871,2.243Z" style="fill:#838d4a;fill-rule:nonzero;"/><path d="M64.666,18.204c0,0 1.146,0.041 1.537,-1.192c0,0 -1.239,-0.378 -1.537,1.192Z" style="fill:#838d4a;fill-rule:nonzero;"/><path d="M64.954,15.265c0,0 -1.57,-0.11 -1.631,1.707c0,0 0.27,-0.04 0.588,-0.208c0.015,0.19 0.054,0.4 0.133,0.64c0,0 1.22,-0.625 0.91,-2.139Z" style="fill:#838d4a;fill-rule:nonzero;"/><path d="M62.38,16.029c0,0 1.361,-0.162 1.597,-1.689c0,0 -1.533,-0.22 -1.597,1.689Z" style="fill:#838d4a;fill-rule:nonzero;"/><path d="M61.482,15.85c0,0 0.964,-0.974 0.197,-2.316c0,0 -1.336,0.783 -0.197,2.316Z" style="fill:#838d4a;fill-rule:nonzero;"/><path d="M61.398,13.394c0,0 -0.694,-0.633 -1.377,0.302c0,0 0.738,0.384 1.377,-0.302Z" style="fill:#838d4a;fill-rule:nonzero;"/><path d="M58.774,18.427c0,0 1.31,0.184 1.906,-1.185c0,0 -1.377,-0.582 -1.906,1.185Z" style="fill:#838d4a;fill-rule:nonzero;"/><path d="M60.399,19.461c0,0 -0.693,-1.325 -2.225,-0.298c0,0 0.895,0.975 2.225,0.298Z" style="fill:#838d4a;fill-rule:nonzero;"/><path d="M57.814,18.551c0,0 0.832,-0.095 0.981,-1.028c0,0 -0.937,-0.139 -0.981,1.028Z" style="fill:#838d4a;fill-rule:nonzero;"/><path d="M55.685,13.223c0,0 -1.043,-0.815 -2.244,0.072c0,0 0.902,1.193 2.244,-0.072Z" style="fill:#838d4a;fill-rule:nonzero;"/><path d="M56.572,12.885c0,0 -0.286,-1.291 -1.777,-1.371c0,0 -0.063,1.494 1.777,1.371Z" style="fill:#838d4a;fill-rule:nonzero;"/><path d="M55.214,13.995c0,0 0.742,0.589 1.364,-0.4c0,0 -0.768,-0.334 -1.364,0.4Z" style="fill:#838d4a;fill-rule:nonzero;"/><path d="M59.933,14.762c0,0 -1.349,0.708 -0.3,2.267c0,0 0.992,-0.913 0.3,-2.267Z" style="fill:#838d4a;fill-rule:nonzero;"/><path d="M57.667,8.649c0,0 -1.349,0.709 -0.3,2.267c0,0 0.992,-0.913 0.3,-2.267Z" style="fill:#838d4a;fill-rule:nonzero;"/><path d="M63.068,20.02c0,0 0.747,-1.392 -0.54,-2.624c0,0 -1.22,1.303 0.54,2.624Z" style="fill:#838d4a;fill-rule:nonzero;"/><path d="M44.965,19.458c0,0 0.262,-1.283 -1.346,-1.432c0,0 0.069,1.156 1.346,1.432Z" style="fill:#838d4a;fill-rule:nonzero;"/><path d="M51.655,27.728c0,0 0.51,-0.698 -0.414,-1.23c0,0 -0.277,0.714 0.414,1.23Z" style="fill:#838d4a;fill-rule:nonzero;"/><path d="M51.462,26.358c0,0 0.563,0.865 1.672,0.516c0,0 -0.362,-1.108 -1.672,-0.516Z" style="fill:#838d4a;fill-rule:nonzero;"/><path d="M48.371,30.594c0,0 0.278,0.875 1.313,0.839c0,0 -0.048,-1.038 -1.313,-0.839Z" style="fill:#838d4a;fill-rule:nonzero;"/><path d="M57.073,22.512c0,0 1.228,-0.493 0.46,-1.933c0,0 -0.938,0.701 -0.46,1.933Z" style="fill:#838d4a;fill-rule:nonzero;"/><path d="M56.581,21.933c0,0 -0.749,0.56 -0.368,1.543c0,0 0.981,-0.394 0.368,-1.543Z" style="fill:#838d4a;fill-rule:nonzero;"/><path d="M54.067,21.398c0,0 -1.114,-0.363 -1.845,0.736c0,0 1.11,0.721 1.845,-0.736Z" style="fill:#838d4a;fill-rule:nonzero;"/><path d="M52.412,21.399c0,0 -0.889,-0.291 -1.474,0.587c0,0 0.887,0.576 1.474,-0.587Z" style="fill:#838d4a;fill-rule:nonzero;"/><path d="M54.891,20.35c0,0 1.102,0.733 1.853,-0.717c0,0 -1.11,-0.375 -1.853,0.717Z" style="fill:#838d4a;fill-rule:nonzero;"/><path d="M55.351,22.31c0,0 1.785,-0.059 1.474,-2.238c0,0 -1.512,0.457 -1.474,2.238Z" style="fill:#838d4a;fill-rule:nonzero;"/><path d="M67.674,13.86c0,0 -1.032,-0.554 -1.946,0.4c0,0 0.966,0.905 1.946,-0.4Z" style="fill:#838d4a;fill-rule:nonzero;"/><path d="M63.482,12.869c0,0 0.771,0.723 1.554,-0.319c0,0 -0.824,-0.442 -1.554,0.319Z" style="fill:#838d4a;fill-rule:nonzero;"/><path d="M66.765,11.368c0,0 -0.198,1.309 1.433,1.377c0,0 -0.129,-1.164 -1.433,-1.377Z" style="fill:#838d4a;fill-rule:nonzero;"/><path d="M67.834,13.004c0,0 -1.053,-1.177 -2.65,-0.39c0,0 0.807,1.593 2.65,0.39Z" style="fill:#838d4a;fill-rule:nonzero;"/><path d="M80.741,20.493c0,0 -0.849,-0.806 -1.983,-0.128c0,0 0.693,1.128 1.983,0.128Z" style="fill:#838d4a;fill-rule:nonzero;"/><path d="M79.247,19.782c0,0 -0.679,-0.644 -1.584,-0.102c0,0 0.553,0.901 1.584,0.102Z" style="fill:#838d4a;fill-rule:nonzero;"/><path d="M77.394,22.029c0,0 -0.23,-0.906 -1.285,-0.93c0,0 -0.012,1.057 1.285,0.93Z" style="fill:#838d4a;fill-rule:nonzero;"/><path d="M74.869,17.473c0,0 -0.174,-0.686 -0.972,-0.704c0,0 -0.009,0.799 0.972,0.704Z" style="fill:#838d4a;fill-rule:nonzero;"/><path d="M79.301,18.923c0,0 0.266,1.299 1.822,0.8c0,0 -0.523,-1.05 -1.822,-0.8Z" style="fill:#838d4a;fill-rule:nonzero;"/><path d="M78.846,3.943c0,0 -0.596,1.021 0.331,1.978c0,0 0.948,-0.941 -0.331,-1.978Z" style="fill:#838d4a;fill-rule:nonzero;"/><path d="M82.266,4.849c0,0 0.035,-1.181 -1.236,-1.578c0,0 -0.382,1.28 1.236,1.578Z" style="fill:#838d4a;fill-rule:nonzero;"/><path d="M77.174,7.206c0,0 0.289,-1.495 -1.246,-2.261c0,0 -0.751,1.547 1.246,2.261Z" style="fill:#838d4a;fill-rule:nonzero;"/><path d="M76.045,7.16c0,0 -0.486,-1.442 -2.2,-1.351c0,0 0.111,1.716 2.2,1.351Z" style="fill:#838d4a;fill-rule:nonzero;"/><path d="M77.81,5.357c0,0 -1.1,0.92 0.175,2.146c0,0 0.731,-1.038 -0.175,-2.146Z" style="fill:#838d4a;fill-rule:nonzero;"/><path d="M80.382,3.96c0,0 -1.1,0.921 0.175,2.147c0,0 0.731,-1.038 -0.175,-2.147Z" style="fill:#838d4a;fill-rule:nonzero;"/><path d="M79.576,7.063c0,0 0.63,-0.46 0.321,-1.285c0,0 -0.823,0.319 -0.321,1.285Z" style="fill:#838d4a;fill-rule:nonzero;"/><path d="M79.24,6.953c0,0 0.093,-0.775 -0.721,-1.111c0,0 -0.328,0.82 0.721,1.111Z" style="fill:#838d4a;fill-rule:nonzero;"/><path d="M75.841,7.687c0,0 0.553,0.901 1.583,0.102c0,0 -0.678,-0.644 -1.583,-0.102Z" style="fill:#838d4a;fill-rule:nonzero;"/><path d="M80.149,8.058c0,0 -0.523,-1.05 -1.822,-0.799c0,0 0.266,1.299 1.822,0.799Z" style="fill:#838d4a;fill-rule:nonzero;"/><path d="M80.359,10.397c0,0 1.647,-0.205 1.924,-2.057c0,0 -1.859,-0.256 -1.924,2.057Z" style="fill:#838d4a;fill-rule:nonzero;"/><path d="M83.473,7.667c0,0 -0.744,-1.377 -2.333,-0.282c0,0 0.95,1.008 2.333,0.282Z" style="fill:#838d4a;fill-rule:nonzero;"/><path d="M81.514,5.491c0,0 -1.084,0.395 -0.456,1.671c0,0 0.837,-0.585 0.456,-1.671Z" style="fill:#838d4a;fill-rule:nonzero;"/><path d="M80.13,9.003c0,0 0.731,-0.195 0.741,-1.049c0,0 -0.855,0.001 -0.741,1.049Z" style="fill:#838d4a;fill-rule:nonzero;"/><path d="M85.478,9.728c0,0 -1.329,-0.257 -2.01,1.109c0,0 1.377,0.668 2.01,-1.109Z" style="fill:#838d4a;fill-rule:nonzero;"/><path d="M83.58,9.966c0,0 -1.061,-0.204 -1.605,0.887c0,0 1.099,0.532 1.605,-0.887Z" style="fill:#838d4a;fill-rule:nonzero;"/><path d="M83.619,7.29c0,0 0.231,1.513 2.053,1.028c0,0 -0.541,-1.241 -2.053,-1.028Z" style="fill:#838d4a;fill-rule:nonzero;"/><path d="M85.36,8.729c0,0 -1.566,-0.938 -3.059,0.48c0,0 1.439,1.479 3.059,-0.48Z" style="fill:#838d4a;fill-rule:nonzero;"/><path d="M71.37,11.517c0,0 -0.394,1.478 1.471,1.763c0,0 -0.001,-1.354 -1.471,-1.763Z" style="fill:#838d4a;fill-rule:nonzero;"/><path d="M71.927,11.334c0,0 0,-1.081 -1.175,-1.408c0,0 -0.314,1.181 1.175,1.408Z" style="fill:#838d4a;fill-rule:nonzero;"/><path d="M74.134,12.629c0,0 1.115,-0.767 0.619,-2.212c0,0 -1.441,0.514 -0.619,2.212Z" style="fill:#838d4a;fill-rule:nonzero;"/><path d="M73.544,12.72c0,0 0.623,-1.716 -1.052,-2.913c0,0 -1.18,1.693 1.052,2.913Z" style="fill:#838d4a;fill-rule:nonzero;"/><path d="M86.373,16.443c0,0 0.638,1.143 2.073,0.796c0,0 -0.364,-1.434 -2.073,-0.796Z" style="fill:#838d4a;fill-rule:nonzero;"/><path d="M87.732,17.699c0,0 0.51,0.912 1.656,0.635c0,0 -0.292,-1.145 -1.656,-0.635Z" style="fill:#838d4a;fill-rule:nonzero;"/><path d="M85.818,19.807c0,0 0.974,-1.113 -0.52,-2.159c0,0 -0.58,1.174 0.52,2.159Z" style="fill:#838d4a;fill-rule:nonzero;"/><path d="M87.968,19.117c0,0 0.199,-1.986 -2.261,-1.964c0,0 0.282,1.743 2.261,1.964Z" style="fill:#838d4a;fill-rule:nonzero;"/><path d="M88.868,26.398c0,0 -1.759,-0.244 -2.558,1.594c0,0 1.851,0.779 2.558,-1.594Z" style="fill:#838d4a;fill-rule:nonzero;"/><path d="M88.693,22.288c0,0 -1.757,-0.354 -2.701,1.356c0,0 0.658,0.35 1.381,0.106c-0.11,0.33 -0.169,0.719 -0.119,1.188c0,0 1.995,-0.236 1.439,-2.65Z" style="fill:#838d4a;fill-rule:nonzero;"/><path d="M88.696,25.619c0,0 -1.256,-0.788 -2.492,0.337c0,0 1.141,1.226 2.492,-0.337Z" style="fill:#838d4a;fill-rule:nonzero;"/><path d="M89.702,21.13c0,0 -1.128,-0.708 -2.239,0.303c0,0 1.026,1.102 2.239,-0.303Z" style="fill:#838d4a;fill-rule:nonzero;"/><path d="M87.39,20.036c0,0 1.375,1.477 3.003,-0.406c0,0 -1.514,-0.949 -3.003,0.406Z" style="fill:#838d4a;fill-rule:nonzero;"/><path d="M86.829,26.646c0,0 -1.255,-0.788 -2.492,0.337c0,0 1.142,1.226 2.492,-0.337Z" style="fill:#838d4a;fill-rule:nonzero;"/><path d="M82.689,32.538c0,0 -0.436,-1.416 -2.106,-1.372c0,0 0.063,1.674 2.106,1.372Z" style="fill:#838d4a;fill-rule:nonzero;"/><path d="M86.083,28.28c0,0 -1.657,-0.251 -1.743,1.813c0,0 1.474,-0.163 1.743,-1.813Z" style="fill:#838d4a;fill-rule:nonzero;"/><path d="M84.034,27.005c0,0 -1.436,0.863 -0.185,2.507c0,0 1.03,-1.065 0.185,-2.507Z" style="fill:#838d4a;fill-rule:nonzero;"/><path d="M81.476,27.57c0,0 -0.346,1.639 1.71,1.844c0,0 -0.079,-1.48 -1.71,-1.844Z" style="fill:#838d4a;fill-rule:nonzero;"/><path d="M82.919,27.359c0,0 0.634,-0.655 0.114,-1.543c0,0 -0.883,0.531 -0.114,1.543Z" style="fill:#838d4a;fill-rule:nonzero;"/><path d="M82.511,27.299c0,0 -0.048,-0.911 -1.052,-1.135c0,0 -0.213,1.009 1.052,1.135Z" style="fill:#838d4a;fill-rule:nonzero;"/><path d="M86.58,24.383c0,0 -0.576,-0.706 -1.519,-0.295c0,0 0.423,0.94 1.519,0.295Z" style="fill:#838d4a;fill-rule:nonzero;"/><path d="M86.471,24.782c0,0 -0.909,-0.061 -1.25,0.91c0,0 0.976,0.33 1.25,-0.91Z" style="fill:#838d4a;fill-rule:nonzero;"/><path d="M85.603,20.575c0,0 0.423,0.94 1.518,0.295c0,0 -0.576,-0.707 -1.518,-0.295Z" style="fill:#838d4a;fill-rule:nonzero;"/><path d="M85.762,22.179c0,0 0.976,0.33 1.251,-0.91c0,0 -0.91,-0.061 -1.251,0.91Z" style="fill:#838d4a;fill-rule:nonzero;"/><path d="M83.626,29.964c0,0 -1.586,-0.841 -2.98,0.628c0,0 1.487,1.38 2.98,-0.628Z" style="fill:#838d4a;fill-rule:nonzero;"/><path d="M81.379,25.205c0,0 -1.585,-0.84 -2.979,0.629c0,0 1.488,1.379 2.979,-0.629Z" style="fill:#838d4a;fill-rule:nonzero;"/><path d="M77.438,26.439c0,0 0.596,1.94 2.893,0.949c0,0 -0.951,-1.522 -2.893,-0.949Z" style="fill:#838d4a;fill-rule:nonzero;"/><path d="M81.509,29.31c0,0 -0.951,-1.522 -2.893,-0.949c0,0 0.596,1.939 2.893,0.949Z" style="fill:#838d4a;fill-rule:nonzero;"/><path d="M80.071,31.078c0,0 -0.025,-1.451 -1.609,-1.863c0,0 -0.395,1.592 1.609,1.863Z" style="fill:#838d4a;fill-rule:nonzero;"/><path d="M81.893,24.927c0,0 1.546,-0.646 0.548,-2.454c0,0 -1.174,0.904 -0.548,2.454Z" style="fill:#838d4a;fill-rule:nonzero;"/><path d="M84.306,24.953c0,0 0.778,-1.484 -1.143,-2.239c0,0 -0.328,1.445 1.143,2.239Z" style="fill:#838d4a;fill-rule:nonzero;"/><path d="M85.586,23.043c0,0 -0.471,-1.34 -2.05,-0.584c0,0 0.708,1.038 2.05,0.584Z" style="fill:#838d4a;fill-rule:nonzero;"/><path d="M83.119,22.212c0,0 1.791,-0.106 2.219,-2.084c0,0 -1.987,-0.407 -2.219,2.084Z" style="fill:#838d4a;fill-rule:nonzero;"/><path d="M89.821,25.174c0.003,-0.01 0.007,-0.017 0.008,-0.028c0.001,0.01 0,0.018 0.001,0.028c-0.003,0 -0.009,0 -0.009,0Zm0.826,-1.38c0.037,-0.284 0.021,-0.609 -0.096,-0.98c0,0 -1.272,0.533 -0.721,2.363c0,0.003 0,0.005 0.001,0.009c0.071,0.001 1.464,-0.002 1.948,-1.534c0,0 -0.588,-0.172 -1.132,0.142Z" style="fill:#838d4a;fill-rule:nonzero;"/><path d="M89.278,22.499c0,0 1.14,0.431 1.955,-0.677c0,0 -1.12,-0.803 -1.955,0.677Z" style="fill:#838d4a;fill-rule:nonzero;"/><path d="M90.951,25.674c0,0 -1.006,-0.722 -1.756,0.608c0,0 1.024,0.388 1.756,-0.608Z" style="fill:#838d4a;fill-rule:nonzero;"/><path d="M91.237,26.789c0,0 -1.349,-0.968 -2.355,0.815c0,0 1.374,0.52 2.355,-0.815Z" style="fill:#838d4a;fill-rule:nonzero;"/><path d="M91.185,23.152c0,0 0.578,0.476 1.272,-0.008c0,0 -0.494,-0.69 -1.272,0.008Z" style="fill:#838d4a;fill-rule:nonzero;"/><path d="M91.207,22.813c0,0 0.744,-0.099 0.861,-0.937c0,0 -0.841,-0.108 -0.861,0.937Z" style="fill:#838d4a;fill-rule:nonzero;"/><path d="M101.463,23.535c0,0 0.579,0.476 1.273,-0.009c0,0 -0.494,-0.689 -1.273,0.009Z" style="fill:#838d4a;fill-rule:nonzero;"/><path d="M102.346,22.259c0,0 -0.84,-0.108 -0.86,0.937c0,0 0.744,-0.099 0.86,-0.937Z" style="fill:#838d4a;fill-rule:nonzero;"/><path d="M96.224,29.867c0,0 -0.592,-0.828 -1.528,0.009c0,0 0.695,0.573 1.528,-0.009Z" style="fill:#838d4a;fill-rule:nonzero;"/><path d="M94.723,29.47c0,0 0.893,-0.119 1.034,-1.126c0,0 -1.01,-0.129 -1.034,1.126Z" style="fill:#838d4a;fill-rule:nonzero;"/><path d="M98.045,33.916c0,0 0.415,-0.93 -0.78,-1.314c0,0 -0.143,0.89 0.78,1.314Z" style="fill:#838d4a;fill-rule:nonzero;"/><path d="M99.123,32.743c0,0 -0.398,-0.936 -1.494,-0.323c0,0 0.555,0.71 1.494,0.323Z" style="fill:#838d4a;fill-rule:nonzero;"/><path d="M92.59,26.065c0,0 -0.493,-0.69 -1.272,0.007c0,0 0.579,0.477 1.272,-0.007Z" style="fill:#838d4a;fill-rule:nonzero;"/><path d="M91.341,25.734c0,0 0.744,-0.099 0.861,-0.937c0,0 -0.841,-0.108 -0.861,0.937Z" style="fill:#838d4a;fill-rule:nonzero;"/><path d="M90.237,18.658c0,0 0.799,-0.92 0.043,-2.068c0,0 -1.143,0.772 -0.043,2.068Z" style="fill:#838d4a;fill-rule:nonzero;"/><path d="M94.211,23.943c0,0 0.03,-1.218 -1.285,-1.62c0,0 -0.387,1.323 1.285,1.62Z" style="fill:#838d4a;fill-rule:nonzero;"/><path d="M93.951,24.209c0,0 -0.739,-0.722 -1.748,-0.137c0,0 0.598,1.004 1.748,0.137Z" style="fill:#838d4a;fill-rule:nonzero;"/><path d="M94.329,24.341c0,0 -1.428,0.376 -1.452,2.041c0,0 1.669,0.005 1.452,-2.041Z" style="fill:#838d4a;fill-rule:nonzero;"/><path d="M92.662,13.795c0,0 0.166,-1.159 -1.042,-1.692c0,0 -0.52,1.217 1.042,1.692Z" style="fill:#838d4a;fill-rule:nonzero;"/><path d="M92.377,12.164c0,0 0.134,-0.926 -0.831,-1.351c0,0 -0.416,0.972 0.831,1.351Z" style="fill:#838d4a;fill-rule:nonzero;"/><path d="M94.883,12.088c0,0 -1.297,0.262 -0.804,1.817c0,0 1.05,-0.519 0.804,-1.817Z" style="fill:#838d4a;fill-rule:nonzero;"/><path d="M93.52,13.652c0,0 0.746,-1.392 -0.54,-2.624c0,0 -1.22,1.304 0.54,2.624Z" style="fill:#838d4a;fill-rule:nonzero;"/><path d="M63.1,12.86c0,0 1.081,-0.336 0.526,-1.616c0,0 -0.848,0.534 -0.526,1.616Z" style="fill:#838d4a;fill-rule:nonzero;"/><path d="M69.443,19.9c0,0 0.444,1.247 1.913,0.535c0,0 -0.664,-0.964 -1.913,-0.535Z" style="fill:#838d4a;fill-rule:nonzero;"/><path d="M71.136,20.995c0,0 -1.127,-0.319 -1.815,0.808c0,0 1.138,0.677 1.815,-0.808Z" style="fill:#838d4a;fill-rule:nonzero;"/><path d="M70.774,22.894c0,0 1.078,-0.316 0.547,-1.594c0,0 -0.849,0.515 -0.547,1.594Z" style="fill:#838d4a;fill-rule:nonzero;"/><path d="M71.534,20.981c0,0 0.008,1.418 1.551,1.839c0,0 0.404,-1.551 -1.551,-1.839Z" style="fill:#838d4a;fill-rule:nonzero;"/><path d="M76.096,22.225c0,0 0.415,-1.258 -1.182,-1.597c0,0 -0.067,1.169 1.182,1.597Z" style="fill:#838d4a;fill-rule:nonzero;"/><path d="M75.431,20.322c0,0 0.694,0.943 1.929,0.475c0,0 -0.484,-1.233 -1.929,-0.475Z" style="fill:#838d4a;fill-rule:nonzero;"/><path d="M75.472,19.967c0,0 0.987,0.114 1.41,-0.923c0,0 -1.045,-0.412 -1.41,0.923Z" style="fill:#838d4a;fill-rule:nonzero;"/><path d="M92.689,8.415c0,0 -0.068,-0.71 -0.929,-0.531c0,0 0.219,0.591 0.929,0.531Z" style="fill:#838d4a;fill-rule:nonzero;"/><path d="M92.942,7.328c0,0 -0.567,-0.434 -1.023,0.319c0,0 0.583,0.242 1.023,-0.319Z" style="fill:#838d4a;fill-rule:nonzero;"/><path d="M93.639,6.827c0,0 -1.323,1.098 0.2,2.573c0,0 0.881,-1.241 -0.2,-2.573Z" style="fill:#838d4a;fill-rule:nonzero;"/><path d="M95.587,8.75c0,0 -0.609,1.609 1.444,2.14c0,0 0.154,-1.514 -1.444,-2.14Z" style="fill:#838d4a;fill-rule:nonzero;"/><path d="M95.228,7.55c0,0 -1.382,0.383 -0.728,2.026c0,0 1.095,-0.643 0.728,-2.026Z" style="fill:#838d4a;fill-rule:nonzero;"/><path d="M97.098,7.42c0,0 -0.881,-0.05 -0.824,1.037c0,0 0.765,-0.159 0.824,-1.037Z" style="fill:#838d4a;fill-rule:nonzero;"/><path d="M96.014,8.217c0,0 0.406,-0.667 -0.197,-1.31c0,0 -0.637,0.611 0.197,1.31Z" style="fill:#838d4a;fill-rule:nonzero;"/><path d="M94.549,10.694c0,0 -0.352,-0.867 -1.4,-0.748c0,0 0.132,1.049 1.4,0.748Z" style="fill:#838d4a;fill-rule:nonzero;"/><path d="M96.281,11.416c0,0 -0.042,-1.173 -1.328,-1.482c0,0 -0.295,1.293 1.328,1.482Z" style="fill:#838d4a;fill-rule:nonzero;"/><path d="M92.7,9.044c0,0 -0.781,-0.807 -1.665,0.258c0,0 0.852,0.511 1.665,-0.258Z" style="fill:#838d4a;fill-rule:nonzero;"/><path d="M89.051,13.06c0,0 -0.62,0.355 -0.101,1.066c0,0 0.448,-0.444 0.101,-1.066Z" style="fill:#838d4a;fill-rule:nonzero;"/><path d="M88.667,14.078c0,0 -0.02,-0.631 -0.711,-0.8c0,0 -0.162,0.695 0.711,0.8Z" style="fill:#838d4a;fill-rule:nonzero;"/><path d="M90.539,14.201c0,0 0.116,-0.986 -0.92,-1.41c0,0 -0.414,1.043 0.92,1.41Z" style="fill:#838d4a;fill-rule:nonzero;"/><path d="M75.012,17.684c0,0 -1.271,0.977 0.097,2.404c0,0 0.863,-1.124 -0.097,-2.404Z" style="fill:#838d4a;fill-rule:nonzero;"/><path d="M89.414,1.47c0,0 -0.672,-1.155 -1.997,-0.178c0,0 0.838,0.834 1.997,0.178Z" style="fill:#838d4a;fill-rule:nonzero;"/><path d="M88.005,2.461c0,0 -0.127,-1.329 -1.738,-0.996c0,0 0.411,1.107 1.738,0.996Z" style="fill:#838d4a;fill-rule:nonzero;"/><path d="M89.043,4.077c0,0 -0.356,-0.619 -1.067,-0.1c0,0 0.445,0.448 1.067,0.1Z" style="fill:#838d4a;fill-rule:nonzero;"/><path d="M88.824,2.983c0,0 -0.696,-0.161 -0.8,0.713c0,0 0.631,-0.021 0.8,-0.713Z" style="fill:#838d4a;fill-rule:nonzero;"/><path d="M90.498,4.499c0,0 0.289,-1.495 -1.247,-2.261c0,0 -0.751,1.547 1.247,2.261Z" style="fill:#838d4a;fill-rule:nonzero;"/><path d="M94.019,4.535c0,0 -0.485,-1.442 -2.199,-1.351c0,0 0.111,1.717 2.199,1.351Z" style="fill:#838d4a;fill-rule:nonzero;"/><path d="M91.172,4.386c0,0 0.731,-1.038 -0.176,-2.147c0,0 -1.1,0.921 0.176,2.147Z" style="fill:#838d4a;fill-rule:nonzero;"/><path d="M90.203,0.597c0,0 -1.1,0.92 0.175,2.146c0,0 0.731,-1.038 -0.175,-2.146Z" style="fill:#838d4a;fill-rule:nonzero;"/><path d="M92.646,1.348c0,0 -0.823,0.319 -0.322,1.285c0,0 0.631,-0.46 0.322,-1.285Z" style="fill:#838d4a;fill-rule:nonzero;"/><path d="M91.988,2.522c0,0 0.094,-0.775 -0.721,-1.111c0,0 -0.327,0.82 0.721,1.111Z" style="fill:#838d4a;fill-rule:nonzero;"/><path d="M95.658,6.094c0,0 -0.849,-0.807 -1.983,-0.128c0,0 0.692,1.128 1.983,0.128Z" style="fill:#838d4a;fill-rule:nonzero;"/><path d="M90.095,5.281c0,0 0.552,0.901 1.583,0.102c0,0 -0.679,-0.644 -1.583,-0.102Z" style="fill:#838d4a;fill-rule:nonzero;"/><path d="M86.329,2.37c0,0 -0.01,0.8 0.972,0.704c0,0 -0.175,-0.686 -0.972,-0.704Z" style="fill:#838d4a;fill-rule:nonzero;"/><path d="M89.791,6.398c0,0 -0.484,-1.233 -1.929,-0.475c0,0 0.694,0.943 1.929,0.475Z" style="fill:#838d4a;fill-rule:nonzero;"/><path d="M89.313,4.645c0,0 -1.044,-0.412 -1.41,0.923c0,0 0.987,0.114 1.41,-0.923Z" style="fill:#838d4a;fill-rule:nonzero;"/><path d="M87.443,3.285c0,0 -1.271,0.977 0.097,2.404c0,0 0.864,-1.125 -0.097,-2.404Z" style="fill:#838d4a;fill-rule:nonzero;"/><path d="M86.504,34.594c0,0 0.298,0.987 1.468,0.49c0,0 -0.48,-0.776 -1.468,-0.49Z" style="fill:#838d4a;fill-rule:nonzero;"/><path d="M86.455,36.206c0,0 0.925,0.454 1.358,-0.741c0,0 -0.895,-0.178 -1.358,0.741Z" style="fill:#838d4a;fill-rule:nonzero;"/><path d="M82.073,37.985c0,0 1.616,-0.441 0.859,-2.363c0,0 -1.281,0.746 -0.859,2.363Z" style="fill:#838d4a;fill-rule:nonzero;"/><path d="M83.489,36.337c0,0 -0.512,1.391 0.845,2.368c0,0 0.964,-1.37 -0.845,-2.368Z" style="fill:#838d4a;fill-rule:nonzero;"/><path d="M86.169,37.04c0,0 -0.294,-1.39 -1.957,-0.843c0,0 0.568,1.121 1.957,0.843Z" style="fill:#838d4a;fill-rule:nonzero;"/><path d="M83.83,35.898c0,0 1.79,0.126 2.47,-1.781c0,0 -1.919,-0.659 -2.47,1.781Z" style="fill:#838d4a;fill-rule:nonzero;"/><path d="M93.86,20.072c0,0 -0.949,1.462 0.968,2.429c0,0 0.477,-1.465 -0.968,-2.429Z" style="fill:#838d4a;fill-rule:nonzero;"/><path d="M93.86,32.138c0,0 -0.949,1.462 0.968,2.429c0,0 0.477,-1.466 -0.968,-2.429Z" style="fill:#838d4a;fill-rule:nonzero;"/><path d="M92.365,20.718c0,0 -0.457,-0.924 -1.528,-0.24c0,0 0.601,0.686 1.528,0.24Z" style="fill:#838d4a;fill-rule:nonzero;"/><path d="M92.147,19.121c0,0 -0.988,-0.295 -1.217,0.955c0,0 0.912,0.027 1.217,-0.955Z" style="fill:#838d4a;fill-rule:nonzero;"/><path d="M100.125,19.104c0,0 -1.522,0.702 -0.457,2.472c0,0 1.14,-0.947 0.457,-2.472Z" style="fill:#838d4a;fill-rule:nonzero;"/><path d="M98.938,21.362c0,0 0.274,-1.456 -1.225,-2.195c0,0 -0.724,1.511 1.225,2.195Z" style="fill:#838d4a;fill-rule:nonzero;"/><path d="M98.574,21.63c0,0 -0.746,-1.011 -2.071,-0.507c0,0 0.521,1.322 2.071,0.507Z" style="fill:#838d4a;fill-rule:nonzero;"/><path d="M96.86,24.027c0,0 2.001,0.333 2.14,-2.164c0,0 -1.786,0.171 -2.14,2.164Z" style="fill:#838d4a;fill-rule:nonzero;"/><path d="M95.83,57.603c-2.841,-0.051 -5.607,-0.609 -6.764,-1.767c-1.468,-1.468 -2.28,-2.164 -6.399,-1.463c-3.582,0.61 -4.386,-2.062 -4.148,-4.837c0.051,-0.593 0.396,-0.952 0.357,0.039c-0.233,5.81 4.754,3.176 7.452,3.294c2.699,0.117 2.98,2.002 4.639,3.01c3.132,1.903 7.386,0.22 7.309,-0.125c-0.125,-0.562 -1.874,0.5 -4.311,0.062c-2.117,-0.38 -3.139,-1.735 -4.664,-2.869c-1.526,-1.135 -2.118,-1.61 -4.036,-1.525c-2.147,0.096 -3.654,0.492 -4.011,-1.371c-0.7,-3.654 -3.568,-4.916 -1.982,-7.334c1.1,-1.678 0.963,-3 1.229,-5.55c0.151,-1.443 1.031,-0.714 2.73,-2.641c1.484,-1.684 2.151,-0.704 4.107,-1.291c1.955,-0.587 1.916,-1.173 2.698,-2.66c0.782,-1.486 3.096,-2.26 3.056,-0.933c-0.035,1.154 0.574,0.786 0.503,1.794c-0.048,0.707 1.352,0.804 2.226,0.095c0.647,-0.525 1.259,0.192 1.259,0.192c0,0 0.175,-0.699 -0.699,-0.734c-0.53,-0.022 -1.277,0.682 -1.75,0.35c-0.412,-0.29 -0.175,-0.959 -0.371,-1.35c-0.195,-0.392 -0.313,-1.408 -0.156,-1.878c0.156,-0.469 1.369,-1.095 2.034,-1.564c0.664,-0.47 2.229,-1.174 2.894,-1.486c0.665,-0.313 1.291,-1.096 1.682,-1.995c0.391,-0.9 1.072,-1.122 0.782,-1.213c-0.263,-0.083 -0.952,0.196 -1.529,1.526c-0.34,0.783 -1.032,1.049 -2.069,1.408c-0.96,0.331 -3.04,-0.166 -2.559,-1.95c0.072,-0.266 -0.134,-0.314 -0.283,-0.034c-0.13,0.243 -0.258,0.574 -0.287,0.967c-0.103,1.376 1.296,1.148 1.33,1.642c0.027,0.408 -0.505,0.801 -1.408,1.057c-1.846,0.522 -1.526,1.486 -2.425,1.721c-0.9,0.234 -1.409,0.156 -2.582,0.664c-1.173,0.509 -2.043,2.528 -3.324,3.247c-2.099,1.177 -3.45,0.415 -5.461,1.402c-1.281,0.63 -2.66,2.699 -2.66,2.699c0,0 -0.279,-0.051 0.075,-1.203c0.852,-2.778 -1.054,-4.667 -1.733,-7.591c-0.613,-2.644 1.606,-3.277 2.543,-3.442c1.637,-0.289 3.994,-2.109 5.241,-5.515c0.168,-0.461 0.41,-2.537 0.117,-3.599c-0.238,-0.864 1.391,1.303 4.498,1.174c1.09,-0.046 2.151,-0.313 3.403,-1.056c1.252,-0.744 2.087,-0.41 1.705,-0.704c-0.353,-0.273 -1.353,-0.235 -2.331,0.273c-0.977,0.509 -2.241,1.09 -2.777,0.587c-1.547,-1.45 -4.641,-1.252 -3.012,-2.503c1.885,-1.448 0.718,-3.797 1.881,-4.596c0.832,-0.572 2.031,0.059 2.931,0.02c0.899,-0.039 0.664,-0.861 0.782,-1.252c0.117,-0.391 0.234,-0.547 0.899,-0.743c0.665,-0.196 0.861,-0.9 0.861,-0.9c0.107,-0.314 -0.637,0.587 -1.799,0.704c-0.567,0.058 -0.274,0.939 -0.862,1.291c-0.586,0.352 -1.621,-0.243 -2.346,-0.078c-1.315,0.299 -1.904,0.455 -2.542,-0.743c-0.338,-0.635 0.587,-0.704 0.743,-1.135c0.101,-0.278 0.12,-0.648 -0.127,-0.76c-0.325,-0.027 0.178,0.805 -1.164,1.347c-0.765,0.309 -0.156,1.056 0.665,1.721c0.822,0.665 -0.19,1.723 0.196,3.481c0.201,0.917 -1.604,1.291 -2.151,1.878c-0.548,0.586 -1.174,1.173 -0.822,2.542c0.352,1.369 -0.626,3.324 -1.76,4.85c-1.134,1.525 -4.7,2.96 -6.034,2.109c-0.835,-0.531 -1.084,-3.4 -1.71,-5.981c-0.626,-2.582 2.073,-3.364 2.542,-3.599c0.47,-0.235 0.978,-0.469 1.291,0.196c0.313,0.665 0.112,1.013 1.256,1.135c0.615,0.065 0.953,0.97 1.169,0.82c0.164,-0.113 0.039,-0.899 -0.861,-1.056c-0.899,-0.156 -0.821,-1.173 -1.29,-1.799c-0.47,-0.625 -1.369,0.157 -1.682,0.078c-0.313,-0.078 0.164,-0.47 0.313,-1.838c0.237,-2.185 -0.283,-1.63 -0.283,-1.63c0,0 -0.208,0.156 -0.421,2.96c-0.101,1.327 -1.447,0.978 -2.777,1.995c-1.33,1.017 -0.822,1.799 -0.47,2.933c0.352,1.134 0.235,1.917 -0.704,1.682c-0.939,-0.235 -1.603,-2.738 -1.916,-3.676c-0.313,-0.939 -0.743,-2.856 -0.743,-2.856c0,0 -0.196,-0.782 -0.079,-1.408c0.118,-0.626 0.905,-0.743 1.079,-1.561c0.26,-1.226 -0.375,-1.098 -0.375,-1.098c0.274,0.469 0.235,1.095 -0.586,1.682c-0.747,0.533 -0.391,1.401 -0.686,1.409c-0.225,-0.034 -0.143,-0.486 -1.192,-1.331c-1.212,-0.978 -3.019,-0.833 -3.676,-1.017c-0.834,-0.234 -0.313,-1.135 -0.313,-1.135c-1.283,1.04 -0.47,1.838 1.955,2.073c2.425,0.235 2.79,1.951 3.168,3.051c0.682,1.982 0.179,1.912 0.179,1.912c-1.923,0.486 -1.456,1.744 -2.017,1.686c-0.548,-0.056 -0.513,-1.339 -1.362,-2.136c-0.561,-0.526 -2.888,-0.621 -3.744,-1.283c-0.381,-0.294 -0.502,0.104 -0.156,0.364c0.747,0.56 2.251,0.865 3.424,1.413c1.173,0.547 0.508,1.29 1.408,2.033c0.9,0.743 1.916,-0.938 2.542,-1.173c0.626,-0.235 0.743,1.291 1.213,2.973c0.469,1.681 2.112,1.369 2.972,2.073c0.861,0.703 1.847,4.424 1.59,6.494c-0.202,1.629 0.283,2.461 0.229,2.897c-0.085,0.622 -1.8,-3.486 -5.786,-3.581c-1.37,-0.033 -2.37,-0.664 -2.843,-1.205c-0.738,-0.845 -0.904,-3.028 -1.439,-3.661c-0.536,-0.633 -1.12,-0.633 -3.163,-0.681c-2.044,-0.049 -3.017,-0.341 -3.747,-1.606c-0.73,-1.265 1.235,-1.943 1.314,-3.455c0.041,-0.785 -1.336,-0.961 -1.613,-2.937c-0.131,-0.93 -0.675,-0.543 -0.347,0.59c0.208,0.718 0.815,1.005 0.987,2.007c0.141,0.819 -0.682,1.362 -1.022,1.849c-0.341,0.486 -0.633,1.751 0.681,3.6c1.314,1.849 5.351,0.36 6.131,1.363c1.786,2.295 0.694,2.261 -1.946,2.238c-2.023,-0.017 -2.179,1.594 -3.947,1.646c-1.326,0.039 -2.868,-1.515 -3.303,-1.646c-0.974,-0.292 -2.044,0.584 -2.871,0.681c-0.828,0.098 -1.655,-0.632 -1.898,-1.216c-0.244,-0.584 -0.876,-1.557 -1.12,-1.849c-0.243,-0.292 -0.698,-0.648 -1.525,-0.794c-0.827,-0.146 -1.783,-0.763 -1.783,-0.763c0,0 1.133,1.09 2.263,1.618c0.901,0.421 1.409,1.92 2.09,3.185c0.681,1.265 1.875,0.501 3.092,0.355c1.217,-0.146 1.265,-0.536 2.53,0.194c1.265,0.73 1.435,1.271 1.314,1.558c-0.799,1.884 -2.032,0.662 -2.775,2.577c-0.451,1.161 -0.811,1.837 -1.421,2.01c-1.837,0.52 -2.063,1.179 -2.063,1.179c0,0 -0.052,0.485 0.884,-0.277c0.979,-0.798 1.547,-0.718 2.323,-0.936c0.91,-0.257 0.765,-0.904 1.251,-0.904c0.487,0 1.279,0.921 1.019,1.909c-0.089,0.339 -0.381,0.52 -0.676,0.953c-0.357,0.525 -0.294,1.177 -0.294,1.177c0.311,0.088 0.19,-0.588 0.831,-1.038c0.864,-0.607 1.115,-1.59 0.337,-2.466c-0.779,-0.876 0.458,-1.937 0.778,-2.676c0.67,-1.548 2.611,-1.843 3.305,-2.9c0.908,-1.385 3.969,-0.416 6.204,0.901c1.422,0.838 1.564,1.153 1.369,1.543c-0.194,0.389 -0.359,1.247 -0.329,2.08c0.07,1.923 -1.664,1.993 -2.13,2.95c-0.397,0.814 -0.175,1.521 -0.175,1.521c0,0 0.277,0.411 0.277,-0.416c0,-0.827 0.424,-1.33 1.357,-1.592c1,-0.28 1.071,-0.486 1.168,-1.654c0.098,-1.168 0.292,-2.579 1.168,-3.066c0.876,-0.486 2.384,-0.729 3.504,1.509c1.119,2.238 -0.304,5.143 -1.168,6.472c-4.012,6.164 -1.554,7.178 -0.451,11.786c1.295,5.411 -1.071,8.78 -10.036,9.038c-4.023,0.116 -5.774,2.053 -5.235,2.921c5.604,-2.271 12.948,-3.652 20.996,-3.652c9.345,0 17.749,1.858 23.571,4.816c0.898,-1.104 -1.071,-3.233 -4.414,-3.293Z" style="fill:#231f20;fill-rule:nonzero;"/></g></svg>