<?xml version="1.0" encoding="UTF-8" standalone="no"?>
<!DOCTYPE svg PUBLIC "-//W3C//DTD SVG 1.1//EN" "http://www.w3.org/Graphics/SVG/1.1/DTD/svg11.dtd">
<svg width="100%" height="100%" viewBox="0 0 61 135" version="1.1" xmlns="http://www.w3.org/2000/svg" xmlns:xlink="http://www.w3.org/1999/xlink" xml:space="preserve" xmlns:serif="http://www.serif.com/" style="fill-rule:evenodd;clip-rule:evenodd;stroke-linejoin:round;stroke-miterlimit:2;">
    <g transform="matrix(1,0,0,1,-2774,-2082)">
        <g transform="matrix(1,0,0,1,2104,-1)">
            <g transform="matrix(1,0,0,1,-6.31285,19.125)">
                <g transform="matrix(1,0,0,1,-1704.57,395.503)">
                    <text x="2379.78px" y="1802.59px" style="font-family:'OpenSans-Semibold', 'Open Sans', sans-serif;font-weight:600;font-size:16px;fill:rgb(173,156,127);">1<tspan x="2388.59px 2392.43px 2402.67px 2409.25px 2413.39px 2423.22px 2432.87px " y="1802.59px 1802.59px 1802.59px 1802.59px 1802.59px 1802.59px 1802.59px "> Brinde</tspan></text>
                </g>
                <g transform="matrix(0.706277,0,0,0.706277,583.826,1983.31)">
                    <rect x="131" y="147" width="32" height="18" style="fill:rgb(173,156,127);fill-rule:nonzero;"/>
                    <rect x="184" y="147" width="32" height="18" style="fill:rgb(173,156,127);fill-rule:nonzero;"/>
                    <rect x="136" y="169" width="27" height="45" style="fill:rgb(173,156,127);fill-rule:nonzero;"/>
                    <rect x="184" y="169" width="27" height="45" style="fill:rgb(173,156,127);fill-rule:nonzero;"/>
                    <path d="M184,147L184,146L174.825,146C172.741,150.906 170.121,161.329 176.683,175.11L171.266,177.69C164.631,163.756 166.204,152.59 168.432,146L163,146L163,216L184,216L184,214L184,169L184,165L184,147Z" style="fill:white;fill-rule:nonzero;"/>
                    <path d="M150.758,129.841C149.426,127.453 149.482,125.06 150.924,122.726C151.834,121.25 153.115,120.534 154.837,120.534C159.57,120.534 167.363,126.281 170.417,138.554C162.14,138.891 153.701,135.117 150.758,129.841ZM193.163,120.534C194.885,120.534 196.166,121.25 197.077,122.726C198.518,125.06 198.574,127.453 197.242,129.841C194.299,135.117 185.869,138.893 177.583,138.554C180.637,126.281 188.43,120.534 193.163,120.534ZM171.266,177.69L176.683,175.11C170.121,161.329 172.741,150.906 174.825,146C175.086,145.384 175.34,144.851 175.565,144.413C176.569,144.51 177.582,144.575 178.6,144.575C188.782,144.575 198.604,139.717 202.482,132.763C204.883,128.458 204.776,123.774 202.182,119.573C200.174,116.323 196.972,114.534 193.163,114.534C184.943,114.534 177.957,121.798 174,130.778C170.043,121.798 163.057,114.534 154.837,114.534C151.028,114.534 147.826,116.323 145.819,119.573C143.224,123.774 143.117,128.458 145.518,132.763C149.339,139.615 158.929,144.42 168.95,144.562C168.775,145.011 168.602,145.496 168.432,146C166.204,152.59 164.631,163.756 171.266,177.69Z" style="fill:rgb(173,156,127);fill-rule:nonzero;"/>
                </g>
            </g>
        </g>
    </g>
</svg>
