<?xml version="1.0" encoding="UTF-8" standalone="no"?>
<!DOCTYPE svg PUBLIC "-//W3C//DTD SVG 1.1//EN" "http://www.w3.org/Graphics/SVG/1.1/DTD/svg11.dtd">
<svg width="100%" height="100%" viewBox="0 0 132 152" version="1.1" xmlns="http://www.w3.org/2000/svg" xmlns:xlink="http://www.w3.org/1999/xlink" xml:space="preserve" xmlns:serif="http://www.serif.com/" style="fill-rule:evenodd;clip-rule:evenodd;stroke-linejoin:round;stroke-miterlimit:2;">
    <g transform="matrix(1,0,0,1,-2433,-2065)">
        <g transform="matrix(1,0,0,1,2104,-1)">
            <g transform="matrix(0.829468,0,0,0.829468,44.7883,384.673)">
                <g transform="matrix(0.290556,0,0,0.290556,27.8596,1434.03)">
                    <g transform="matrix(4.16667,0,0,4.16667,16,1282.33)">
                        <path d="M306.967,218.806C306.929,223.073 306.89,227.338 306.852,231.605C306.836,233.248 306.941,234.947 306.806,236.584C306.542,239.798 303.692,240.114 300.827,240.145C297.788,240.178 293.871,240.923 290.948,240.123C287.985,239.31 287.928,237.47 287.928,235.116C287.928,228.359 287.762,221.581 287.928,214.827C287.956,213.697 288.029,212.579 288.274,211.47C288.747,209.332 289.985,208.314 291.155,206.679C291.508,206.186 291.638,205.583 291.731,204.965C295.414,205.232 299.091,205.167 302.766,204.792C302.855,205.299 302.973,205.781 303.158,206.183C303.249,206.386 303.238,206.563 303.383,206.758C304.003,207.593 304.93,207.71 305.588,208.658C306.124,209.429 306.412,210.373 306.633,211.275C307.227,213.69 306.99,216.342 306.967,218.806ZM297.727,184.433C298.7,184.452 300.06,184.317 300.99,184.587C301.707,184.796 302.034,185.233 302.226,185.777C301.967,185.748 301.711,185.737 301.499,185.794C301.282,185.853 301.1,186.03 300.914,186.15C300.848,186.191 300.815,186.223 300.78,186.255C300.326,186.106 299.803,185.697 299.311,185.686C298.797,185.674 297.965,186.179 297.716,186.185C297.531,186.188 296.718,185.81 296.289,185.795C295.833,185.78 295.076,186.095 294.837,186.078C294.602,186.061 293.877,185.586 293.438,185.533C293.216,185.505 292.968,185.523 292.716,185.555C293.759,184.143 295.821,184.396 297.727,184.433ZM294.031,190.157C296.205,190.372 298.438,190.381 300.61,190.082C300.73,191.316 300.889,192.548 301.072,193.779C298.565,194.037 296.081,194.205 293.568,193.948C293.75,192.685 293.909,191.421 294.031,190.157ZM295.079,187.449C295.742,187.437 296.058,187.223 296.404,187.264C296.922,187.326 297.369,187.604 297.899,187.569C298.17,187.55 298.936,187.249 299.164,187.124C299.301,187.186 299.647,187.279 299.726,187.317C299.92,187.41 300.266,187.615 300.494,187.643C300.807,187.682 300.958,187.64 301.113,187.57C301.253,187.81 301.397,188.062 301.574,188.249C301.581,188.262 301.587,188.276 301.595,188.289C301.569,188.322 301.541,188.356 301.527,188.371C301.444,188.451 301.356,188.525 301.267,188.599C301.248,188.602 301.233,188.595 301.213,188.599C298.674,189.069 295.985,189 293.431,188.705L293.428,188.705C293.299,188.581 293.169,188.463 293.044,188.369C293.045,188.363 293.046,188.36 293.047,188.353C293.071,188.283 293.096,188.213 293.123,188.145C293.245,187.83 293.382,187.522 293.502,187.206C293.989,187.317 294.466,187.46 295.079,187.449ZM302.585,203.408C299.041,203.759 295.494,203.822 291.941,203.577C292.413,200.84 292.922,198.09 293.355,195.332C296.011,195.63 298.631,195.436 301.28,195.16C301.627,197.337 302.024,199.509 302.387,201.673C302.474,202.187 302.524,202.789 302.585,203.408ZM308.3,226.233C308.334,222.456 308.459,218.665 308.403,214.887C308.375,213.058 308.218,211.205 307.548,209.482C306.842,207.67 305.075,206.758 304.443,205.44C303.463,203.396 303.501,199.917 303.139,197.696C302.712,195.081 302.226,192.452 301.979,189.813C302.247,189.499 302.72,189.244 302.933,188.838C303.216,188.3 302.942,187.754 302.616,187.264C302.771,187.273 302.94,187.287 303.144,187.305C303.632,187.351 303.895,186.824 303.819,186.419C303.645,185.494 303.327,184.169 302.522,183.578C301.376,182.735 299.045,183.061 297.727,183.034C296.358,183.004 293.766,182.661 292.489,183.369C291.494,183.92 291.096,185.317 290.843,186.346C290.785,186.583 290.847,186.78 290.965,186.928C291.093,187.128 291.317,187.25 291.599,187.214C291.609,187.214 291.619,187.213 291.628,187.212C291.655,187.207 291.677,187.214 291.704,187.206C291.816,187.176 291.916,187.162 292.02,187.143C291.761,187.712 291.438,188.365 291.721,188.924C291.845,189.169 292.062,189.374 292.256,189.565C292.372,189.677 292.492,189.786 292.607,189.898C292.614,189.905 292.632,189.925 292.654,189.95C292.203,194.808 291.203,199.655 290.374,204.458C290.076,206.192 288.937,206.469 288.036,208.052C286.978,209.911 286.633,212.12 286.542,214.228C286.227,221.581 286.243,229.149 286.528,236.501C286.747,242.143 291.807,241.733 296.177,241.637C299.857,241.557 307.447,242.911 308.197,237.711C308.726,234.039 308.267,229.938 308.3,226.233Z" style="fill:rgb(173,156,127);fill-rule:nonzero;"/>
                    </g>
                    <g transform="matrix(4.16667,0,0,4.16667,16,1282.33)">
                        <path d="M297.725,233.289C288.978,234.148 289.287,216.739 297.209,215.419C305.81,215.415 306.032,232.474 297.725,233.289ZM297.156,214.017C297.106,214.017 297.069,214.037 297.024,214.045C297.005,214.046 296.99,214.039 296.97,214.041C287.266,215.416 287.35,236.209 297.92,234.745C308.039,233.342 307.508,213.924 297.156,214.017Z" style="fill:rgb(173,156,127);fill-rule:nonzero;"/>
                    </g>
                    <g transform="matrix(4.16667,0,0,4.16667,16,1282.33)">
                        <path d="M290.909,214.731C291.171,213.153 291.866,211.782 293.006,210.657C293.648,210.023 292.658,209.033 292.016,209.666C290.72,210.946 289.858,212.559 289.558,214.359C289.412,215.24 290.76,215.62 290.909,214.731Z" style="fill:rgb(173,156,127);fill-rule:nonzero;"/>
                    </g>
                    <g transform="matrix(4.16667,0,0,4.16667,16,1282.33)">
                        <path d="M293.64,209.185C294.54,209.185 294.542,207.785 293.64,207.785C292.739,207.785 292.738,209.185 293.64,209.185Z" style="fill:rgb(173,156,127);fill-rule:nonzero;"/>
                    </g>
                </g>
                <g transform="matrix(0.290556,0,0,0.290556,56.6754,1434.03)">
                    <g transform="matrix(4.16667,0,0,4.16667,16,1282.33)">
                        <path d="M306.967,218.806C306.929,223.073 306.89,227.338 306.852,231.605C306.836,233.248 306.941,234.947 306.806,236.584C306.542,239.798 303.692,240.114 300.827,240.145C297.788,240.178 293.871,240.923 290.948,240.123C287.985,239.31 287.928,237.47 287.928,235.116C287.928,228.359 287.762,221.581 287.928,214.827C287.956,213.697 288.029,212.579 288.274,211.47C288.747,209.332 289.985,208.314 291.155,206.679C291.508,206.186 291.638,205.583 291.731,204.965C295.414,205.232 299.091,205.167 302.766,204.792C302.855,205.299 302.973,205.781 303.158,206.183C303.249,206.386 303.238,206.563 303.383,206.758C304.003,207.593 304.93,207.71 305.588,208.658C306.124,209.429 306.412,210.373 306.633,211.275C307.227,213.69 306.99,216.342 306.967,218.806ZM297.727,184.433C298.7,184.452 300.06,184.317 300.99,184.587C301.707,184.796 302.034,185.233 302.226,185.777C301.967,185.748 301.711,185.737 301.499,185.794C301.282,185.853 301.1,186.03 300.914,186.15C300.848,186.191 300.815,186.223 300.78,186.255C300.326,186.106 299.803,185.697 299.311,185.686C298.797,185.674 297.965,186.179 297.716,186.185C297.531,186.188 296.718,185.81 296.289,185.795C295.833,185.78 295.076,186.095 294.837,186.078C294.602,186.061 293.877,185.586 293.438,185.533C293.216,185.505 292.968,185.523 292.716,185.555C293.759,184.143 295.821,184.396 297.727,184.433ZM294.031,190.157C296.205,190.372 298.438,190.381 300.61,190.082C300.73,191.316 300.889,192.548 301.072,193.779C298.565,194.037 296.081,194.205 293.568,193.948C293.75,192.685 293.909,191.421 294.031,190.157ZM295.079,187.449C295.742,187.437 296.058,187.223 296.404,187.264C296.922,187.326 297.369,187.604 297.899,187.569C298.17,187.55 298.936,187.249 299.164,187.124C299.301,187.186 299.647,187.279 299.726,187.317C299.92,187.41 300.266,187.615 300.494,187.643C300.807,187.682 300.958,187.64 301.113,187.57C301.253,187.81 301.397,188.062 301.574,188.249C301.581,188.262 301.587,188.276 301.595,188.289C301.569,188.322 301.541,188.356 301.527,188.371C301.444,188.451 301.356,188.525 301.267,188.599C301.248,188.602 301.233,188.595 301.213,188.599C298.674,189.069 295.985,189 293.431,188.705L293.428,188.705C293.299,188.581 293.169,188.463 293.044,188.369C293.045,188.363 293.046,188.36 293.047,188.353C293.071,188.283 293.096,188.213 293.123,188.145C293.245,187.83 293.382,187.522 293.502,187.206C293.989,187.317 294.466,187.46 295.079,187.449ZM302.585,203.408C299.041,203.759 295.494,203.822 291.941,203.577C292.413,200.84 292.922,198.09 293.355,195.332C296.011,195.63 298.631,195.436 301.28,195.16C301.627,197.337 302.024,199.509 302.387,201.673C302.474,202.187 302.524,202.789 302.585,203.408ZM308.3,226.233C308.334,222.456 308.459,218.665 308.403,214.887C308.375,213.058 308.218,211.205 307.548,209.482C306.842,207.67 305.075,206.758 304.443,205.44C303.463,203.396 303.501,199.917 303.139,197.696C302.712,195.081 302.226,192.452 301.979,189.813C302.247,189.499 302.72,189.244 302.933,188.838C303.216,188.3 302.942,187.754 302.616,187.264C302.771,187.273 302.94,187.287 303.144,187.305C303.632,187.351 303.895,186.824 303.819,186.419C303.645,185.494 303.327,184.169 302.522,183.578C301.376,182.735 299.045,183.061 297.727,183.034C296.358,183.004 293.766,182.661 292.489,183.369C291.494,183.92 291.096,185.317 290.843,186.346C290.785,186.583 290.847,186.78 290.965,186.928C291.093,187.128 291.317,187.25 291.599,187.214C291.609,187.214 291.619,187.213 291.628,187.212C291.655,187.207 291.677,187.214 291.704,187.206C291.816,187.176 291.916,187.162 292.02,187.143C291.761,187.712 291.438,188.365 291.721,188.924C291.845,189.169 292.062,189.374 292.256,189.565C292.372,189.677 292.492,189.786 292.607,189.898C292.614,189.905 292.632,189.925 292.654,189.95C292.203,194.808 291.203,199.655 290.374,204.458C290.076,206.192 288.937,206.469 288.036,208.052C286.978,209.911 286.633,212.12 286.542,214.228C286.227,221.581 286.243,229.149 286.528,236.501C286.747,242.143 291.807,241.733 296.177,241.637C299.857,241.557 307.447,242.911 308.197,237.711C308.726,234.039 308.267,229.938 308.3,226.233Z" style="fill:rgb(173,156,127);fill-rule:nonzero;"/>
                    </g>
                    <g transform="matrix(4.16667,0,0,4.16667,16,1282.33)">
                        <path d="M297.725,233.289C288.978,234.148 289.287,216.739 297.209,215.419C305.81,215.415 306.032,232.474 297.725,233.289ZM297.156,214.017C297.106,214.017 297.069,214.037 297.024,214.045C297.005,214.046 296.99,214.039 296.97,214.041C287.266,215.416 287.35,236.209 297.92,234.745C308.039,233.342 307.508,213.924 297.156,214.017Z" style="fill:rgb(173,156,127);fill-rule:nonzero;"/>
                    </g>
                    <g transform="matrix(4.16667,0,0,4.16667,16,1282.33)">
                        <path d="M290.909,214.731C291.171,213.153 291.866,211.782 293.006,210.657C293.648,210.023 292.658,209.033 292.016,209.666C290.72,210.946 289.858,212.559 289.558,214.359C289.412,215.24 290.76,215.62 290.909,214.731Z" style="fill:rgb(173,156,127);fill-rule:nonzero;"/>
                    </g>
                    <g transform="matrix(4.16667,0,0,4.16667,16,1282.33)">
                        <path d="M293.64,209.185C294.54,209.185 294.542,207.785 293.64,207.785C292.739,207.785 292.738,209.185 293.64,209.185Z" style="fill:rgb(173,156,127);fill-rule:nonzero;"/>
                    </g>
                </g>
                <g transform="matrix(0.290556,0,0,0.290556,85.4912,1434.03)">
                    <g transform="matrix(4.16667,0,0,4.16667,16,1282.33)">
                        <path d="M306.967,218.806C306.929,223.073 306.89,227.338 306.852,231.605C306.836,233.248 306.941,234.947 306.806,236.584C306.542,239.798 303.692,240.114 300.827,240.145C297.788,240.178 293.871,240.923 290.948,240.123C287.985,239.31 287.928,237.47 287.928,235.116C287.928,228.359 287.762,221.581 287.928,214.827C287.956,213.697 288.029,212.579 288.274,211.47C288.747,209.332 289.985,208.314 291.155,206.679C291.508,206.186 291.638,205.583 291.731,204.965C295.414,205.232 299.091,205.167 302.766,204.792C302.855,205.299 302.973,205.781 303.158,206.183C303.249,206.386 303.238,206.563 303.383,206.758C304.003,207.593 304.93,207.71 305.588,208.658C306.124,209.429 306.412,210.373 306.633,211.275C307.227,213.69 306.99,216.342 306.967,218.806ZM297.727,184.433C298.7,184.452 300.06,184.317 300.99,184.587C301.707,184.796 302.034,185.233 302.226,185.777C301.967,185.748 301.711,185.737 301.499,185.794C301.282,185.853 301.1,186.03 300.914,186.15C300.848,186.191 300.815,186.223 300.78,186.255C300.326,186.106 299.803,185.697 299.311,185.686C298.797,185.674 297.965,186.179 297.716,186.185C297.531,186.188 296.718,185.81 296.289,185.795C295.833,185.78 295.076,186.095 294.837,186.078C294.602,186.061 293.877,185.586 293.438,185.533C293.216,185.505 292.968,185.523 292.716,185.555C293.759,184.143 295.821,184.396 297.727,184.433ZM294.031,190.157C296.205,190.372 298.438,190.381 300.61,190.082C300.73,191.316 300.889,192.548 301.072,193.779C298.565,194.037 296.081,194.205 293.568,193.948C293.75,192.685 293.909,191.421 294.031,190.157ZM295.079,187.449C295.742,187.437 296.058,187.223 296.404,187.264C296.922,187.326 297.369,187.604 297.899,187.569C298.17,187.55 298.936,187.249 299.164,187.124C299.301,187.186 299.647,187.279 299.726,187.317C299.92,187.41 300.266,187.615 300.494,187.643C300.807,187.682 300.958,187.64 301.113,187.57C301.253,187.81 301.397,188.062 301.574,188.249C301.581,188.262 301.587,188.276 301.595,188.289C301.569,188.322 301.541,188.356 301.527,188.371C301.444,188.451 301.356,188.525 301.267,188.599C301.248,188.602 301.233,188.595 301.213,188.599C298.674,189.069 295.985,189 293.431,188.705L293.428,188.705C293.299,188.581 293.169,188.463 293.044,188.369C293.045,188.363 293.046,188.36 293.047,188.353C293.071,188.283 293.096,188.213 293.123,188.145C293.245,187.83 293.382,187.522 293.502,187.206C293.989,187.317 294.466,187.46 295.079,187.449ZM302.585,203.408C299.041,203.759 295.494,203.822 291.941,203.577C292.413,200.84 292.922,198.09 293.355,195.332C296.011,195.63 298.631,195.436 301.28,195.16C301.627,197.337 302.024,199.509 302.387,201.673C302.474,202.187 302.524,202.789 302.585,203.408ZM308.3,226.233C308.334,222.456 308.459,218.665 308.403,214.887C308.375,213.058 308.218,211.205 307.548,209.482C306.842,207.67 305.075,206.758 304.443,205.44C303.463,203.396 303.501,199.917 303.139,197.696C302.712,195.081 302.226,192.452 301.979,189.813C302.247,189.499 302.72,189.244 302.933,188.838C303.216,188.3 302.942,187.754 302.616,187.264C302.771,187.273 302.94,187.287 303.144,187.305C303.632,187.351 303.895,186.824 303.819,186.419C303.645,185.494 303.327,184.169 302.522,183.578C301.376,182.735 299.045,183.061 297.727,183.034C296.358,183.004 293.766,182.661 292.489,183.369C291.494,183.92 291.096,185.317 290.843,186.346C290.785,186.583 290.847,186.78 290.965,186.928C291.093,187.128 291.317,187.25 291.599,187.214C291.609,187.214 291.619,187.213 291.628,187.212C291.655,187.207 291.677,187.214 291.704,187.206C291.816,187.176 291.916,187.162 292.02,187.143C291.761,187.712 291.438,188.365 291.721,188.924C291.845,189.169 292.062,189.374 292.256,189.565C292.372,189.677 292.492,189.786 292.607,189.898C292.614,189.905 292.632,189.925 292.654,189.95C292.203,194.808 291.203,199.655 290.374,204.458C290.076,206.192 288.937,206.469 288.036,208.052C286.978,209.911 286.633,212.12 286.542,214.228C286.227,221.581 286.243,229.149 286.528,236.501C286.747,242.143 291.807,241.733 296.177,241.637C299.857,241.557 307.447,242.911 308.197,237.711C308.726,234.039 308.267,229.938 308.3,226.233Z" style="fill:rgb(173,156,127);fill-rule:nonzero;"/>
                    </g>
                    <g transform="matrix(4.16667,0,0,4.16667,16,1282.33)">
                        <path d="M297.725,233.289C288.978,234.148 289.287,216.739 297.209,215.419C305.81,215.415 306.032,232.474 297.725,233.289ZM297.156,214.017C297.106,214.017 297.069,214.037 297.024,214.045C297.005,214.046 296.99,214.039 296.97,214.041C287.266,215.416 287.35,236.209 297.92,234.745C308.039,233.342 307.508,213.924 297.156,214.017Z" style="fill:rgb(173,156,127);fill-rule:nonzero;"/>
                    </g>
                    <g transform="matrix(4.16667,0,0,4.16667,16,1282.33)">
                        <path d="M290.909,214.731C291.171,213.153 291.866,211.782 293.006,210.657C293.648,210.023 292.658,209.033 292.016,209.666C290.72,210.946 289.858,212.559 289.558,214.359C289.412,215.24 290.76,215.62 290.909,214.731Z" style="fill:rgb(173,156,127);fill-rule:nonzero;"/>
                    </g>
                    <g transform="matrix(4.16667,0,0,4.16667,16,1282.33)">
                        <path d="M293.64,209.185C294.54,209.185 294.542,207.785 293.64,207.785C292.739,207.785 292.738,209.185 293.64,209.185Z" style="fill:rgb(173,156,127);fill-rule:nonzero;"/>
                    </g>
                </g>
                <g transform="matrix(0.290556,0,0,0.290556,28.8395,1509.62)">
                    <g transform="matrix(4.16667,0,0,4.16667,16,1282.33)">
                        <path d="M306.967,218.806C306.929,223.073 306.89,227.338 306.852,231.605C306.836,233.248 306.941,234.947 306.806,236.584C306.542,239.798 303.692,240.114 300.827,240.145C297.788,240.178 293.871,240.923 290.948,240.123C287.985,239.31 287.928,237.47 287.928,235.116C287.928,228.359 287.762,221.581 287.928,214.827C287.956,213.697 288.029,212.579 288.274,211.47C288.747,209.332 289.985,208.314 291.155,206.679C291.508,206.186 291.638,205.583 291.731,204.965C295.414,205.232 299.091,205.167 302.766,204.792C302.855,205.299 302.973,205.781 303.158,206.183C303.249,206.386 303.238,206.563 303.383,206.758C304.003,207.593 304.93,207.71 305.588,208.658C306.124,209.429 306.412,210.373 306.633,211.275C307.227,213.69 306.99,216.342 306.967,218.806ZM297.727,184.433C298.7,184.452 300.06,184.317 300.99,184.587C301.707,184.796 302.034,185.233 302.226,185.777C301.967,185.748 301.711,185.737 301.499,185.794C301.282,185.853 301.1,186.03 300.914,186.15C300.848,186.191 300.815,186.223 300.78,186.255C300.326,186.106 299.803,185.697 299.311,185.686C298.797,185.674 297.965,186.179 297.716,186.185C297.531,186.188 296.718,185.81 296.289,185.795C295.833,185.78 295.076,186.095 294.837,186.078C294.602,186.061 293.877,185.586 293.438,185.533C293.216,185.505 292.968,185.523 292.716,185.555C293.759,184.143 295.821,184.396 297.727,184.433ZM294.031,190.157C296.205,190.372 298.438,190.381 300.61,190.082C300.73,191.316 300.889,192.548 301.072,193.779C298.565,194.037 296.081,194.205 293.568,193.948C293.75,192.685 293.909,191.421 294.031,190.157ZM295.079,187.449C295.742,187.437 296.058,187.223 296.404,187.264C296.922,187.326 297.369,187.604 297.899,187.569C298.17,187.55 298.936,187.249 299.164,187.124C299.301,187.186 299.647,187.279 299.726,187.317C299.92,187.41 300.266,187.615 300.494,187.643C300.807,187.682 300.958,187.64 301.113,187.57C301.253,187.81 301.397,188.062 301.574,188.249C301.581,188.262 301.587,188.276 301.595,188.289C301.569,188.322 301.541,188.356 301.527,188.371C301.444,188.451 301.356,188.525 301.267,188.599C301.248,188.602 301.233,188.595 301.213,188.599C298.674,189.069 295.985,189 293.431,188.705L293.428,188.705C293.299,188.581 293.169,188.463 293.044,188.369C293.045,188.363 293.046,188.36 293.047,188.353C293.071,188.283 293.096,188.213 293.123,188.145C293.245,187.83 293.382,187.522 293.502,187.206C293.989,187.317 294.466,187.46 295.079,187.449ZM302.585,203.408C299.041,203.759 295.494,203.822 291.941,203.577C292.413,200.84 292.922,198.09 293.355,195.332C296.011,195.63 298.631,195.436 301.28,195.16C301.627,197.337 302.024,199.509 302.387,201.673C302.474,202.187 302.524,202.789 302.585,203.408ZM308.3,226.233C308.334,222.456 308.459,218.665 308.403,214.887C308.375,213.058 308.218,211.205 307.548,209.482C306.842,207.67 305.075,206.758 304.443,205.44C303.463,203.396 303.501,199.917 303.139,197.696C302.712,195.081 302.226,192.452 301.979,189.813C302.247,189.499 302.72,189.244 302.933,188.838C303.216,188.3 302.942,187.754 302.616,187.264C302.771,187.273 302.94,187.287 303.144,187.305C303.632,187.351 303.895,186.824 303.819,186.419C303.645,185.494 303.327,184.169 302.522,183.578C301.376,182.735 299.045,183.061 297.727,183.034C296.358,183.004 293.766,182.661 292.489,183.369C291.494,183.92 291.096,185.317 290.843,186.346C290.785,186.583 290.847,186.78 290.965,186.928C291.093,187.128 291.317,187.25 291.599,187.214C291.609,187.214 291.619,187.213 291.628,187.212C291.655,187.207 291.677,187.214 291.704,187.206C291.816,187.176 291.916,187.162 292.02,187.143C291.761,187.712 291.438,188.365 291.721,188.924C291.845,189.169 292.062,189.374 292.256,189.565C292.372,189.677 292.492,189.786 292.607,189.898C292.614,189.905 292.632,189.925 292.654,189.95C292.203,194.808 291.203,199.655 290.374,204.458C290.076,206.192 288.937,206.469 288.036,208.052C286.978,209.911 286.633,212.12 286.542,214.228C286.227,221.581 286.243,229.149 286.528,236.501C286.747,242.143 291.807,241.733 296.177,241.637C299.857,241.557 307.447,242.911 308.197,237.711C308.726,234.039 308.267,229.938 308.3,226.233Z" style="fill:rgb(173,156,127);fill-rule:nonzero;"/>
                    </g>
                    <g transform="matrix(4.16667,0,0,4.16667,16,1282.33)">
                        <path d="M297.725,233.289C288.978,234.148 289.287,216.739 297.209,215.419C305.81,215.415 306.032,232.474 297.725,233.289ZM297.156,214.017C297.106,214.017 297.069,214.037 297.024,214.045C297.005,214.046 296.99,214.039 296.97,214.041C287.266,215.416 287.35,236.209 297.92,234.745C308.039,233.342 307.508,213.924 297.156,214.017Z" style="fill:rgb(173,156,127);fill-rule:nonzero;"/>
                    </g>
                    <g transform="matrix(4.16667,0,0,4.16667,16,1282.33)">
                        <path d="M290.909,214.731C291.171,213.153 291.866,211.782 293.006,210.657C293.648,210.023 292.658,209.033 292.016,209.666C290.72,210.946 289.858,212.559 289.558,214.359C289.412,215.24 290.76,215.62 290.909,214.731Z" style="fill:rgb(173,156,127);fill-rule:nonzero;"/>
                    </g>
                    <g transform="matrix(4.16667,0,0,4.16667,16,1282.33)">
                        <path d="M293.64,209.185C294.54,209.185 294.542,207.785 293.64,207.785C292.739,207.785 292.738,209.185 293.64,209.185Z" style="fill:rgb(173,156,127);fill-rule:nonzero;"/>
                    </g>
                </g>
                <g transform="matrix(0.290556,0,0,0.290556,57.6553,1509.62)">
                    <g transform="matrix(4.16667,0,0,4.16667,16,1282.33)">
                        <path d="M306.967,218.806C306.929,223.073 306.89,227.338 306.852,231.605C306.836,233.248 306.941,234.947 306.806,236.584C306.542,239.798 303.692,240.114 300.827,240.145C297.788,240.178 293.871,240.923 290.948,240.123C287.985,239.31 287.928,237.47 287.928,235.116C287.928,228.359 287.762,221.581 287.928,214.827C287.956,213.697 288.029,212.579 288.274,211.47C288.747,209.332 289.985,208.314 291.155,206.679C291.508,206.186 291.638,205.583 291.731,204.965C295.414,205.232 299.091,205.167 302.766,204.792C302.855,205.299 302.973,205.781 303.158,206.183C303.249,206.386 303.238,206.563 303.383,206.758C304.003,207.593 304.93,207.71 305.588,208.658C306.124,209.429 306.412,210.373 306.633,211.275C307.227,213.69 306.99,216.342 306.967,218.806ZM297.727,184.433C298.7,184.452 300.06,184.317 300.99,184.587C301.707,184.796 302.034,185.233 302.226,185.777C301.967,185.748 301.711,185.737 301.499,185.794C301.282,185.853 301.1,186.03 300.914,186.15C300.848,186.191 300.815,186.223 300.78,186.255C300.326,186.106 299.803,185.697 299.311,185.686C298.797,185.674 297.965,186.179 297.716,186.185C297.531,186.188 296.718,185.81 296.289,185.795C295.833,185.78 295.076,186.095 294.837,186.078C294.602,186.061 293.877,185.586 293.438,185.533C293.216,185.505 292.968,185.523 292.716,185.555C293.759,184.143 295.821,184.396 297.727,184.433ZM294.031,190.157C296.205,190.372 298.438,190.381 300.61,190.082C300.73,191.316 300.889,192.548 301.072,193.779C298.565,194.037 296.081,194.205 293.568,193.948C293.75,192.685 293.909,191.421 294.031,190.157ZM295.079,187.449C295.742,187.437 296.058,187.223 296.404,187.264C296.922,187.326 297.369,187.604 297.899,187.569C298.17,187.55 298.936,187.249 299.164,187.124C299.301,187.186 299.647,187.279 299.726,187.317C299.92,187.41 300.266,187.615 300.494,187.643C300.807,187.682 300.958,187.64 301.113,187.57C301.253,187.81 301.397,188.062 301.574,188.249C301.581,188.262 301.587,188.276 301.595,188.289C301.569,188.322 301.541,188.356 301.527,188.371C301.444,188.451 301.356,188.525 301.267,188.599C301.248,188.602 301.233,188.595 301.213,188.599C298.674,189.069 295.985,189 293.431,188.705L293.428,188.705C293.299,188.581 293.169,188.463 293.044,188.369C293.045,188.363 293.046,188.36 293.047,188.353C293.071,188.283 293.096,188.213 293.123,188.145C293.245,187.83 293.382,187.522 293.502,187.206C293.989,187.317 294.466,187.46 295.079,187.449ZM302.585,203.408C299.041,203.759 295.494,203.822 291.941,203.577C292.413,200.84 292.922,198.09 293.355,195.332C296.011,195.63 298.631,195.436 301.28,195.16C301.627,197.337 302.024,199.509 302.387,201.673C302.474,202.187 302.524,202.789 302.585,203.408ZM308.3,226.233C308.334,222.456 308.459,218.665 308.403,214.887C308.375,213.058 308.218,211.205 307.548,209.482C306.842,207.67 305.075,206.758 304.443,205.44C303.463,203.396 303.501,199.917 303.139,197.696C302.712,195.081 302.226,192.452 301.979,189.813C302.247,189.499 302.72,189.244 302.933,188.838C303.216,188.3 302.942,187.754 302.616,187.264C302.771,187.273 302.94,187.287 303.144,187.305C303.632,187.351 303.895,186.824 303.819,186.419C303.645,185.494 303.327,184.169 302.522,183.578C301.376,182.735 299.045,183.061 297.727,183.034C296.358,183.004 293.766,182.661 292.489,183.369C291.494,183.92 291.096,185.317 290.843,186.346C290.785,186.583 290.847,186.78 290.965,186.928C291.093,187.128 291.317,187.25 291.599,187.214C291.609,187.214 291.619,187.213 291.628,187.212C291.655,187.207 291.677,187.214 291.704,187.206C291.816,187.176 291.916,187.162 292.02,187.143C291.761,187.712 291.438,188.365 291.721,188.924C291.845,189.169 292.062,189.374 292.256,189.565C292.372,189.677 292.492,189.786 292.607,189.898C292.614,189.905 292.632,189.925 292.654,189.95C292.203,194.808 291.203,199.655 290.374,204.458C290.076,206.192 288.937,206.469 288.036,208.052C286.978,209.911 286.633,212.12 286.542,214.228C286.227,221.581 286.243,229.149 286.528,236.501C286.747,242.143 291.807,241.733 296.177,241.637C299.857,241.557 307.447,242.911 308.197,237.711C308.726,234.039 308.267,229.938 308.3,226.233Z" style="fill:rgb(173,156,127);fill-rule:nonzero;"/>
                    </g>
                    <g transform="matrix(4.16667,0,0,4.16667,16,1282.33)">
                        <path d="M297.725,233.289C288.978,234.148 289.287,216.739 297.209,215.419C305.81,215.415 306.032,232.474 297.725,233.289ZM297.156,214.017C297.106,214.017 297.069,214.037 297.024,214.045C297.005,214.046 296.99,214.039 296.97,214.041C287.266,215.416 287.35,236.209 297.92,234.745C308.039,233.342 307.508,213.924 297.156,214.017Z" style="fill:rgb(173,156,127);fill-rule:nonzero;"/>
                    </g>
                    <g transform="matrix(4.16667,0,0,4.16667,16,1282.33)">
                        <path d="M290.909,214.731C291.171,213.153 291.866,211.782 293.006,210.657C293.648,210.023 292.658,209.033 292.016,209.666C290.72,210.946 289.858,212.559 289.558,214.359C289.412,215.24 290.76,215.62 290.909,214.731Z" style="fill:rgb(173,156,127);fill-rule:nonzero;"/>
                    </g>
                    <g transform="matrix(4.16667,0,0,4.16667,16,1282.33)">
                        <path d="M293.64,209.185C294.54,209.185 294.542,207.785 293.64,207.785C292.739,207.785 292.738,209.185 293.64,209.185Z" style="fill:rgb(173,156,127);fill-rule:nonzero;"/>
                    </g>
                </g>
                <g transform="matrix(0.290556,0,0,0.290556,86.471,1509.62)">
                    <g transform="matrix(4.16667,0,0,4.16667,16,1282.33)">
                        <path d="M306.967,218.806C306.929,223.073 306.89,227.338 306.852,231.605C306.836,233.248 306.941,234.947 306.806,236.584C306.542,239.798 303.692,240.114 300.827,240.145C297.788,240.178 293.871,240.923 290.948,240.123C287.985,239.31 287.928,237.47 287.928,235.116C287.928,228.359 287.762,221.581 287.928,214.827C287.956,213.697 288.029,212.579 288.274,211.47C288.747,209.332 289.985,208.314 291.155,206.679C291.508,206.186 291.638,205.583 291.731,204.965C295.414,205.232 299.091,205.167 302.766,204.792C302.855,205.299 302.973,205.781 303.158,206.183C303.249,206.386 303.238,206.563 303.383,206.758C304.003,207.593 304.93,207.71 305.588,208.658C306.124,209.429 306.412,210.373 306.633,211.275C307.227,213.69 306.99,216.342 306.967,218.806ZM297.727,184.433C298.7,184.452 300.06,184.317 300.99,184.587C301.707,184.796 302.034,185.233 302.226,185.777C301.967,185.748 301.711,185.737 301.499,185.794C301.282,185.853 301.1,186.03 300.914,186.15C300.848,186.191 300.815,186.223 300.78,186.255C300.326,186.106 299.803,185.697 299.311,185.686C298.797,185.674 297.965,186.179 297.716,186.185C297.531,186.188 296.718,185.81 296.289,185.795C295.833,185.78 295.076,186.095 294.837,186.078C294.602,186.061 293.877,185.586 293.438,185.533C293.216,185.505 292.968,185.523 292.716,185.555C293.759,184.143 295.821,184.396 297.727,184.433ZM294.031,190.157C296.205,190.372 298.438,190.381 300.61,190.082C300.73,191.316 300.889,192.548 301.072,193.779C298.565,194.037 296.081,194.205 293.568,193.948C293.75,192.685 293.909,191.421 294.031,190.157ZM295.079,187.449C295.742,187.437 296.058,187.223 296.404,187.264C296.922,187.326 297.369,187.604 297.899,187.569C298.17,187.55 298.936,187.249 299.164,187.124C299.301,187.186 299.647,187.279 299.726,187.317C299.92,187.41 300.266,187.615 300.494,187.643C300.807,187.682 300.958,187.64 301.113,187.57C301.253,187.81 301.397,188.062 301.574,188.249C301.581,188.262 301.587,188.276 301.595,188.289C301.569,188.322 301.541,188.356 301.527,188.371C301.444,188.451 301.356,188.525 301.267,188.599C301.248,188.602 301.233,188.595 301.213,188.599C298.674,189.069 295.985,189 293.431,188.705L293.428,188.705C293.299,188.581 293.169,188.463 293.044,188.369C293.045,188.363 293.046,188.36 293.047,188.353C293.071,188.283 293.096,188.213 293.123,188.145C293.245,187.83 293.382,187.522 293.502,187.206C293.989,187.317 294.466,187.46 295.079,187.449ZM302.585,203.408C299.041,203.759 295.494,203.822 291.941,203.577C292.413,200.84 292.922,198.09 293.355,195.332C296.011,195.63 298.631,195.436 301.28,195.16C301.627,197.337 302.024,199.509 302.387,201.673C302.474,202.187 302.524,202.789 302.585,203.408ZM308.3,226.233C308.334,222.456 308.459,218.665 308.403,214.887C308.375,213.058 308.218,211.205 307.548,209.482C306.842,207.67 305.075,206.758 304.443,205.44C303.463,203.396 303.501,199.917 303.139,197.696C302.712,195.081 302.226,192.452 301.979,189.813C302.247,189.499 302.72,189.244 302.933,188.838C303.216,188.3 302.942,187.754 302.616,187.264C302.771,187.273 302.94,187.287 303.144,187.305C303.632,187.351 303.895,186.824 303.819,186.419C303.645,185.494 303.327,184.169 302.522,183.578C301.376,182.735 299.045,183.061 297.727,183.034C296.358,183.004 293.766,182.661 292.489,183.369C291.494,183.92 291.096,185.317 290.843,186.346C290.785,186.583 290.847,186.78 290.965,186.928C291.093,187.128 291.317,187.25 291.599,187.214C291.609,187.214 291.619,187.213 291.628,187.212C291.655,187.207 291.677,187.214 291.704,187.206C291.816,187.176 291.916,187.162 292.02,187.143C291.761,187.712 291.438,188.365 291.721,188.924C291.845,189.169 292.062,189.374 292.256,189.565C292.372,189.677 292.492,189.786 292.607,189.898C292.614,189.905 292.632,189.925 292.654,189.95C292.203,194.808 291.203,199.655 290.374,204.458C290.076,206.192 288.937,206.469 288.036,208.052C286.978,209.911 286.633,212.12 286.542,214.228C286.227,221.581 286.243,229.149 286.528,236.501C286.747,242.143 291.807,241.733 296.177,241.637C299.857,241.557 307.447,242.911 308.197,237.711C308.726,234.039 308.267,229.938 308.3,226.233Z" style="fill:rgb(173,156,127);fill-rule:nonzero;"/>
                    </g>
                    <g transform="matrix(4.16667,0,0,4.16667,16,1282.33)">
                        <path d="M297.725,233.289C288.978,234.148 289.287,216.739 297.209,215.419C305.81,215.415 306.032,232.474 297.725,233.289ZM297.156,214.017C297.106,214.017 297.069,214.037 297.024,214.045C297.005,214.046 296.99,214.039 296.97,214.041C287.266,215.416 287.35,236.209 297.92,234.745C308.039,233.342 307.508,213.924 297.156,214.017Z" style="fill:rgb(173,156,127);fill-rule:nonzero;"/>
                    </g>
                    <g transform="matrix(4.16667,0,0,4.16667,16,1282.33)">
                        <path d="M290.909,214.731C291.171,213.153 291.866,211.782 293.006,210.657C293.648,210.023 292.658,209.033 292.016,209.666C290.72,210.946 289.858,212.559 289.558,214.359C289.412,215.24 290.76,215.62 290.909,214.731Z" style="fill:rgb(173,156,127);fill-rule:nonzero;"/>
                    </g>
                    <g transform="matrix(4.16667,0,0,4.16667,16,1282.33)">
                        <path d="M293.64,209.185C294.54,209.185 294.542,207.785 293.64,207.785C292.739,207.785 292.738,209.185 293.64,209.185Z" style="fill:rgb(173,156,127);fill-rule:nonzero;"/>
                    </g>
                </g>
            </g>
            <g transform="matrix(1,0,0,1,-2048.65,414.628)">
                <text x="2376.95px" y="1802.59px" style="font-family:'OpenSans-Semibold', 'Open Sans', sans-serif;font-weight:600;font-size:16px;fill:rgb(173,156,127);">6<tspan x="2385.76px 2389.6px 2398.34px 2407.79px 2417.62px 2421.76px 2429.37px 2438.33px 2445.8px 2449.63px 2455.56px 2459.39px 2473.84px 2477.98px 2486.47px 2495.37px 2501.95px " y="1802.59px 1802.59px 1802.59px 1802.59px 1802.59px 1802.59px 1802.59px 1802.59px 1802.59px 1802.59px 1802.59px 1802.59px 1802.59px 1802.59px 1802.59px 1802.59px 1802.59px "> Tônicas / Mixers</tspan></text>
            </g>
        </g>
    </g>
</svg>
