<?xml version="1.0" encoding="UTF-8" standalone="no"?>
<!DOCTYPE svg PUBLIC "-//W3C//DTD SVG 1.1//EN" "http://www.w3.org/Graphics/SVG/1.1/DTD/svg11.dtd">
<svg width="100%" height="100%" viewBox="0 0 18 18" version="1.1" xmlns="http://www.w3.org/2000/svg" xmlns:xlink="http://www.w3.org/1999/xlink" xml:space="preserve" xmlns:serif="http://www.serif.com/" style="fill-rule:evenodd;clip-rule:evenodd;stroke-linejoin:round;stroke-miterlimit:2;">
    <g transform="matrix(1,0,0,1,-3897,-3577)">
        <g transform="matrix(1,0,0,1,2420,3538.78)">
            <g transform="matrix(0.818182,0,0,0.818182,793.818,-280.682)">
                <path d="M856.8,409.41C856.89,410.11 857,410.97 857,411L835,411C835,410.97 835.1,410.17 835.19,409.47C835.07,409.44 835,409.32 835,409.08L835,408.53C835,408.53 835,407.06 837.74,405.74C839.05,405.1 841.03,403.43 843.92,402.86C843.16,402 842.61,400.61 842.03,399C841.68,398.05 841.74,397.25 841.74,396.13C841.74,395.29 841.61,393.94 841.79,393.19C842.42,390.69 844.05,390 845.97,390C847.87,390 849.5,390.69 850.13,393.19C850.34,393.94 850.18,395.26 850.18,396.13C850.18,397.25 850.24,398.05 849.92,399C849.34,400.61 848.76,401.97 848.03,402.86C850.95,403.41 852.89,405.07 854.24,405.74C856.97,407.06 857,408.53 857,408.53L857,409C857,409.28 856.92,409.39 856.8,409.41" style="fill:rgb(64,64,64);"/>
            </g>
        </g>
    </g>
</svg>
