<?xml version="1.0" encoding="UTF-8" standalone="no"?><!DOCTYPE svg PUBLIC "-//W3C//DTD SVG 1.1//EN" "http://www.w3.org/Graphics/SVG/1.1/DTD/svg11.dtd"><svg width="100%" height="100%" viewBox="0 0 18 18" version="1.1" xmlns="http://www.w3.org/2000/svg" xmlns:xlink="http://www.w3.org/1999/xlink" xml:space="preserve" xmlns:serif="http://www.serif.com/" style="fill-rule:evenodd;clip-rule:evenodd;stroke-linejoin:round;stroke-miterlimit:2;"><path d="M17.836,16.29c0.074,0.573 0.164,1.276 0.164,1.301l-18,0c0,-0.025 0.082,-0.679 0.155,-1.252c-0.098,-0.024 -0.155,-0.123 -0.155,-0.319l0,-0.45c0,0 0,-1.203 2.242,-2.283c1.072,-0.523 2.692,-1.89 5.056,-2.356c-0.622,-0.704 -1.072,-1.841 -1.546,-3.158c-0.287,-0.778 -0.237,-1.432 -0.237,-2.348c0,-0.688 -0.107,-1.792 0.04,-2.406c0.516,-2.045 1.85,-2.61 3.42,-2.61c1.555,0 2.889,0.565 3.404,2.61c0.172,0.614 0.041,1.694 0.041,2.406c0,0.916 0.049,1.57 -0.213,2.348c-0.474,1.317 -0.949,2.43 -1.546,3.158c2.389,0.45 3.976,1.808 5.081,2.356c2.233,1.08 2.258,2.283 2.258,2.283l0,0.385c0,0.229 -0.065,0.319 -0.164,0.335" style="fill:#fff;"/></svg>