<?xml version="1.0" encoding="UTF-8" standalone="no"?><!DOCTYPE svg PUBLIC "-//W3C//DTD SVG 1.1//EN" "http://www.w3.org/Graphics/SVG/1.1/DTD/svg11.dtd"><svg width="100%" height="100%" viewBox="0 0 128 104" version="1.1" xmlns="http://www.w3.org/2000/svg" xmlns:xlink="http://www.w3.org/1999/xlink" xml:space="preserve" xmlns:serif="http://www.serif.com/" style="fill-rule:evenodd;clip-rule:evenodd;stroke-linejoin:round;stroke-miterlimit:2;"><g><clipPath id="_clip1"><path d="M83.342,8.661c-0.749,4.279 9.486,0.475 3.495,3.328c-6.99,3.328 2.496,2.139 2.496,3.803c0,0.713 -2.995,2.377 -3.744,2.377c-2.996,0 0.25,5.229 -0.25,5.705c-1.997,1.901 4.244,1.188 0.25,4.992c-1.248,1.188 6.241,1.188 6.241,3.803c0,2.615 -0.999,7.369 -0.999,9.746c0,1.188 -5.242,2.377 -2.246,5.229c0,0 8.487,5.943 7.738,6.656c-0.998,0.951 -6.241,0.475 -7.489,1.664c-2.995,2.852 2.497,2.852 4.494,2.852c3.994,0 -10.485,4.517 1.747,4.517c5.742,0 2.584,0.786 9.986,0.475c7.513,-0.315 16.74,-7.844 13.231,-8.082c-0.249,-0.017 -1.748,1.189 -7.24,2.377c-1.217,0.264 5.411,-2.735 5.742,-2.852c5.092,-1.807 6.024,-4.485 -0.25,-4.992c-1.492,-0.121 -3.495,0.951 -5.492,0.951c-4.493,0 3.732,-5.943 3.233,-5.943c-0.999,0 -3.745,-1.271 -3.745,-0.558c0,0.475 -2.247,2.46 -0.499,0.796c0.249,-0.238 3.744,-0.713 3.744,-2.139c0,-4.992 -3.994,-1.189 -4.992,-1.189c-1.498,0 4.243,-3.09 4.243,-3.565c0,-2.378 -5.492,0.95 -1.747,-2.615c2.996,-2.853 1.747,0 1.747,-4.754c0,-4.041 4.257,-8.558 4.257,-14.738c0,-1.664 9.237,-4.516 3.245,-4.516c-3.245,0 -1.997,-4.041 -0.499,-5.467c2.746,-2.615 -7.988,0 -8.238,0c-0.749,0 13.48,-5.943 3.245,-5.943c-4.992,0 -5.741,3.566 -10.235,3.566c0,0 6.74,-4.042 4.244,-4.042c-8.987,0 -16.726,8.32 -25.713,8.558Z" clip-rule="nonzero"/></clipPath><g clip-path="url(#_clip1)"><rect x="-62.989" y="-11.556" width="254.009" height="150.818" style="fill:url(#_Linear2);"/></g><clipPath id="_clip3"><path d="M97.322,8.661l0,2.852c0,0.713 -0.25,0.476 0.749,0.476c0.499,0 0.249,0 0.249,0c0,0.475 -0.499,0.713 -0.748,0.951c0,0 -0.999,1.188 -0.25,1.188c0,0 0.998,0.475 0.998,0.713c0,0.238 0.5,0.238 0.5,0.951c0,0.475 0.249,0.713 0.749,0.713c1.248,0 0.499,0.475 0.749,0.713c0,0 2.246,-0.238 2.746,-0.238c0.748,0 2.246,0 2.496,-0.237l0.499,-0.713l1.498,-0.951c0,0 -0.749,-0.238 -0.998,-0.238l-0.5,0c-0.249,0 0.5,-0.951 0.749,-0.951l1.748,-0.475c0,0 0.249,-0.475 0.499,-0.475c0.499,0 0,-0.476 0.499,-0.476c0,0 0.749,-0.475 0.25,-0.475l-1.748,0c-0.249,0 -0.249,-1.189 -0.249,-1.426c0,-0.238 0.998,-0.476 0.998,-0.476c0.5,-0.475 -1.248,-1.664 -1.248,-1.664l0.25,-0.238c0.499,-0.475 -1.748,-0.475 -1.748,0.238c0,0.238 -0.998,0.951 -0.998,0.238l0,-0.951c0,-0.475 0.499,-0.475 0.499,-1.426c0,-1.426 -1.748,-0.238 -1.997,0l-0.999,0.238l-0.249,0.237c-0.25,0 -0.25,0.238 -0.5,-0.237c0,0 -0.249,-1.427 -0.499,-1.427c-0.749,0 -3.495,0.951 -3.495,1.427c0,0.237 -0.499,2.139 -0.499,2.139Z" clip-rule="nonzero"/></clipPath><g clip-path="url(#_clip3)"><rect x="-62.989" y="-11.556" width="254.009" height="150.818" style="fill:url(#_Radial4);"/></g><path d="M94.077,20.071l-7.24,0c-5.242,0 3.495,3.565 2.496,3.565c-0.998,0 -4.493,-0.238 -4.493,0.713c0,1.426 1.997,2.14 1.997,2.615c0,1.189 -1.248,1.902 -1.997,2.615c-2.496,2.377 5.742,1.664 5.742,3.09c0,1.426 -2.247,1.426 -2.746,1.902c-2.247,2.139 2.496,4.041 2.995,4.516c0.999,0.951 -4.992,0.951 -4.992,2.615c0,3.09 1.248,2.852 4.243,2.852c3.495,0 2.996,1.426 1.498,2.852c-1.248,1.189 -4.244,-0.95 -4.244,2.378c0,1.188 4.244,1.188 4.244,1.664c0,0.713 -3.495,1.663 0.5,1.663c1.997,0 9.236,2.14 9.236,0.476c0,-1.902 -1.747,-0.951 -1.747,-2.853c0,-2.377 -3.495,-2.852 -1.498,-4.754c0.998,-0.95 0.998,-0.237 0.998,-2.139c0,-0.951 2.497,-4.041 -0.998,-4.041c-1.748,0 -4.244,-2.615 -1.248,-2.615c2.995,0 1.497,-1.426 0.749,-2.139c-0.25,-0.238 -3.495,-0.475 -1.998,-1.902c0.749,-0.713 2.996,0.238 3.495,-0.237c1.998,-1.902 -4.243,-1.189 -2.246,-3.091c0.998,-0.95 -0.999,-2.139 0.499,-3.565c0.998,-0.951 3.745,-2.853 3.745,-4.992c0,-1.902 -4.993,-1.426 -6.99,-1.188Z" style="fill:#00923f;"/><path d="M108.056,20.308c-4.743,2.14 3.246,6.181 0.25,6.181c-0.999,0 0.999,0.475 1.248,0.713c0.25,0.237 -1.248,1.664 0.25,3.09c0,0 -2.746,2.615 -0.25,2.615c5.243,0 -1.747,2.614 -1.747,4.516c0,0.238 -1.248,0.951 -0.25,0.951c2.247,0 2.247,0.951 0.749,0.951c-1.248,0 -1.498,2.377 -1.498,2.377c-0.998,0.95 1.498,0.713 2.497,0.713c1.997,0 -4.993,4.278 -1.498,4.278c0.499,0 3.744,0 3.245,0.476c-1.248,1.188 -1.997,3.803 -2.996,4.754c-2.995,2.852 6.99,1.188 8.738,-0.475c0.249,-0.238 3.744,-2.378 0.749,-2.378c-1.997,0 -4.743,0 -4.494,-0.237c0.25,-0.238 8.987,-2.377 6.491,-3.566c-1.748,-0.713 -1.997,-0.237 -3.745,-0.237c-1.747,0 5.492,-3.091 3.994,-4.517c-1.747,-1.664 1.997,-3.803 -2.496,-3.803c-0.499,0 -0.25,-2.139 0.749,-2.139c0,0 1.498,-1.664 0.999,-1.664c-1.498,0 -2.247,-2.14 -2.247,-3.566c0,-0.238 1.498,-1.188 1.498,-1.188c1.497,0 1.997,-2.14 1.997,-3.328c0,-1.189 -1.498,-1.664 -2.746,-1.664c-2.247,0 3.994,-1.902 3.994,-2.853c0,-1.188 -4.993,0.238 -2.996,-1.664c3.245,-3.09 -1.248,-3.327 -3.245,-1.426c-0.999,0.951 -4.993,2.853 -7.24,3.09Z" style="fill:#00923f;"/><path d="M0,35.362c0,-1.49 0.3,-2.857 0.906,-4.094c0.606,-1.242 1.327,-2.264 2.163,-3.076c0.836,-0.807 1.908,-1.534 3.214,-2.174c1.307,-0.64 2.703,-1.016 4.195,-1.129c1.492,-0.108 2.829,-0.086 4.02,0.064c1.187,0.156 2.459,0.56 3.82,1.216c1.357,0.656 2.549,1.608 3.565,2.862c1.016,1.248 1.607,2.565 1.767,3.953c0.16,1.388 -0.045,2.625 -0.611,3.712c-0.566,1.086 -1.236,1.861 -2.017,2.324c-0.776,0.462 -1.262,0.559 -1.452,0.301c-0.19,-0.264 -0.1,-0.581 0.265,-0.947c0.366,-0.371 0.786,-0.791 1.262,-1.264c0.476,-0.468 0.776,-1.113 0.911,-1.92c0.13,-0.807 0.02,-1.786 -0.326,-2.937c-0.345,-1.151 -1.031,-2.195 -2.052,-3.131c-1.021,-0.936 -2.178,-1.624 -3.469,-2.065c-1.292,-0.441 -2.739,-0.64 -4.341,-0.598c-1.602,0.044 -3.214,0.409 -4.826,1.103c-1.612,0.694 -2.879,1.7 -3.79,3.018c-0.916,1.318 -1.397,2.862 -1.447,4.626c-0.05,1.764 0.346,3.351 1.182,4.75c0.836,1.403 2.062,2.539 3.679,3.405c1.622,0.866 3.31,1.355 5.072,1.468c1.757,0.108 3.645,0.059 5.652,-0.145c2.008,-0.205 3.955,-0.764 5.832,-1.679c1.878,-0.914 3.229,-1.974 4.061,-3.184c0.831,-1.205 1.401,-2.463 1.717,-3.771c0.31,-1.307 0.395,-2.63 0.25,-3.959c-0.15,-1.328 -0.671,-2.942 -1.562,-4.851c-0.896,-1.905 -1.937,-3.933 -3.119,-6.074c-1.181,-2.146 -2.057,-3.985 -2.618,-5.524c-0.561,-1.538 -0.886,-2.969 -0.976,-4.281c-0.085,-1.313 -0.031,-2.545 0.175,-3.696c0.205,-1.151 0.706,-2.394 1.497,-3.739c0.791,-1.344 1.842,-2.339 3.154,-2.974c1.311,-0.635 2.578,-0.952 3.8,-0.952c1.496,0 2.723,0.166 3.679,0.506c0.962,0.333 1.898,0.968 2.809,1.898c0.916,0.931 1.502,2.426 1.752,4.497c-0.115,2.017 -0.421,3.48 -0.906,4.39c-0.491,0.909 -1.117,1.608 -1.878,2.097c-0.766,0.49 -1.531,0.775 -2.312,0.866c-0.776,0.092 -1.517,-0.059 -2.218,-0.441c-0.706,-0.382 -1.197,-0.957 -1.467,-1.726c-0.276,-0.764 -0.28,-1.507 -0.015,-2.222c0.26,-0.715 0.63,-1.194 1.106,-1.436c0.476,-0.237 0.751,-0.183 0.826,0.167c0.08,0.354 0.005,0.656 -0.225,0.914c-0.23,0.258 -0.356,0.715 -0.381,1.372c-0.025,0.656 0.176,1.151 0.606,1.479c0.431,0.333 0.996,0.479 1.697,0.436c0.696,-0.043 1.327,-0.42 1.893,-1.135c0.56,-0.716 0.926,-1.62 1.091,-2.712c0.165,-1.091 0.025,-2.264 -0.42,-3.523c-0.441,-1.253 -1.107,-2.189 -1.993,-2.813c-0.886,-0.619 -1.942,-0.941 -3.174,-0.968c-1.231,-0.027 -2.258,0.215 -3.084,0.715c-0.821,0.506 -1.507,1.173 -2.067,2.007c-0.556,0.828 -0.987,1.85 -1.287,3.071c-0.305,1.216 -0.34,2.453 -0.105,3.712c0.235,1.253 0.816,2.781 1.737,4.577c0.926,1.797 1.913,3.685 2.964,5.675c1.051,1.985 1.877,3.916 2.488,5.799c0.606,1.877 0.931,3.518 0.981,4.921c0.05,1.405 -0.145,2.873 -0.586,4.406c-0.44,1.533 -1.201,3.039 -2.282,4.513c-1.082,1.479 -2.544,2.663 -4.386,3.55c-1.842,0.888 -3.69,1.463 -5.537,1.722c-1.847,0.263 -3.85,0.408 -6.013,0.425c-2.197,-0.017 -4.225,-0.442 -6.072,-1.265c-1.848,-0.828 -3.24,-1.769 -4.171,-2.829c-0.936,-1.059 -1.602,-2.195 -2.002,-3.4c-0.401,-1.199 -0.601,-2.495 -0.601,-3.883Zm36.782,4.421c0.525,0.205 1.221,0.146 2.082,-0.183c0.861,-0.322 1.673,-0.72 2.428,-1.194c0.756,-0.473 1.272,-0.855 1.542,-1.151c0.266,-0.296 0.496,-0.338 0.686,-0.134c0.19,0.204 0.161,0.5 -0.095,0.887c-0.255,0.393 -0.756,0.915 -1.512,1.577c-0.751,0.661 -1.582,1.194 -2.493,1.586c-0.906,0.393 -1.957,0.592 -3.154,0.592c-1.467,0 -2.198,-0.705 -2.198,-2.114c0,-1.71 0.551,-3.615 1.652,-5.702c1.097,-2.092 2.198,-3.62 3.29,-4.588c1.096,-0.968 2.137,-1.458 3.123,-1.479c0.841,0 1.462,0.15 1.863,0.457c0.4,0.301 0.605,0.737 0.605,1.307c0,0.839 -0.375,1.737 -1.126,2.684c-0.746,0.952 -1.712,1.813 -2.893,2.588c-1.187,0.768 -2.213,1.403 -3.08,1.887c-0.871,0.49 -1.341,1.06 -1.411,1.706c-0.065,0.645 0.165,1.07 0.691,1.274Zm0.425,-4.561c1.652,-0.871 3.009,-1.77 4.06,-2.695c1.057,-0.925 1.512,-1.646 1.367,-2.157c-0.145,-0.516 -0.435,-0.737 -0.871,-0.656c-0.436,0.081 -0.941,0.376 -1.512,0.887c-0.571,0.517 -1.182,1.248 -1.827,2.195c-0.646,0.942 -1.052,1.754 -1.217,2.426Zm8.536,-6.385c0,-0.452 0.185,-0.742 0.551,-0.882c0.365,-0.135 0.721,-0.205 1.061,-0.205c0.39,0 0.811,0.087 1.262,0.253c0.45,0.167 0.806,0.511 1.071,1.028c0.265,0.511 0.33,1.5 0.19,2.958c0.686,-1.7 1.307,-2.813 1.873,-3.34c0.56,-0.522 1.231,-0.796 2.017,-0.818c0.691,0.022 1.222,0.102 1.587,0.242c0.371,0.145 0.746,0.248 1.137,0.318c0.395,0.07 0.941,0.102 1.647,0.102c-0.501,0.586 -0.711,1.054 -0.631,1.393c0.075,0.344 -0.245,0.522 -0.961,0.538c-0.721,0.016 -1.502,-0.108 -2.343,-0.366c-0.841,-0.253 -1.527,-0.177 -2.068,0.231c-0.535,0.409 -1.227,1.426 -2.073,3.05c-0.846,1.625 -1.546,3.099 -2.097,4.427c-0.556,1.329 -0.997,2.286 -1.337,2.878c-0.335,0.587 -0.726,0.942 -1.166,1.071c-0.331,0 -0.541,-0.038 -0.631,-0.113c-0.085,-0.07 -0.15,-0.21 -0.19,-0.409c0,-0.28 0.07,-0.635 0.215,-1.054c0.14,-0.42 0.475,-1.259 1.011,-2.523c0.531,-1.259 0.996,-2.335 1.392,-3.228c0.395,-0.893 0.646,-1.689 0.751,-2.388c0.1,-0.699 0.11,-1.264 0.02,-1.689c-0.09,-0.425 -0.28,-0.715 -0.581,-0.866c-0.295,-0.151 -0.626,-0.194 -0.981,-0.124c-0.355,0.065 -0.601,-0.091 -0.726,-0.484Zm10.003,0c0,-0.452 0.185,-0.742 0.55,-0.882c0.366,-0.135 0.721,-0.205 1.062,-0.205c0.39,0 0.811,0.087 1.261,0.253c0.451,0.167 0.806,0.511 1.072,1.028c0.265,0.511 0.33,1.5 0.19,2.958c0.686,-1.7 1.306,-2.813 1.872,-3.34c0.561,-0.522 1.232,-0.796 2.018,-0.818c0.691,0.022 1.221,0.102 1.587,0.242c0.37,0.145 0.746,0.248 1.136,0.318c0.396,0.07 0.942,0.102 1.647,0.102c-0.5,0.586 -0.711,1.054 -0.631,1.393c0.076,0.344 -0.245,0.522 -0.961,0.538c-0.721,0.016 -1.502,-0.108 -2.343,-0.366c-0.841,-0.253 -1.526,-0.177 -2.067,0.231c-0.536,0.409 -1.227,1.426 -2.073,3.05c-0.846,1.625 -1.547,3.099 -2.097,4.427c-0.556,1.329 -0.997,2.286 -1.337,2.878c-0.336,0.587 -0.726,0.942 -1.167,1.071c-0.33,0 -0.541,-0.038 -0.631,-0.113c-0.085,-0.07 -0.15,-0.21 -0.19,-0.409c0,-0.28 0.07,-0.635 0.216,-1.054c0.14,-0.42 0.475,-1.259 1.011,-2.523c0.531,-1.259 0.996,-2.335 1.392,-3.228c0.395,-0.893 0.645,-1.689 0.751,-2.388c0.1,-0.699 0.11,-1.264 0.019,-1.689c-0.09,-0.425 -0.28,-0.715 -0.58,-0.866c-0.296,-0.151 -0.626,-0.194 -0.981,-0.124c-0.356,0.065 -0.601,-0.091 -0.726,-0.484Zm12.971,3.588c-1.392,1.915 -2.243,3.528 -2.558,4.836c-0.311,1.307 -0.025,1.947 0.856,1.915c0.886,-0.033 1.652,-0.56 2.288,-1.582c0.641,-1.027 1.357,-2.399 2.152,-4.12c0.792,-1.727 0.882,-2.808 0.271,-3.255c-0.611,-0.446 -1.612,0.286 -3.009,2.206Zm1.342,6.471c-1.457,1.845 -2.598,2.776 -3.43,2.786c-0.831,0.011 -1.476,-0.226 -1.937,-0.715c-0.461,-0.489 -0.691,-1.27 -0.691,-2.34c0.02,-1.092 0.491,-2.442 1.412,-4.051c0.916,-1.608 1.842,-2.985 2.778,-4.136c0.932,-1.151 1.678,-1.867 2.228,-2.152c0.551,-0.285 1.102,-0.435 1.652,-0.457c0.506,0.032 0.922,0.215 1.237,0.549c0.32,0.339 0.561,0.834 0.726,1.49c0.165,0.656 -0.156,1.807 -0.976,3.442c-0.817,1.641 -1.257,3.056 -1.327,4.25c-0.065,1.194 0.175,1.834 0.736,1.931c0.556,0.092 1.086,-0.086 1.592,-0.538c0.5,-0.452 0.891,-0.812 1.171,-1.076c0.281,-0.269 0.641,-0.366 1.092,-0.296c-0.03,0.592 -0.301,1.227 -0.811,1.91c-0.516,0.683 -1.027,1.221 -1.542,1.614c-0.511,0.393 -1.152,0.608 -1.913,0.64c-1.146,-0.022 -1.812,-0.974 -1.997,-2.851Z" style="fill:#fff;"/><path d="M16.392,63.559c-0.731,1.108 -1.138,1.896 -1.223,2.361c-0.086,0.465 0.036,0.716 0.365,0.755c0.33,0.039 0.682,-0.209 1.057,-0.738c0.379,-0.532 0.757,-1.23 1.135,-2.102c0.381,-0.869 0.436,-1.409 0.164,-1.623c-0.27,-0.212 -0.77,0.237 -1.498,1.347Zm0.705,3.043c-0.754,0.955 -1.345,1.437 -1.775,1.442c-0.43,0.006 -0.764,-0.117 -1.003,-0.37c-0.238,-0.253 -0.357,-0.657 -0.357,-1.211c0.01,-0.565 0.253,-1.264 0.728,-2.096c0.476,-0.833 0.956,-1.545 1.44,-2.141c0.482,-0.596 0.897,-0.974 1.242,-1.133c0.342,-0.162 0.616,-0.234 0.818,-0.217c0.202,0.016 0.394,0.156 0.578,0.415c0.181,0.261 0.707,-0.413 1.578,-2.022c0.871,-1.609 1.809,-3.04 2.816,-4.287c1.008,-1.247 1.959,-2.21 2.858,-2.89c0.899,-0.682 1.892,-1.063 2.98,-1.149c0.891,0.114 1.347,0.437 1.373,0.968c-0.106,0.462 -0.35,0.763 -0.733,0.903c-0.381,0.139 -0.873,0.194 -1.474,0.166c-0.604,-0.027 -1.265,0.148 -1.985,0.521c-0.723,0.376 -1.404,0.888 -2.047,1.534c-0.642,0.649 -1.363,1.64 -2.158,2.973c-0.798,1.337 -1.376,2.306 -1.731,2.912c-0.358,0.607 -0.796,1.378 -1.314,2.314c-0.518,0.932 -0.837,1.706 -0.951,2.319c-0.111,0.612 -0.054,1.021 0.171,1.23c0.228,0.212 0.547,0.156 0.954,-0.167c0.407,-0.32 0.702,-0.618 0.883,-0.89c0.184,-0.276 0.355,-0.34 0.519,-0.192c-0.016,0.331 -0.169,0.717 -0.462,1.158c-0.29,0.439 -0.58,0.773 -0.867,0.999c-0.288,0.225 -0.708,0.356 -1.252,0.395c-0.529,-0.022 -0.803,-0.518 -0.829,-1.484Zm5.573,0.198c0.303,-0.181 0.612,-0.515 0.922,-0.999c0.311,-0.482 0.609,-1.058 0.892,-1.729c0.282,-0.668 0.37,-1.181 0.262,-1.537c-0.109,-0.356 -0.366,-0.404 -0.767,-0.142c-0.402,0.262 -0.845,0.671 -1.325,1.23c-0.481,0.56 -0.839,1.139 -1.075,1.735c-0.233,0.596 -0.186,1.03 0.143,1.303c0.329,0.276 0.645,0.323 0.948,0.139Zm-1.427,-2.781c0.489,-0.688 0.966,-1.234 1.422,-1.64c0.458,-0.404 0.832,-0.749 1.119,-1.03c0.29,-0.284 0.591,-0.44 0.905,-0.473c0.282,0.011 0.502,0.053 0.655,0.131c0.155,0.075 0.321,0.158 0.495,0.253c0.173,0.092 0.415,0.156 0.72,0.189c0.306,0.036 0.627,-0.003 0.964,-0.117c0.337,-0.114 0.531,-0.041 0.581,0.22c-0.055,0.29 -0.267,0.501 -0.638,0.64c-0.368,0.14 -0.775,0.157 -1.22,0.053c-0.446,-0.103 -0.643,0.053 -0.588,0.465c0.051,0.412 -0.117,1.111 -0.511,2.094c-0.391,0.98 -0.876,1.762 -1.454,2.347c-0.575,0.584 -1.155,0.885 -1.738,0.902c-0.935,-0.028 -1.428,-0.535 -1.479,-1.526c0.02,-0.982 0.277,-1.82 0.767,-2.508Z" style="fill:#fff;"/><path d="M33.719,63.315c0,-0.74 0.163,-1.587 0.485,-2.534c0.327,-0.953 0.887,-1.965 1.685,-3.035c0.798,-1.07 1.873,-2.183 3.216,-3.333c1.347,-1.144 2.938,-2.273 4.776,-3.38c1.838,-1.108 4.043,-2.119 6.615,-3.035c2.566,-0.915 4.99,-1.634 7.264,-2.156c2.274,-0.516 4.36,-0.905 6.258,-1.166c1.893,-0.261 3.78,-0.415 5.658,-0.468c1.115,0.101 1.883,0.207 2.309,0.319c0.426,0.107 0.724,0.416 0.902,0.911c-0.178,0.345 -0.491,0.553 -0.937,0.633c-0.451,0.08 -0.911,0.154 -1.382,0.224c-0.466,0.074 -1.224,0.314 -2.264,0.713c-1.041,0.399 -2.512,1.219 -4.41,2.454c-1.903,1.241 -3.801,2.705 -5.698,4.408c-1.898,1.699 -3.598,3.658 -5.104,5.878c-1.506,2.22 -2.74,4.248 -3.711,6.085c-0.966,1.836 -2.012,3.95 -3.142,6.346c-1.124,2.395 -2.358,4.6 -3.691,6.607c-1.338,2.007 -2.799,3.742 -4.395,5.201c-1.59,1.459 -3.25,2.598 -4.98,3.418c-1.724,0.814 -3.389,1.4 -4.989,1.762c-1.605,0.357 -3.409,0.538 -5.425,0.538c-2.215,-0.054 -3.811,-0.283 -4.787,-0.698c-0.981,-0.41 -1.779,-0.948 -2.398,-1.613c-0.62,-0.665 -1.021,-1.368 -1.204,-2.113c-0.183,-0.74 -0.278,-1.416 -0.278,-2.018c0,-0.841 0.169,-1.651 0.501,-2.428c0.337,-0.772 0.867,-1.485 1.59,-2.135c0.729,-0.649 1.457,-1.139 2.195,-1.458c0.734,-0.325 1.452,-0.533 2.146,-0.623c0.698,-0.096 1.392,-0.021 2.086,0.218c0.688,0.24 1.189,0.618 1.501,1.145c0.307,0.527 0.466,1.064 0.466,1.613c0,0.554 -0.139,1.123 -0.406,1.709c-0.273,0.585 -0.724,1.011 -1.353,1.272c-0.629,0.261 -1.204,0.319 -1.719,0.181c-0.521,-0.143 -0.907,-0.452 -1.16,-0.937c-0.257,-0.484 -0.372,-0.931 -0.342,-1.336c0.03,-0.405 0.149,-0.815 0.362,-1.23c0.213,-0.415 0.609,-0.74 1.199,-0.969c0.585,-0.229 0.545,-0.351 -0.119,-0.373c-0.664,-0.021 -1.229,0.054 -1.704,0.224c-0.476,0.176 -1.006,0.474 -1.596,0.9c-0.589,0.426 -1.125,1.038 -1.605,1.831c-0.481,0.793 -0.625,1.709 -0.436,2.747c0.188,1.033 0.619,1.917 1.293,2.641c0.674,0.729 1.65,1.224 2.933,1.485c1.279,0.256 3.013,0.304 5.203,0.138c2.185,-0.164 4.281,-0.654 6.283,-1.458c2.006,-0.804 3.751,-1.895 5.237,-3.269c1.481,-1.374 2.889,-3.008 4.217,-4.903c1.322,-1.901 2.447,-3.817 3.364,-5.766c0.922,-1.943 1.967,-4.099 3.146,-6.463c1.174,-2.363 2.686,-4.802 4.529,-7.315c1.843,-2.512 3.805,-4.647 5.891,-6.41c2.086,-1.762 4.118,-3.178 6.09,-4.248c1.977,-1.075 3.686,-1.815 5.138,-2.23c-0.57,-0.251 -1.561,-0.32 -2.968,-0.203c-1.407,0.112 -3.171,0.378 -5.282,0.793c-2.116,0.416 -4.187,0.932 -6.208,1.544c-2.022,0.612 -4.078,1.432 -6.174,2.455c-2.096,1.027 -3.934,2.15 -5.52,3.37c-1.58,1.224 -2.829,2.347 -3.751,3.369c-0.916,1.023 -1.61,2.034 -2.066,3.024c-0.46,0.996 -0.683,1.96 -0.664,2.886c0.02,0.931 0.298,1.73 0.828,2.396c0.535,0.665 1.209,1.075 2.031,1.235c0.823,0.154 1.655,0.111 2.498,-0.117c0.842,-0.235 1.684,-0.634 2.522,-1.188c0.837,-0.559 1.456,-1.256 1.858,-2.108c0.401,-0.846 0.525,-1.629 0.366,-2.353c-0.153,-0.724 -0.129,-1.209 0.075,-1.448c0.203,-0.245 0.426,-0.261 0.673,-0.043c0.248,0.219 0.451,0.698 0.61,1.438c0.163,0.735 0.02,1.64 -0.421,2.704c-0.441,1.065 -1.095,2.002 -1.972,2.806c-0.877,0.809 -1.913,1.437 -3.117,1.895c-1.199,0.458 -2.457,0.634 -3.78,0.517c-1.318,-0.112 -2.314,-0.485 -2.988,-1.108c-0.674,-0.623 -1.15,-1.326 -1.432,-2.097c-0.278,-0.778 -0.421,-1.534 -0.421,-2.268Zm16.41,20.022c0.481,0.586 1.239,0.08 2.284,-1.511c1.046,-1.592 1.913,-3.301 2.602,-5.133c0.683,-1.826 0.763,-2.741 0.232,-2.741c-0.535,0 -1.045,0.245 -1.54,0.74c-0.491,0.495 -1.234,1.512 -2.22,3.05c-0.986,1.539 -1.581,2.71 -1.779,3.514c-0.198,0.809 -0.06,1.501 0.421,2.081Zm-2.651,-0.154c0.05,-1.421 0.684,-3.301 1.913,-5.627c1.224,-2.332 2.794,-5.159 4.707,-8.486c1.917,-3.328 3.84,-6.181 5.772,-8.566c1.928,-2.38 3.756,-4.222 5.471,-5.526c1.719,-1.305 3.612,-2.034 5.683,-2.178c1.695,0.208 2.571,0.809 2.631,1.81c-0.203,0.884 -0.674,1.464 -1.412,1.741c-0.734,0.272 -1.68,0.384 -2.829,0.336c-1.15,-0.053 -2.418,0.271 -3.796,0.979c-1.377,0.708 -2.686,1.688 -3.914,2.934c-1.229,1.245 -2.602,3.151 -4.123,5.707c-1.516,2.56 -2.552,4.376 -3.097,5.462c-0.545,1.081 -0.53,1.352 0.06,0.814c0.584,-0.532 1.135,-0.846 1.645,-0.931c0.515,-0.091 0.966,0.117 1.357,0.612c0.392,0.5 0.268,1.773 -0.371,3.817c-0.639,2.039 -1.363,3.732 -2.17,5.074c-0.808,1.341 -1.685,2.353 -2.626,3.034c-0.942,0.682 -2.047,1.022 -3.3,1.022c-1.066,-0.021 -1.601,-0.697 -1.601,-2.028Zm16.797,-11.665c0.664,-0.084 1.07,0.038 1.219,0.357c0.144,0.325 0.149,0.655 0.015,1.001c-0.139,0.341 -0.605,0.927 -1.402,1.762c-0.798,0.831 -1.546,1.938 -2.245,3.322c-0.694,1.379 -1.134,2.471 -1.313,3.264c-0.178,0.798 -0.089,1.363 0.263,1.704c0.351,0.335 0.886,0.266 1.595,-0.219c0.714,-0.484 1.224,-0.915 1.541,-1.293c0.312,-0.384 0.599,-0.501 0.857,-0.363c0.253,0.144 0.332,0.395 0.233,0.767c-0.104,0.368 -0.451,0.847 -1.045,1.443c-0.6,0.591 -1.184,1.059 -1.764,1.4c-0.585,0.346 -1.353,0.532 -2.309,0.564c-0.961,-0.01 -1.437,-0.708 -1.437,-2.092c0,-1.421 0.282,-2.816 0.857,-4.179c0.57,-1.363 1.368,-2.923 2.393,-4.68c1.026,-1.756 1.873,-2.678 2.542,-2.758Zm1.551,-3.348c-0.173,-0.639 -0.059,-1.081 0.342,-1.331c0.401,-0.25 0.872,-0.373 1.417,-0.373c0.461,0.091 0.723,0.426 0.783,0.996c-0.03,0.697 -0.174,1.166 -0.431,1.405c-0.253,0.24 -0.629,0.341 -1.115,0.309c-0.491,-0.032 -0.823,-0.367 -0.996,-1.006Zm2.368,17.041c-0.416,0 -0.832,-0.154 -1.253,-0.457c-0.421,-0.309 -0.679,-0.661 -0.778,-1.065c-0.094,-0.399 -0.144,-0.815 -0.144,-1.251c0,-0.815 0.302,-1.975 0.912,-3.487c0.609,-1.512 1.496,-3.242 2.656,-5.186c-0.674,-0.042 -0.971,-0.282 -0.882,-0.713c0.084,-0.431 0.664,-0.772 1.724,-1.022c0.575,-0.863 1.323,-1.901 2.25,-3.125c0.931,-1.219 1.59,-1.933 1.976,-2.135c0.387,-0.202 0.729,-0.304 1.031,-0.304c0.243,0.038 0.421,0.133 0.535,0.277c0.119,0.149 0.139,0.415 0.06,0.815c-0.08,0.394 -0.461,0.948 -1.145,1.661c-0.689,0.708 -1.422,1.608 -2.195,2.688c1.135,0.352 2.309,0.512 3.523,0.469c1.214,-0.043 1.818,0.149 1.818,0.575c0,0.239 -0.326,0.362 -0.976,0.367c-0.654,0.005 -1.08,0.133 -1.278,0.383c-0.198,0.251 -1.63,0.293 -4.291,0.123c-0.793,1.299 -1.551,2.651 -2.269,4.051c-0.724,1.395 -1.17,2.412 -1.338,3.045c-0.168,0.634 -0.233,1.177 -0.198,1.624c0.04,0.447 0.287,0.724 0.733,0.836c0.451,0.107 0.882,-0.096 1.293,-0.612c0.412,-0.511 0.56,-1.001 0.451,-1.47c-0.109,-0.468 -0.024,-0.862 0.253,-1.187c0.282,-0.325 0.649,-0.404 1.095,-0.25c0.451,0.154 0.555,0.724 0.312,1.709c-0.238,0.98 -0.604,1.757 -1.095,2.332c-0.486,0.569 -0.966,0.931 -1.437,1.086c-0.471,0.149 -0.917,0.223 -1.343,0.223Zm12.155,-13.693c0.664,-0.084 1.07,0.038 1.218,0.357c0.144,0.325 0.149,0.655 0.015,1.001c-0.138,0.341 -0.604,0.927 -1.402,1.762c-0.798,0.831 -1.546,1.938 -2.244,3.322c-0.694,1.379 -1.135,2.471 -1.314,3.264c-0.178,0.798 -0.089,1.363 0.263,1.704c0.352,0.335 0.887,0.266 1.595,-0.219c0.714,-0.484 1.224,-0.915 1.542,-1.293c0.312,-0.384 0.599,-0.501 0.857,-0.363c0.252,0.144 0.332,0.395 0.233,0.767c-0.104,0.368 -0.451,0.847 -1.046,1.443c-0.599,0.591 -1.184,1.059 -1.764,1.4c-0.584,0.346 -1.352,0.532 -2.309,0.564c-0.961,-0.01 -1.437,-0.708 -1.437,-2.092c0,-1.421 0.283,-2.816 0.857,-4.179c0.57,-1.363 1.368,-2.923 2.394,-4.68c1.025,-1.756 1.873,-2.678 2.542,-2.758Zm1.55,-3.348c-0.173,-0.639 -0.059,-1.081 0.342,-1.331c0.402,-0.25 0.872,-0.373 1.417,-0.373c0.461,0.091 0.724,0.426 0.783,0.996c-0.029,0.697 -0.173,1.166 -0.431,1.405c-0.253,0.24 -0.629,0.341 -1.115,0.309c-0.49,-0.032 -0.822,-0.367 -0.996,-1.006Zm-17.911,33.886c0.079,-0.767 0.51,-1.326 1.293,-1.667c0.783,-0.346 1.769,-0.479 2.953,-0.399c1.189,0.08 2.547,-0.213 4.083,-0.873c1.531,-0.66 3.171,-2.199 4.92,-4.61c1.744,-2.412 3.389,-5.505 4.925,-9.28c1.541,-3.774 2.433,-5.925 2.671,-6.457c0.242,-0.533 0.153,-0.661 -0.273,-0.4c-0.426,0.267 -0.694,0.245 -0.807,-0.058c-0.11,-0.309 0.084,-0.74 0.579,-1.299c0.501,-0.554 0.996,-1.225 1.492,-2.007c0.49,-0.788 0.832,-1.528 1.02,-2.226c0.189,-0.697 0.486,-1.288 0.892,-1.767c0.407,-0.485 1.06,-0.761 1.962,-0.82c0.669,0.011 1.011,0.192 1.036,0.554c0.025,0.356 -0.173,0.596 -0.595,0.724c-0.421,0.122 -0.728,0.319 -0.921,0.585c-0.193,0.266 0.039,0.299 0.688,0.101c0.655,-0.196 1.314,-0.175 1.977,0.064c0.664,0.235 1.14,0.788 1.437,1.645c0.293,0.858 0.283,1.757 -0.044,2.694c-0.322,0.943 -0.981,1.949 -1.972,3.019c-0.996,1.075 -1.522,1.922 -1.586,2.545c-0.059,0.622 0.174,0.995 0.714,1.123c0.535,0.122 1.1,-0.011 1.684,-0.4c0.585,-0.388 1.179,-0.91 1.784,-1.559c0.604,-0.65 1.164,-0.996 1.675,-1.038c-0.134,0.75 -0.471,1.527 -1.016,2.331c-0.54,0.81 -1.134,1.432 -1.779,1.874c-0.639,0.442 -1.347,0.687 -2.115,0.74c-0.773,0.054 -1.437,-0.143 -1.997,-0.59c-0.56,-0.448 -0.867,-1.172 -0.917,-2.178c-0.044,-1.001 0.342,-1.986 1.169,-2.955c0.828,-0.969 1.532,-1.889 2.106,-2.763c0.575,-0.873 0.704,-1.645 0.387,-2.316c-0.322,-0.67 -0.932,-0.798 -1.839,-0.383c-0.906,0.421 -1.674,1.326 -2.309,2.715c-0.634,1.395 -1.491,3.408 -2.566,6.037c-1.08,2.63 -2.314,5.447 -3.701,8.444c-1.393,3.003 -2.909,5.425 -4.559,7.272c-1.65,1.842 -3.23,3.21 -4.732,4.094c-1.506,0.884 -3.151,1.326 -4.93,1.326c-1.858,-0.149 -2.789,-0.761 -2.789,-1.842Zm35.699,-19.24c0.58,-0.346 1.17,-0.985 1.764,-1.912c0.595,-0.921 1.165,-2.023 1.705,-3.306c0.54,-1.277 0.708,-2.257 0.5,-2.938c-0.208,-0.682 -0.699,-0.772 -1.466,-0.272c-0.768,0.501 -1.616,1.283 -2.532,2.353c-0.922,1.07 -1.606,2.178 -2.057,3.317c-0.446,1.139 -0.356,1.97 0.273,2.492c0.629,0.526 1.233,0.617 1.813,0.266Zm-2.73,-5.319c0.937,-1.315 1.848,-2.358 2.72,-3.135c0.877,-0.772 1.591,-1.432 2.141,-1.97c0.555,-0.543 1.13,-0.841 1.729,-0.905c0.54,0.021 0.961,0.101 1.254,0.25c0.297,0.144 0.614,0.304 0.946,0.484c0.332,0.176 0.793,0.299 1.378,0.362c0.584,0.07 1.199,-0.005 1.843,-0.223c0.644,-0.218 1.015,-0.08 1.11,0.42c-0.104,0.554 -0.511,0.959 -1.219,1.225c-0.704,0.266 -1.482,0.298 -2.334,0.101c-0.852,-0.197 -1.229,0.101 -1.125,0.889c0.099,0.788 -0.223,2.124 -0.976,4.004c-0.748,1.874 -1.675,3.37 -2.78,4.488c-1.1,1.118 -2.209,1.693 -3.324,1.724c-1.789,-0.053 -2.73,-1.022 -2.829,-2.917c0.039,-1.879 0.53,-3.482 1.466,-4.797Zm14.221,-1.166c-1.254,1.81 -2.047,3.253 -2.379,4.318c-0.337,1.065 -0.119,1.672 0.649,1.81c0.773,0.138 1.487,-0.138 2.151,-0.841c0.664,-0.703 1.154,-1.246 1.481,-1.624c0.322,-0.378 0.6,-0.511 0.828,-0.399c0.228,0.117 0.089,0.628 -0.416,1.544c-0.501,0.916 -1.155,1.82 -1.953,2.71c-0.798,0.889 -1.649,1.341 -2.561,1.362c-0.793,0 -1.403,-0.239 -1.829,-0.724c-0.426,-0.484 -0.639,-1.256 -0.639,-2.315c0.02,-1.081 0.486,-2.417 1.392,-4.009c0.912,-1.592 1.829,-2.955 2.755,-4.094c0.922,-1.139 1.66,-1.848 2.205,-2.13c0.545,-0.282 1.09,-0.431 1.635,-0.452c0.694,0.064 1.254,0.255 1.675,0.585c0.421,0.325 0.644,0.809 0.674,1.443c-0.124,0.426 -0.491,0.533 -1.1,0.32c-0.614,-0.213 -1.214,-0.304 -1.804,-0.272c-0.589,0.027 -1.511,0.953 -2.764,2.768Zm8.869,-0.298c-1.378,1.895 -2.22,3.493 -2.532,4.786c-0.307,1.294 -0.025,1.927 0.847,1.896c0.877,-0.032 1.636,-0.554 2.265,-1.566c0.634,-1.016 1.342,-2.374 2.13,-4.078c0.783,-1.709 0.872,-2.779 0.268,-3.22c-0.605,-0.442 -1.596,0.282 -2.978,2.182Zm1.328,6.405c-1.442,1.826 -2.572,2.747 -3.394,2.757c-0.823,0.011 -1.462,-0.223 -1.918,-0.708c-0.456,-0.484 -0.683,-1.256 -0.683,-2.315c0.019,-1.081 0.485,-2.417 1.397,-4.009c0.906,-1.592 1.823,-2.955 2.75,-4.094c0.921,-1.139 1.66,-1.848 2.205,-2.13c0.545,-0.282 1.09,-0.431 1.635,-0.452c0.5,0.031 0.911,0.213 1.223,0.543c0.318,0.335 0.555,0.825 0.719,1.474c0.163,0.65 -0.154,1.789 -0.966,3.408c-0.808,1.623 -1.244,3.024 -1.313,4.205c-0.065,1.182 0.173,1.816 0.728,1.912c0.55,0.09 1.075,-0.085 1.576,-0.533c0.495,-0.447 0.882,-0.803 1.159,-1.065c0.278,-0.266 0.634,-0.361 1.08,-0.292c-0.029,0.585 -0.297,1.214 -0.802,1.89c-0.511,0.676 -1.016,1.208 -1.526,1.597c-0.506,0.388 -1.14,0.601 -1.893,0.633c-1.135,-0.021 -1.794,-0.963 -1.977,-2.821Z" style="fill:#fff;"/></g><defs><linearGradient id="_Linear2" x1="0" y1="0" x2="1" y2="0" gradientUnits="userSpaceOnUse" gradientTransform="matrix(2.40379e-15,63.7772,-39.2568,3.90523e-15,83.3028,0.103489)"><stop offset="0" style="stop-color:#1f4492;stop-opacity:1"/><stop offset="1" style="stop-color:#128cc5;stop-opacity:1"/></linearGradient><radialGradient id="_Radial4" cx="0" cy="0" r="1" gradientUnits="userSpaceOnUse" gradientTransform="matrix(12.9321,0,0,12.1229,103.574,11.2174)"><stop offset="0" style="stop-color:#f5b704;stop-opacity:1"/><stop offset="1" style="stop-color:#e7a119;stop-opacity:1"/></radialGradient></defs></svg>