<?xml version="1.0" encoding="UTF-8" standalone="no"?><!DOCTYPE svg PUBLIC "-//W3C//DTD SVG 1.1//EN" "http://www.w3.org/Graphics/SVG/1.1/DTD/svg11.dtd"><svg width="100%" height="100%" viewBox="0 0 21 21" version="1.1" xmlns="http://www.w3.org/2000/svg" xmlns:xlink="http://www.w3.org/1999/xlink" xml:space="preserve" xmlns:serif="http://www.serif.com/" style="fill-rule:evenodd;clip-rule:evenodd;stroke-linejoin:round;stroke-miterlimit:2;"><path d="M16.476,20.887c-4.001,0 -8.146,-1.843 -11.356,-5.053l-0.063,-0.072c-3.336,-3.363 -5.152,-7.58 -5.053,-11.653l0,-0.297l0.189,-0.242c0.287,-0.36 0.575,-0.684 0.872,-0.981c1.088,-1.096 2.374,-1.924 3.812,-2.481c0.171,-0.072 0.369,-0.108 0.585,-0.108c0.485,0 1.573,0.252 1.852,1.007c0.494,1.367 1.115,3.147 1.564,4.846c0.126,0.477 0,1.628 -0.665,2.05l-1.592,1.007c0.018,0.018 0.009,0.261 0.216,0.549c0.612,0.845 1.331,1.681 2.122,2.481c0.8,0.792 1.628,1.502 2.473,2.104c0.162,0.126 0.341,0.189 0.494,0.189l0.549,-0.764l0.503,-0.8c0.441,-0.684 1.547,-0.702 1.673,-0.702c0.126,0 0.242,0.009 0.35,0.036c2.086,0.468 3.336,0.873 4.937,1.592c0.71,0.324 1.159,1.609 0.836,2.418c-0.549,1.439 -1.385,2.716 -2.473,3.804c-0.306,0.306 -0.638,0.602 -0.989,0.881l-0.234,0.18l-0.602,0.009Zm-14.683,-16.436c0.018,3.47 1.699,7.202 4.532,10.043l0.09,0.09c2.841,2.841 6.5,4.496 10.016,4.505c0.216,-0.171 0.414,-0.36 0.602,-0.54c0.908,-0.908 1.601,-1.987 2.068,-3.192c-0.009,0 -0.045,-0.117 -0.081,-0.198c-1.393,-0.62 -2.535,-0.98 -4.414,-1.402c-0.045,0.009 -0.144,0.027 -0.216,0.045l-0.899,1.429c-0.558,0.908 -2.05,1.052 -3.12,0.27c-0.908,-0.656 -1.816,-1.43 -2.68,-2.284c-0.872,-0.881 -1.636,-1.78 -2.31,-2.697c-0.441,-0.603 -0.621,-1.322 -0.495,-1.969c0.099,-0.495 0.378,-0.908 0.782,-1.16l1.421,-0.899c0.018,-0.09 0.036,-0.198 0.036,-0.252c-0.396,-1.475 -0.953,-3.093 -1.421,-4.388c-0.072,-0.027 -0.171,-0.054 -0.242,-0.054c-1.142,0.45 -2.212,1.151 -3.129,2.059c-0.18,0.18 -0.36,0.378 -0.54,0.594" style="fill:#fff;"/></svg>